ScienceGothic-BlkCndCtr.ufo
<glyph name="exclam" format="1">
  <advance width="728"/>
  <unicode hex="0021"/>
  <outline>
    <contour>
      <point x="79.2" y="135" type="curve" smooth="yes"/>
      <point x="79.2" y="226" type="line" smooth="yes"/>
      <point x="79.2" y="343"/>
      <point x="100.2" y="364"/>
      <point x="220.2" y="364" type="curve" smooth="yes"/>
      <point x="507.2" y="364" type="line" smooth="yes"/>
      <point x="627.2" y="364"/>
      <point x="649.2" y="343"/>
      <point x="649.2" y="224" type="curve" smooth="yes"/>
      <point x="649.2" y="135" type="line" smooth="yes"/>
      <point x="649.2" y="15"/>
      <point x="628.2" y="-6"/>
      <point x="508.2" y="-6" type="curve" smooth="yes"/>
      <point x="220.2" y="-6" type="line" smooth="yes"/>
      <point x="100.2" y="-6"/>
      <point x="79.2" y="15"/>
    </contour>
    <contour>
      <point x="346.2" y="462" type="line"/>
      <point x="79.2" y="1400" type="line"/>
      <point x="649.2" y="1400" type="line"/>
      <point x="382.2" y="462" type="line"/>
    </contour>
  </outline>
</glyph>
<glyph name="dollar" format="1">
  <advance width="1307.2"/>
  <unicode hex="0024"/>
  <outline>
    <contour>
      <point x="54.6" y="410" type="line"/>
      <point x="600.6" y="462" type="line"/>
      <point x="600.6" y="26" type="line"/>
      <point x="600.6" y="26"/>
      <point x="600.6" y="26"/>
      <point x="600.6" y="26" type="curve"/>
      <point x="706.6" y="26" type="line"/>
      <point x="706.6" y="26"/>
      <point x="706.6" y="26"/>
      <point x="706.6" y="26" type="curve"/>
      <point x="706.6" y="690" type="line"/>
      <point x="706.6" y="690"/>
      <point x="706.6" y="690"/>
      <point x="706.6" y="690" type="curve"/>
      <point x="482.6" y="690" type="line"/>
      <point x="228.6" y="690"/>
      <point x="74.6" y="752"/>
      <point x="74.6" y="1034" type="curve"/>
      <point x="74.6" y="1078" type="line"/>
      <point x="74.6" y="1354"/>
      <point x="246.6" y="1410"/>
      <point x="490.6" y="1410" type="curve"/>
      <point x="822.6" y="1410" type="line"/>
      <point x="1066.6" y="1410"/>
      <point x="1232.6" y="1356"/>
      <point x="1232.6" y="1082" type="curve"/>
      <point x="1232.6" y="1006" type="line"/>
      <point x="706.6" y="958" type="line"/>
      <point x="706.6" y="1374" type="line"/>
      <point x="706.6" y="1374"/>
      <point x="706.6" y="1374"/>
      <point x="706.6" y="1374" type="curve"/>
      <point x="600.6" y="1374" type="line"/>
      <point x="600.6" y="1374"/>
      <point x="600.6" y="1374"/>
      <point x="600.6" y="1374" type="curve"/>
      <point x="600.6" y="726" type="line"/>
      <point x="600.6" y="726"/>
      <point x="600.6" y="726"/>
      <point x="600.6" y="726" type="curve"/>
      <point x="840.6" y="726" type="line"/>
      <point x="1084.6" y="726"/>
      <point x="1252.6" y="674"/>
      <point x="1252.6" y="398" type="curve"/>
      <point x="1252.6" y="334" type="line"/>
      <point x="1252.6" y="50"/>
      <point x="1096.6" y="-10"/>
      <point x="840.6" y="-10" type="curve"/>
      <point x="464.6" y="-10" type="line"/>
      <point x="210.6" y="-10"/>
      <point x="54.6" y="50"/>
      <point x="54.6" y="332" type="curve"/>
    </contour>
    <contour>
      <point x="624" y="-160" type="line"/>
      <point x="624" y="1560" type="line"/>
      <point x="686" y="1560" type="line"/>
      <point x="686" y="-160" type="line"/>
    </contour>
  </outline>
</glyph>
<glyph name="ampersand" format="2">
  <advance width="1592"/>
  <unicode hex="0026"/>
  <outline>
    <contour>
      <point x="241" y="-10" type="line"/>
      <point x="520" y="-10" type="line" smooth="yes"/>
      <point x="564" y="-10"/>
      <point x="646" y="5"/>
      <point x="728" y="41"/>
      <point x="813" y="100"/>
      <point x="861" y="144" type="qcurve" smooth="yes"/>
      <point x="887" y="168" type="line"/>
      <point x="1018" y="0" type="line"/>
      <point x="1592" y="0" type="line"/>
      <point x="1212" y="477" type="line"/>
      <point x="1492" y="733" type="line"/>
      <point x="1467" y="759" type="line"/>
      <point x="1189" y="504" type="line"/>
      <point x="778" y="1022" type="line"/>
      <point x="778" y="1022"/>
      <point x="778" y="1022"/>
      <point x="778" y="1022"/>
      <point x="778" y="1022"/>
      <point x="778" y="1022" type="qcurve"/>
      <point x="778" y="1378" type="line"/>
      <point x="778" y="1378"/>
      <point x="778" y="1378"/>
      <point x="778" y="1378"/>
      <point x="778" y="1378"/>
      <point x="778" y="1378" type="qcurve"/>
      <point x="887" y="1378" type="line"/>
      <point x="887" y="1378"/>
      <point x="887" y="1378"/>
      <point x="887" y="1378"/>
      <point x="887" y="1378"/>
      <point x="887" y="1378" type="qcurve"/>
      <point x="887" y="1022" type="line"/>
      <point x="1322" y="1076" type="line"/>
      <point x="1322" y="1139" type="line" smooth="yes"/>
      <point x="1322" y="1205"/>
      <point x="1277" y="1307"/>
      <point x="1190" y="1378"/>
      <point x="1063" y="1414"/>
      <point x="981" y="1414" type="qcurve" smooth="yes"/>
      <point x="623" y="1414" type="line" smooth="yes"/>
      <point x="547" y="1414"/>
      <point x="429" y="1374"/>
      <point x="350" y="1297"/>
      <point x="309" y="1183"/>
      <point x="309" y="1109" type="qcurve" smooth="yes"/>
      <point x="309" y="1071" type="line" smooth="yes"/>
      <point x="309" y="1019"/>
      <point x="323" y="935"/>
      <point x="356" y="857"/>
      <point x="408" y="776"/>
      <point x="447" y="727" type="qcurve"/>
      <point x="126" y="475" type="line" smooth="yes"/>
      <point x="97" y="452"/>
      <point x="56" y="405"/>
      <point x="31" y="352"/>
      <point x="20" y="290"/>
      <point x="20" y="251" type="qcurve" smooth="yes"/>
      <point x="20" y="213" type="line" smooth="yes"/>
      <point x="20" y="159"/>
      <point x="49" y="75"/>
      <point x="105" y="19"/>
      <point x="187" y="-10"/>
      <point x="241" y="-10" type="qcurve"/>
    </contour>
    <contour>
      <point x="466" y="26" type="line"/>
      <point x="466" y="26"/>
      <point x="466" y="26"/>
      <point x="466" y="26"/>
      <point x="466" y="26"/>
      <point x="466" y="26" type="qcurve"/>
      <point x="466" y="698" type="line"/>
      <point x="466" y="698"/>
      <point x="466" y="698"/>
      <point x="466" y="698"/>
      <point x="466" y="698"/>
      <point x="466" y="698" type="qcurve"/>
      <point x="466" y="698" type="line"/>
      <point x="864" y="195" type="line"/>
      <point x="834" y="168" type="line" smooth="yes"/>
      <point x="784" y="123"/>
      <point x="700" y="67"/>
      <point x="625" y="36"/>
      <point x="556" y="26"/>
      <point x="520" y="26" type="qcurve" smooth="yes"/>
    </contour>
  </outline>
</glyph>
<glyph name="quotesingle" format="2">
  <advance width="714"/>
  <unicode hex="0027"/>
  <outline>
    <contour>
      <point x="72" y="1184" type="line"/>
      <point x="72" y="1333" type="line" smooth="yes"/>
      <point x="72" y="1376"/>
      <point x="76" y="1423"/>
      <point x="95" y="1446"/>
      <point x="135" y="1450"/>
      <point x="171" y="1450" type="qcurve" smooth="yes"/>
      <point x="543" y="1450" type="line" smooth="yes"/>
      <point x="579" y="1450"/>
      <point x="619" y="1446"/>
      <point x="638" y="1423"/>
      <point x="642" y="1376"/>
      <point x="642" y="1333" type="qcurve" smooth="yes"/>
      <point x="642" y="1184" type="line"/>
      <point x="502" y="785" type="line"/>
      <point x="212" y="785" type="line"/>
    </contour>
  </outline>
</glyph>
<glyph name="parenleft" format="1">
  <advance width="665.9"/>
  <unicode hex="0028"/>
  <outline>
    <contour>
      <point x="661.5" y="-256" type="curve"/>
      <point x="613.5" y="-256" type="line"/>
      <point x="280.5" y="-58"/>
      <point x="58.5" y="237"/>
      <point x="58.5" y="622" type="curve" smooth="yes"/>
      <point x="58.5" y="1007"/>
      <point x="280.5" y="1303"/>
      <point x="613.5" y="1500" type="curve"/>
      <point x="661.5" y="1500" type="line"/>
      <point x="480.5" y="1366"/>
      <point x="480.5" y="1356"/>
      <point x="480.5" y="622" type="curve" smooth="yes"/>
      <point x="480.5" y="-112"/>
      <point x="480.5" y="-122"/>
    </contour>
  </outline>
</glyph>
<glyph name="asterisk" format="2">
  <advance width="626"/>
  <unicode hex="002A"/>
  <outline>
    <contour>
      <point x="225" y="903" type="line"/>
      <point x="296" y="1159" type="line"/>
      <point x="296" y="1217" type="line"/>
      <point x="225" y="1472" type="line"/>
      <point x="401" y="1472" type="line"/>
      <point x="330" y="1217" type="line"/>
      <point x="330" y="1159" type="line"/>
      <point x="401" y="903" type="line"/>
    </contour>
    <contour>
      <point x="13" y="1096" type="line"/>
      <point x="284" y="1188" type="line"/>
      <point x="330" y="1217" type="line"/>
      <point x="524" y="1411" type="line"/>
      <point x="613" y="1278" type="line"/>
      <point x="342" y="1188" type="line"/>
      <point x="296" y="1159" type="line"/>
      <point x="102" y="964" type="line"/>
    </contour>
    <contour>
      <point x="13" y="1275" type="line"/>
      <point x="105" y="1411" type="line"/>
      <point x="296" y="1217" type="line"/>
      <point x="342" y="1188" type="line"/>
      <point x="613" y="1100" type="line"/>
      <point x="521" y="964" type="line"/>
      <point x="330" y="1159" type="line"/>
      <point x="284" y="1188" type="line"/>
    </contour>
  </outline>
</glyph>
<glyph name="plus" format="1">
  <advance width="1034"/>
  <unicode hex="002B"/>
  <outline>
    <contour>
      <point x="1024" y="605" type="line"/>
      <point x="1024" y="569" type="line"/>
      <point x="688" y="569" type="line"/>
      <point x="688" y="100" type="line"/>
      <point x="346" y="100" type="line"/>
      <point x="346" y="569" type="line"/>
      <point x="10" y="569" type="line"/>
      <point x="10" y="605" type="line"/>
      <point x="346" y="605" type="line"/>
      <point x="346" y="1068" type="line"/>
      <point x="688" y="1068" type="line"/>
      <point x="688" y="605" type="line"/>
    </contour>
  </outline>
</glyph>
<glyph name="comma" format="2">
  <advance width="674"/>
  <unicode hex="002C"/>
  <outline>
    <contour>
      <point x="296" y="-346" type="line"/>
      <point x="269" y="-340" type="line"/>
      <point x="450" y="0" type="line"/>
      <point x="213" y="0" type="line" smooth="yes"/>
      <point x="168" y="0"/>
      <point x="113" y="10"/>
      <point x="82" y="41"/>
      <point x="72" y="96"/>
      <point x="72" y="141" type="qcurve" smooth="yes"/>
      <point x="72" y="385" type="line" smooth="yes"/>
      <point x="72" y="429"/>
      <point x="82" y="484"/>
      <point x="113" y="514"/>
      <point x="168" y="524"/>
      <point x="213" y="524" type="qcurve" smooth="yes"/>
      <point x="461" y="524" type="line" smooth="yes"/>
      <point x="506" y="524"/>
      <point x="561" y="514"/>
      <point x="592" y="484"/>
      <point x="602" y="429"/>
      <point x="602" y="385" type="qcurve" smooth="yes"/>
      <point x="602" y="141" type="line" smooth="yes"/>
      <point x="602" y="116"/>
      <point x="598" y="77"/>
      <point x="588" y="45"/>
      <point x="571" y="16"/>
      <point x="558" y="0" type="qcurve"/>
    </contour>
  </outline>
</glyph>
<glyph name="period" format="1">
  <advance width="688.4"/>
  <unicode hex="002E"/>
  <outline>
    <contour>
      <point x="79.2" y="135" type="curve" smooth="yes"/>
      <point x="79.2" y="386" type="line" smooth="yes"/>
      <point x="79.2" y="503"/>
      <point x="100.2" y="524"/>
      <point x="220.2" y="524" type="curve" smooth="yes"/>
      <point x="467.2" y="524" type="line" smooth="yes"/>
      <point x="587.2" y="524"/>
      <point x="609.2" y="503"/>
      <point x="609.2" y="384" type="curve" smooth="yes"/>
      <point x="609.2" y="135" type="line" smooth="yes"/>
      <point x="609.2" y="15"/>
      <point x="588.2" y="-6"/>
      <point x="468.2" y="-6" type="curve" smooth="yes"/>
      <point x="220.2" y="-6" type="line" smooth="yes"/>
      <point x="100.2" y="-6"/>
      <point x="79.2" y="15"/>
    </contour>
  </outline>
</glyph>
<glyph name="slash" format="1">
  <advance width="757"/>
  <unicode hex="002F"/>
  <outline>
    <contour>
      <point x="315.6" y="1430" type="line"/>
      <point x="717.6" y="1430" type="line"/>
      <point x="441.6" y="-100" type="line"/>
      <point x="39.6" y="-100" type="line"/>
    </contour>
  </outline>
</glyph>
<glyph name="zero" format="1">
  <advance width="1420"/>
  <unicode hex="0030"/>
  <outline>
    <contour>
      <point x="500" y="-10" type="curve" smooth="yes"/>
      <point x="918" y="-10" type="line" smooth="yes"/>
      <point x="1182" y="-10"/>
      <point x="1332" y="60"/>
      <point x="1332" y="336" type="curve" smooth="yes"/>
      <point x="1332" y="1076" type="line" smooth="yes"/>
      <point x="1332" y="1344"/>
      <point x="1170" y="1410"/>
      <point x="918" y="1410" type="curve" smooth="yes"/>
      <point x="500" y="1410" type="line" smooth="yes"/>
      <point x="248" y="1410"/>
      <point x="88" y="1344"/>
      <point x="88" y="1076" type="curve" smooth="yes"/>
      <point x="88" y="336" type="line" smooth="yes"/>
      <point x="88" y="62"/>
      <point x="236" y="-10"/>
    </contour>
    <contour>
      <point x="660" y="26" type="line"/>
      <point x="660" y="26"/>
      <point x="660" y="26"/>
      <point x="660" y="26" type="curve"/>
      <point x="660" y="1374" type="line"/>
      <point x="660" y="1374"/>
      <point x="660" y="1374"/>
      <point x="660" y="1374" type="curve"/>
      <point x="760" y="1374" type="line"/>
      <point x="760" y="1374"/>
      <point x="760" y="1374"/>
      <point x="760" y="1374" type="curve"/>
      <point x="760" y="26" type="line"/>
      <point x="760" y="26"/>
      <point x="760" y="26"/>
      <point x="760" y="26" type="curve"/>
    </contour>
  </outline>
</glyph>
<glyph name="one" format="1">
  <advance width="870" height="1448"/>
  <unicode hex="0031"/>
  <outline>
    <contour>
      <point x="210" y="0" type="line"/>
      <point x="782" y="0" type="line"/>
      <point x="782" y="1400" type="line"/>
      <point x="26" y="1302" type="line"/>
      <point x="26" y="1265" type="line"/>
      <point x="210" y="1289" type="line"/>
    </contour>
  </outline>
</glyph>
<glyph name="two" format="2">
  <advance width="1369"/>
  <unicode hex="0032"/>
  <outline>
    <contour>
      <point x="80" y="0" type="line"/>
      <point x="80" y="205" type="line" smooth="yes"/>
      <point x="80" y="290"/>
      <point x="120" y="425"/>
      <point x="193" y="527"/>
      <point x="298" y="594"/>
      <point x="364" y="611" type="qcurve" smooth="yes"/>
      <point x="753" y="711" type="line"/>
      <point x="753" y="711"/>
      <point x="753" y="711"/>
      <point x="753" y="711"/>
      <point x="753" y="711"/>
      <point x="753" y="711" type="qcurve"/>
      <point x="754" y="1374" type="line"/>
      <point x="754" y="1374"/>
      <point x="754" y="1374"/>
      <point x="754" y="1374" type="qcurve"/>
      <point x="610" y="1374" type="line"/>
      <point x="610" y="1374"/>
      <point x="610" y="1374"/>
      <point x="610" y="1374" type="qcurve"/>
      <point x="610" y="902" type="line"/>
      <point x="89" y="998" type="line"/>
      <point x="89" y="1082" type="line" smooth="yes"/>
      <point x="89" y="1185"/>
      <point x="149" y="1313"/>
      <point x="257" y="1385"/>
      <point x="408" y="1410"/>
      <point x="499" y="1410" type="qcurve" smooth="yes"/>
      <point x="859" y="1410" type="line" smooth="yes"/>
      <point x="951" y="1410"/>
      <point x="1103" y="1382"/>
      <point x="1214" y="1313"/>
      <point x="1275" y="1197"/>
      <point x="1275" y="1108" type="qcurve" smooth="yes"/>
      <point x="1275" y="1087" type="line" smooth="yes"/>
      <point x="1275" y="1010"/>
      <point x="1241" y="895"/>
      <point x="1150" y="806"/>
      <point x="990" y="735"/>
      <point x="865" y="703" type="qcurve" smooth="yes"/>
      <point x="617" y="639" type="line"/>
      <point x="617" y="639"/>
      <point x="617" y="639"/>
      <point x="617" y="639"/>
      <point x="617" y="639"/>
      <point x="617" y="639" type="qcurve"/>
      <point x="617" y="32" type="line"/>
      <point x="759" y="32" type="line"/>
      <point x="759" y="32"/>
      <point x="759" y="32"/>
      <point x="759" y="32" type="qcurve"/>
      <point x="759" y="498" type="line"/>
      <point x="1305" y="402" type="line"/>
      <point x="1305" y="342" type="line" smooth="yes"/>
      <point x="1305" y="236"/>
      <point x="1248" y="103"/>
      <point x="1142" y="28"/>
      <point x="990" y="0"/>
      <point x="895" y="0" type="qcurve" smooth="yes"/>
    </contour>
  </outline>
</glyph>
<glyph name="three" format="2">
  <advance width="1382" height="1448"/>
  <unicode hex="0033"/>
  <outline>
    <contour>
      <point x="80" y="391" type="line"/>
      <point x="612" y="482" type="line"/>
      <point x="612" y="26" type="line"/>
      <point x="612" y="26"/>
      <point x="612" y="26"/>
      <point x="612" y="26"/>
      <point x="612" y="26"/>
      <point x="612" y="26" type="qcurve"/>
      <point x="672" y="26" type="line" smooth="yes"/>
      <point x="692" y="26"/>
      <point x="727" y="32"/>
      <point x="753" y="50"/>
      <point x="768" y="84"/>
      <point x="768" y="112" type="qcurve" smooth="yes"/>
      <point x="768" y="594" type="line" smooth="yes"/>
      <point x="768" y="624"/>
      <point x="755" y="665"/>
      <point x="735" y="689"/>
      <point x="709" y="700"/>
      <point x="695" y="700" type="qcurve" smooth="yes"/>
      <point x="622" y="700" type="line"/>
      <point x="622" y="736" type="line"/>
      <point x="695" y="736" type="line" smooth="yes"/>
      <point x="707" y="736"/>
      <point x="727" y="744"/>
      <point x="742" y="762"/>
      <point x="750" y="790"/>
      <point x="750" y="811" type="qcurve" smooth="yes"/>
      <point x="750" y="1283" type="line" smooth="yes"/>
      <point x="750" y="1309"/>
      <point x="737" y="1344"/>
      <point x="713" y="1365"/>
      <point x="682" y="1374"/>
      <point x="664" y="1374" type="qcurve" smooth="yes"/>
      <point x="614" y="1374" type="line"/>
      <point x="614" y="1374"/>
      <point x="614" y="1374"/>
      <point x="614" y="1374"/>
      <point x="614" y="1374"/>
      <point x="614" y="1374" type="qcurve"/>
      <point x="614" y="940" type="line"/>
      <point x="82" y="1031" type="line"/>
      <point x="82" y="1102" type="line" smooth="yes"/>
      <point x="82" y="1179"/>
      <point x="130" y="1294"/>
      <point x="226" y="1371"/>
      <point x="372" y="1410"/>
      <point x="470" y="1410" type="qcurve" smooth="yes"/>
      <point x="894" y="1410" type="line" smooth="yes"/>
      <point x="992" y="1410"/>
      <point x="1138" y="1368"/>
      <point x="1234" y="1287"/>
      <point x="1282" y="1169"/>
      <point x="1282" y="1092" type="qcurve" smooth="yes"/>
      <point x="1282" y="1014" type="line" smooth="yes"/>
      <point x="1282" y="946"/>
      <point x="1256" y="845"/>
      <point x="1201" y="774"/>
      <point x="1115" y="731"/>
      <point x="1056" y="720" type="qcurve"/>
      <point x="1119" y="714"/>
      <point x="1212" y="674"/>
      <point x="1272" y="599"/>
      <point x="1302" y="487"/>
      <point x="1302" y="408" type="qcurve" smooth="yes"/>
      <point x="1302" y="320" type="line" smooth="yes"/>
      <point x="1302" y="225"/>
      <point x="1243" y="98"/>
      <point x="1136" y="22"/>
      <point x="986" y="-10"/>
      <point x="894" y="-10" type="qcurve" smooth="yes"/>
      <point x="468" y="-10" type="line" smooth="yes"/>
      <point x="377" y="-10"/>
      <point x="233" y="19"/>
      <point x="133" y="91"/>
      <point x="80" y="215"/>
      <point x="80" y="310" type="qcurve" smooth="yes"/>
    </contour>
  </outline>
</glyph>
<glyph name="four" format="1">
  <advance width="1208"/>
  <unicode hex="0034"/>
  <outline>
    <contour>
      <point x="10" y="366" type="line"/>
      <point x="527" y="366" type="line"/>
      <point x="527" y="0" type="line"/>
      <point x="1099" y="0" type="line"/>
      <point x="1099" y="366" type="line"/>
      <point x="1198" y="366" type="line"/>
      <point x="1198" y="402" type="line"/>
      <point x="1099" y="402" type="line"/>
      <point x="1099" y="1400" type="line"/>
      <point x="527" y="1400" type="line"/>
      <point x="10" y="392" type="line"/>
    </contour>
    <contour>
      <point x="56" y="402" type="line"/>
      <point x="527" y="1322" type="line"/>
      <point x="527" y="402" type="line"/>
    </contour>
  </outline>
</glyph>
<glyph name="five" format="2">
  <advance width="1152"/>
  <unicode hex="0035"/>
  <outline>
    <contour>
      <point x="462" y="-12" type="line"/>
      <point x="386" y="-12"/>
      <point x="266" y="0"/>
      <point x="173" y="18"/>
      <point x="107" y="38"/>
      <point x="86" y="46" type="qcurve"/>
      <point x="72" y="92" type="line"/>
      <point x="93" y="82"/>
      <point x="145" y="64"/>
      <point x="202" y="49"/>
      <point x="261" y="37"/>
      <point x="316" y="29"/>
      <point x="363" y="24"/>
      <point x="380" y="24" type="qcurve" smooth="yes"/>
      <point x="417" y="24"/>
      <point x="477" y="56"/>
      <point x="520" y="143"/>
      <point x="544" y="295"/>
      <point x="544" y="414" type="qcurve" smooth="yes"/>
      <point x="544" y="514"/>
      <point x="531" y="647"/>
      <point x="499" y="726"/>
      <point x="444" y="759"/>
      <point x="403" y="759" type="qcurve" smooth="yes"/>
      <point x="371" y="759"/>
      <point x="289" y="745"/>
      <point x="202" y="720"/>
      <point x="114" y="685"/>
      <point x="76" y="664" type="qcurve"/>
      <point x="136" y="1400" type="line"/>
      <point x="958" y="1400" type="line"/>
      <point x="874" y="974" type="line"/>
      <point x="138" y="974" type="line"/>
      <point x="118" y="726" type="line"/>
      <point x="163" y="744"/>
      <point x="255" y="774"/>
      <point x="355" y="796"/>
      <point x="466" y="808"/>
      <point x="529" y="808" type="qcurve" smooth="yes"/>
      <point x="590" y="808"/>
      <point x="725" y="803"/>
      <point x="855" y="778"/>
      <point x="973" y="729"/>
      <point x="1063" y="640"/>
      <point x="1116" y="505"/>
      <point x="1116" y="408" type="qcurve" smooth="yes"/>
      <point x="1116" y="304"/>
      <point x="1059" y="161"/>
      <point x="961" y="68"/>
      <point x="831" y="17"/>
      <point x="686" y="-7"/>
      <point x="533" y="-12"/>
      <point x="462" y="-12" type="qcurve"/>
    </contour>
  </outline>
</glyph>
<glyph name="six" format="2">
  <advance width="1313"/>
  <unicode hex="0036"/>
  <outline>
    <contour>
      <point x="650" y="-10" type="line"/>
      <point x="779" y="-10"/>
      <point x="970" y="-3"/>
      <point x="1107" y="21"/>
      <point x="1196" y="68"/>
      <point x="1248" y="148"/>
      <point x="1268" y="266"/>
      <point x="1268" y="349" type="qcurve" smooth="yes"/>
      <point x="1268" y="439"/>
      <point x="1248" y="564"/>
      <point x="1198" y="648"/>
      <point x="1113" y="696"/>
      <point x="985" y="721"/>
      <point x="807" y="727"/>
      <point x="688" y="727" type="qcurve" smooth="yes"/>
      <point x="603" y="727"/>
      <point x="469" y="712"/>
      <point x="369" y="691"/>
      <point x="302" y="666"/>
      <point x="284" y="655" type="qcurve"/>
      <point x="284" y="615" type="line"/>
      <point x="316" y="630"/>
      <point x="383" y="658"/>
      <point x="462" y="679"/>
      <point x="559" y="691"/>
      <point x="622" y="691" type="qcurve" smooth="yes"/>
      <point x="646" y="691"/>
      <point x="679" y="687"/>
      <point x="702" y="672"/>
      <point x="715" y="644"/>
      <point x="722" y="596"/>
      <point x="724" y="527"/>
      <point x="724" y="478" type="qcurve" smooth="yes"/>
      <point x="724" y="369"/>
      <point x="722" y="216"/>
      <point x="717" y="116"/>
      <point x="709" y="60"/>
      <point x="695" y="32"/>
      <point x="676" y="26"/>
      <point x="663" y="26" type="qcurve" smooth="yes"/>
      <point x="650" y="26"/>
      <point x="632" y="33"/>
      <point x="618" y="63"/>
      <point x="610" y="124"/>
      <point x="606" y="229"/>
      <point x="604" y="387"/>
      <point x="604" y="500" type="qcurve" smooth="yes"/>
      <point x="604" y="685"/>
      <point x="616" y="959"/>
      <point x="644" y="1153"/>
      <point x="693" y="1277"/>
      <point x="767" y="1347"/>
      <point x="870" y="1374"/>
      <point x="938" y="1374" type="qcurve" smooth="yes"/>
      <point x="947" y="1374"/>
      <point x="967" y="1373"/>
      <point x="988" y="1370"/>
      <point x="1010" y="1366"/>
      <point x="1019" y="1364" type="qcurve"/>
      <point x="1003" y="1404" type="line"/>
      <point x="998" y="1405"/>
      <point x="984" y="1407"/>
      <point x="967" y="1409"/>
      <point x="949" y="1410"/>
      <point x="941" y="1410" type="qcurve" smooth="yes"/>
      <point x="789" y="1410"/>
      <point x="540" y="1367"/>
      <point x="345" y="1277"/>
      <point x="202" y="1140"/>
      <point x="109" y="951"/>
      <point x="64" y="710"/>
      <point x="64" y="561" type="qcurve" smooth="yes"/>
      <point x="64" y="431"/>
      <point x="77" y="244"/>
      <point x="118" y="118"/>
      <point x="197" y="42"/>
      <point x="327" y="2"/>
      <point x="517" y="-10"/>
      <point x="650" y="-10" type="qcurve"/>
    </contour>
  </outline>
</glyph>
<glyph name="seven" format="1">
  <advance width="1184"/>
  <unicode hex="0037"/>
  <outline>
    <contour>
      <point x="10" y="18" type="line"/>
      <point x="599" y="18" type="line"/>
      <point x="1164" y="1382" type="line"/>
      <point x="575" y="1382" type="line"/>
    </contour>
    <contour>
      <point x="10" y="0" type="line"/>
      <point x="1174" y="0" type="line"/>
      <point x="1174" y="36" type="line"/>
      <point x="313" y="36" type="line"/>
      <point x="10" y="18" type="line"/>
    </contour>
    <contour>
      <point x="80" y="1364" type="line"/>
      <point x="901" y="1364" type="line"/>
      <point x="1164" y="1382" type="line"/>
      <point x="1164" y="1400" type="line"/>
      <point x="80" y="1400" type="line"/>
    </contour>
  </outline>
</glyph>
<glyph name="eight" format="2">
  <advance width="1388"/>
  <unicode hex="0038"/>
  <outline>
    <contour>
      <point x="609" y="90" type="line" smooth="yes"/>
      <point x="609" y="75"/>
      <point x="617" y="51"/>
      <point x="633" y="35"/>
      <point x="660" y="26"/>
      <point x="678" y="26" type="qcurve" smooth="yes"/>
      <point x="710" y="26" type="line" smooth="yes"/>
      <point x="728" y="26"/>
      <point x="755" y="35"/>
      <point x="771" y="51"/>
      <point x="779" y="75"/>
      <point x="779" y="90" type="qcurve" smooth="yes"/>
      <point x="779" y="625" type="line" smooth="yes"/>
      <point x="779" y="640"/>
      <point x="771" y="664"/>
      <point x="755" y="680"/>
      <point x="728" y="689"/>
      <point x="710" y="689" type="qcurve" smooth="yes"/>
      <point x="678" y="689" type="line" smooth="yes"/>
      <point x="663" y="689"/>
      <point x="638" y="680"/>
      <point x="620" y="664"/>
      <point x="609" y="640"/>
      <point x="609" y="625" type="qcurve" smooth="yes"/>
    </contour>
    <contour>
      <point x="776" y="1311" type="line" smooth="yes"/>
      <point x="776" y="1326"/>
      <point x="765" y="1349"/>
      <point x="747" y="1365"/>
      <point x="722" y="1374"/>
      <point x="707" y="1374" type="qcurve" smooth="yes"/>
      <point x="681" y="1374" type="line" smooth="yes"/>
      <point x="666" y="1374"/>
      <point x="641" y="1365"/>
      <point x="623" y="1349"/>
      <point x="612" y="1326"/>
      <point x="612" y="1311" type="qcurve" smooth="yes"/>
      <point x="612" y="788" type="line" smooth="yes"/>
      <point x="612" y="773"/>
      <point x="620" y="750"/>
      <point x="636" y="734"/>
      <point x="663" y="725"/>
      <point x="681" y="725" type="qcurve" smooth="yes"/>
      <point x="707" y="725" type="line" smooth="yes"/>
      <point x="722" y="725"/>
      <point x="747" y="734"/>
      <point x="765" y="750"/>
      <point x="776" y="773"/>
      <point x="776" y="788" type="qcurve" smooth="yes"/>
    </contour>
    <contour>
      <point x="48" y="343" type="line"/>
      <point x="48" y="392" type="line" smooth="yes"/>
      <point x="48" y="477"/>
      <point x="82" y="592"/>
      <point x="138" y="665"/>
      <point x="208" y="703"/>
      <point x="245" y="712" type="qcurve"/>
      <point x="210" y="721"/>
      <point x="149" y="765"/>
      <point x="104" y="833"/>
      <point x="78" y="923"/>
      <point x="78" y="977" type="qcurve" smooth="yes"/>
      <point x="78" y="1071" type="line" smooth="yes"/>
      <point x="78" y="1149"/>
      <point x="128" y="1274"/>
      <point x="229" y="1363"/>
      <point x="380" y="1410"/>
      <point x="480" y="1410" type="qcurve" smooth="yes"/>
      <point x="909" y="1410" type="line" smooth="yes"/>
      <point x="1010" y="1410"/>
      <point x="1160" y="1363"/>
      <point x="1260" y="1275"/>
      <point x="1310" y="1150"/>
      <point x="1310" y="1072" type="qcurve" smooth="yes"/>
      <point x="1310" y="977" type="line" smooth="yes"/>
      <point x="1310" y="923"/>
      <point x="1283" y="833"/>
      <point x="1238" y="765"/>
      <point x="1178" y="721"/>
      <point x="1144" y="712" type="qcurve"/>
      <point x="1180" y="704"/>
      <point x="1251" y="667"/>
      <point x="1306" y="595"/>
      <point x="1340" y="481"/>
      <point x="1340" y="396" type="qcurve" smooth="yes"/>
      <point x="1340" y="344" type="line" smooth="yes"/>
      <point x="1340" y="243"/>
      <point x="1276" y="107"/>
      <point x="1162" y="25"/>
      <point x="1006" y="-10"/>
      <point x="914" y="-10" type="qcurve" smooth="yes"/>
      <point x="473" y="-10" type="line" smooth="yes"/>
      <point x="383" y="-10"/>
      <point x="227" y="24"/>
      <point x="113" y="106"/>
      <point x="48" y="242"/>
      <point x="48" y="343" type="qcurve"/>
    </contour>
  </outline>
</glyph>
<glyph name="nine" format="1">
  <advance width="1327"/>
  <unicode hex="0039"/>
  <outline>
    <contour>
      <point x="671" y="1410" type="curve" smooth="yes"/>
      <point x="157" y="1410"/>
      <point x="53" y="1382"/>
      <point x="53" y="1026" type="curve" smooth="yes"/>
      <point x="53" y="663"/>
      <point x="159" y="643"/>
      <point x="633" y="643" type="curve" smooth="yes"/>
      <point x="859" y="643"/>
      <point x="989" y="687"/>
      <point x="1037" y="715" type="curve"/>
      <point x="1037" y="755" type="line"/>
      <point x="951" y="715"/>
      <point x="867" y="679"/>
      <point x="699" y="679" type="curve" smooth="yes"/>
      <point x="605" y="679"/>
      <point x="597" y="697"/>
      <point x="597" y="892" type="curve" smooth="yes"/>
      <point x="597" y="1360"/>
      <point x="606" y="1374"/>
      <point x="658" y="1374" type="curve" smooth="yes"/>
      <point x="709" y="1374"/>
      <point x="717" y="1352"/>
      <point x="717" y="900" type="curve" smooth="yes"/>
      <point x="717" y="155"/>
      <point x="656" y="22"/>
      <point x="383" y="22" type="curve" smooth="yes"/>
      <point x="360" y="22"/>
      <point x="327" y="26"/>
      <point x="302" y="32" type="curve"/>
      <point x="318" y="-8" type="line"/>
      <point x="331" y="-11"/>
      <point x="358" y="-14"/>
      <point x="380" y="-14" type="curve" smooth="yes"/>
      <point x="990" y="-14"/>
      <point x="1257" y="244"/>
      <point x="1257" y="839" type="curve" smooth="yes"/>
      <point x="1257" y="1361"/>
      <point x="1203" y="1410"/>
    </contour>
  </outline>
</glyph>
<glyph name="colon" format="1">
  <advance width="688.4"/>
  <unicode hex="003A"/>
  <outline>
    <contour>
      <point x="79.2" y="135" type="curve" smooth="yes"/>
      <point x="79.2" y="316" type="line" smooth="yes"/>
      <point x="79.2" y="452"/>
      <point x="81.2" y="454"/>
      <point x="220.2" y="454" type="curve" smooth="yes"/>
      <point x="467.2" y="454" type="line" smooth="yes"/>
      <point x="606.2" y="454"/>
      <point x="609.2" y="452"/>
      <point x="609.2" y="314" type="curve" smooth="yes"/>
      <point x="609.2" y="135" type="line" smooth="yes"/>
      <point x="609.2" y="-4"/>
      <point x="607.2" y="-6"/>
      <point x="468.2" y="-6" type="curve" smooth="yes"/>
      <point x="220.2" y="-6" type="line" smooth="yes"/>
      <point x="81.2" y="-6"/>
      <point x="79.2" y="-4"/>
    </contour>
    <contour>
      <point x="79.2" y="715" type="curve" smooth="yes"/>
      <point x="79.2" y="896" type="line" smooth="yes"/>
      <point x="79.2" y="1032"/>
      <point x="81.2" y="1034"/>
      <point x="220.2" y="1034" type="curve" smooth="yes"/>
      <point x="467.2" y="1034" type="line" smooth="yes"/>
      <point x="606.2" y="1034"/>
      <point x="609.2" y="1032"/>
      <point x="609.2" y="894" type="curve" smooth="yes"/>
      <point x="609.2" y="715" type="line" smooth="yes"/>
      <point x="609.2" y="576"/>
      <point x="607.2" y="574"/>
      <point x="468.2" y="574" type="curve" smooth="yes"/>
      <point x="220.2" y="574" type="line" smooth="yes"/>
      <point x="81.2" y="574"/>
      <point x="79.2" y="576"/>
    </contour>
  </outline>
</glyph>
<glyph name="semicolon" format="1">
  <advance width="688"/>
  <unicode hex="003B"/>
  <outline>
    <contour>
      <point x="79" y="715" type="curve" smooth="yes"/>
      <point x="79" y="896" type="line" smooth="yes"/>
      <point x="79" y="1013"/>
      <point x="100" y="1034"/>
      <point x="220" y="1034" type="curve" smooth="yes"/>
      <point x="467" y="1034" type="line" smooth="yes"/>
      <point x="587" y="1034"/>
      <point x="609" y="1013"/>
      <point x="609" y="894" type="curve" smooth="yes"/>
      <point x="609" y="715" type="line" smooth="yes"/>
      <point x="609" y="595"/>
      <point x="588" y="574"/>
      <point x="468" y="574" type="curve" smooth="yes"/>
      <point x="220" y="574" type="line" smooth="yes"/>
      <point x="100" y="574"/>
      <point x="79" y="595"/>
    </contour>
    <contour>
      <point x="79" y="145" type="curve" smooth="yes"/>
      <point x="79" y="315" type="line" smooth="yes"/>
      <point x="79" y="433"/>
      <point x="100" y="454"/>
      <point x="220" y="454" type="curve" smooth="yes"/>
      <point x="468" y="454" type="line" smooth="yes"/>
      <point x="588" y="454"/>
      <point x="609" y="433"/>
      <point x="609" y="315" type="curve" smooth="yes"/>
      <point x="609" y="145" type="line" smooth="yes"/>
      <point x="609" y="25"/>
      <point x="588" y="4"/>
      <point x="468" y="4" type="curve" smooth="yes"/>
      <point x="220" y="4" type="line" smooth="yes"/>
      <point x="100" y="4"/>
      <point x="79" y="25"/>
    </contour>
    <contour>
      <point x="276" y="-336" type="curve"/>
      <point x="276" y="-336"/>
      <point x="468" y="25"/>
      <point x="468" y="25" type="curve"/>
      <point x="589" y="36" type="line"/>
      <point x="303" y="-342" type="line"/>
      <point x="303" y="-342"/>
      <point x="276" y="-336"/>
    </contour>
  </outline>
</glyph>
<glyph name="less" format="2">
  <advance width="590"/>
  <unicode hex="003C"/>
  <outline>
    <contour>
      <point x="538" y="241" type="line"/>
      <point x="538" y="281" type="line"/>
      <point x="89" y="584" type="line"/>
      <point x="538" y="887" type="line"/>
      <point x="538" y="927" type="line"/>
      <point x="52" y="601" type="line"/>
      <point x="52" y="565" type="line"/>
    </contour>
  </outline>
</glyph>
<glyph name="equal" format="2">
  <advance width="998"/>
  <unicode hex="003D"/>
  <outline>
    <contour>
      <point x="52" y="699" type="line"/>
      <point x="52" y="735" type="line"/>
      <point x="946" y="735" type="line"/>
      <point x="946" y="699" type="line"/>
    </contour>
    <contour>
      <point x="52" y="439" type="line"/>
      <point x="52" y="475" type="line"/>
      <point x="946" y="475" type="line"/>
      <point x="946" y="439" type="line"/>
    </contour>
  </outline>
</glyph>
<glyph name="greater" format="2">
  <advance width="590"/>
  <unicode hex="003E"/>
  <outline>
    <contour>
      <point x="52" y="927" type="line"/>
      <point x="52" y="887" type="line"/>
      <point x="501" y="584" type="line"/>
      <point x="52" y="281" type="line"/>
      <point x="52" y="241" type="line"/>
      <point x="538" y="567" type="line"/>
      <point x="538" y="603" type="line"/>
      <point x="52" y="927" type="line"/>
    </contour>
  </outline>
</glyph>
<glyph name="question" format="1">
  <advance width="1010"/>
  <unicode hex="003F"/>
  <outline>
    <contour>
      <point x="457.6" y="462" type="line"/>
      <point x="457.6" y="725" type="line" smooth="yes"/>
      <point x="457.6" y="725"/>
      <point x="457.6" y="725"/>
      <point x="457.6" y="725" type="curve" smooth="yes"/>
      <point x="486.6" y="725" type="line" smooth="yes"/>
      <point x="537.6" y="725"/>
      <point x="537.6" y="746"/>
      <point x="537.6" y="804" type="curve" smooth="yes"/>
      <point x="537.6" y="1374" type="line" smooth="yes"/>
      <point x="537.6" y="1374"/>
      <point x="537.6" y="1374"/>
      <point x="537.6" y="1374" type="curve" smooth="yes"/>
      <point x="472.6" y="1374" type="line" smooth="yes"/>
      <point x="472.6" y="1374"/>
      <point x="472.6" y="1374"/>
      <point x="472.6" y="1374" type="curve" smooth="yes"/>
      <point x="472.6" y="935" type="line"/>
      <point x="17.6" y="1008" type="line"/>
      <point x="17.6" y="1113" type="line" smooth="yes"/>
      <point x="17.6" y="1324"/>
      <point x="110.6" y="1410"/>
      <point x="338.6" y="1410" type="curve" smooth="yes"/>
      <point x="674.6" y="1410" type="line" smooth="yes"/>
      <point x="902.6" y="1410"/>
      <point x="992.6" y="1327"/>
      <point x="992.6" y="1115" type="curve" smooth="yes"/>
      <point x="992.6" y="987" type="line" smooth="yes"/>
      <point x="992.6" y="830"/>
      <point x="928.6" y="689"/>
      <point x="761.6" y="689" type="curve" smooth="yes"/>
      <point x="497.6" y="689" type="line" smooth="yes"/>
      <point x="497.6" y="689"/>
      <point x="497.6" y="689"/>
      <point x="497.6" y="689" type="curve" smooth="yes"/>
      <point x="497.6" y="462" type="line"/>
    </contour>
    <contour>
      <point x="212.6" y="135" type="curve" smooth="yes"/>
      <point x="212.6" y="226" type="line" smooth="yes"/>
      <point x="212.6" y="343"/>
      <point x="233.6" y="364"/>
      <point x="353.6" y="364" type="curve" smooth="yes"/>
      <point x="600.6" y="364" type="line" smooth="yes"/>
      <point x="720.6" y="364"/>
      <point x="742.6" y="343"/>
      <point x="742.6" y="224" type="curve" smooth="yes"/>
      <point x="742.6" y="135" type="line" smooth="yes"/>
      <point x="742.6" y="15"/>
      <point x="721.6" y="-6"/>
      <point x="601.6" y="-6" type="curve" smooth="yes"/>
      <point x="353.6" y="-6" type="line" smooth="yes"/>
      <point x="233.6" y="-6"/>
      <point x="212.6" y="15"/>
    </contour>
  </outline>
</glyph>
<glyph name="A" format="1">
  <advance width="1234" height="1448"/>
  <unicode hex="0041"/>
  <outline>
    <contour>
      <point x="-10" y="0" type="line"/>
      <point x="430" y="1400" type="line"/>
      <point x="556" y="1400" type="line"/>
      <point x="376" y="1107" type="line"/>
      <point x="29" y="0" type="line"/>
    </contour>
    <contour>
      <point x="641" y="0" type="line"/>
      <point x="335" y="1029" type="line"/>
      <point x="490" y="1400" type="line"/>
      <point x="803" y="1400" type="line"/>
      <point x="1244" y="0" type="line"/>
    </contour>
    <contour>
      <point x="98" y="298" type="line"/>
      <point x="116" y="334" type="line"/>
      <point x="722" y="334" type="line"/>
      <point x="730" y="298" type="line"/>
    </contour>
    <contour>
      <point x="578" y="1550" type="move" name="top"/>
    </contour>
    <contour>
      <point x="578" y="-150" type="move" name="bottom"/>
    </contour>
  </outline>
</glyph>
<glyph name="B" format="1">
  <advance width="1395"/>
  <unicode hex="0042"/>
  <outline>
    <contour>
      <point x="88" y="0" type="line"/>
      <point x="934" y="0" type="line" smooth="yes"/>
      <point x="1226.1" y="0"/>
      <point x="1348" y="98.3478"/>
      <point x="1348" y="334" type="curve" smooth="yes"/>
      <point x="1348" y="384" type="line" smooth="yes"/>
      <point x="1348" y="568.556"/>
      <point x="1283.47" y="676.55"/>
      <point x="1132" y="712" type="curve"/>
      <point x="1274.67" y="764.8"/>
      <point x="1332" y="854.805"/>
      <point x="1332" y="1026" type="curve" smooth="yes"/>
      <point x="1332" y="1066" type="line" smooth="yes"/>
      <point x="1332" y="1301.65"/>
      <point x="1210.1" y="1400"/>
      <point x="918" y="1400" type="curve" smooth="yes"/>
      <point x="88" y="1400" type="line"/>
    </contour>
    <contour>
      <point x="660" y="36" type="line"/>
      <point x="660" y="692" type="line"/>
      <point x="700" y="692" type="line" smooth="yes"/>
      <point x="752" y="692"/>
      <point x="776" y="668"/>
      <point x="776" y="632" type="curve" smooth="yes"/>
      <point x="776" y="96" type="line" smooth="yes"/>
      <point x="776" y="60"/>
      <point x="752" y="36"/>
      <point x="700" y="36" type="curve" smooth="yes"/>
    </contour>
    <contour>
      <point x="660" y="728" type="line"/>
      <point x="660" y="1364" type="line"/>
      <point x="684" y="1364" type="line" smooth="yes"/>
      <point x="736" y="1364"/>
      <point x="760" y="1340"/>
      <point x="760" y="1304" type="curve" smooth="yes"/>
      <point x="760" y="788" type="line" smooth="yes"/>
      <point x="760" y="752"/>
      <point x="736" y="728"/>
      <point x="684" y="728" type="curve" smooth="yes"/>
    </contour>
    <contour>
      <point x="698" y="1550" type="move" name="top"/>
    </contour>
    <contour>
      <point x="698" y="-150" type="move" name="bottom"/>
    </contour>
  </outline>
</glyph>
<glyph name="C" format="1">
  <advance width="1364" height="1448"/>
  <unicode hex="0043"/>
  <outline>
    <contour>
      <point x="78" y="1076" type="curve" smooth="yes"/>
      <point x="78" y="336" type="line" smooth="yes"/>
      <point x="78" y="62"/>
      <point x="226" y="-10"/>
      <point x="490" y="-10" type="curve" smooth="yes"/>
      <point x="908" y="-10" type="line" smooth="yes"/>
      <point x="1172" y="-10"/>
      <point x="1322" y="60"/>
      <point x="1322" y="336" type="curve" smooth="yes"/>
      <point x="1322" y="470" type="line"/>
      <point x="750" y="580" type="line"/>
      <point x="750" y="26" type="line"/>
      <point x="750" y="26"/>
      <point x="750" y="26"/>
      <point x="750" y="26" type="curve"/>
      <point x="650" y="26" type="line"/>
      <point x="650" y="26"/>
      <point x="650" y="26"/>
      <point x="650" y="26" type="curve"/>
      <point x="650" y="1374" type="line"/>
      <point x="650" y="1374"/>
      <point x="650" y="1374"/>
      <point x="650" y="1374" type="curve"/>
      <point x="744" y="1374" type="line"/>
      <point x="744" y="1374"/>
      <point x="744" y="1374"/>
      <point x="744" y="1374" type="curve"/>
      <point x="744" y="846" type="line"/>
      <point x="1316" y="950" type="line"/>
      <point x="1316" y="1076" type="line" smooth="yes"/>
      <point x="1316" y="1344"/>
      <point x="1154" y="1410"/>
      <point x="902" y="1410" type="curve" smooth="yes"/>
      <point x="490" y="1410" type="line" smooth="yes"/>
      <point x="238" y="1410"/>
      <point x="78" y="1344"/>
    </contour>
    <contour>
      <point x="700" y="1550" type="move" name="top"/>
    </contour>
    <contour>
      <point x="700" y="-150" type="move" name="bottom"/>
    </contour>
  </outline>
</glyph>
<glyph name="E" format="1">
  <advance width="1108"/>
  <unicode hex="0045"/>
  <outline>
    <contour>
      <point x="88" y="0" type="line"/>
      <point x="88" y="1400" type="line"/>
      <point x="1084" y="1400" type="line"/>
      <point x="1084" y="1364" type="line"/>
      <point x="660" y="1364" type="line"/>
      <point x="660" y="736" type="line"/>
      <point x="1044" y="736" type="line"/>
      <point x="1044" y="700" type="line"/>
      <point x="660" y="700" type="line"/>
      <point x="660" y="36" type="line"/>
      <point x="1098" y="36" type="line"/>
      <point x="1098" y="0" type="line"/>
    </contour>
    <contour>
      <point x="593" y="1550" type="move" name="top"/>
    </contour>
    <contour>
      <point x="593" y="-150" type="move" name="bottom"/>
    </contour>
  </outline>
</glyph>
<glyph name="F" format="1">
  <advance width="1070"/>
  <unicode hex="0046"/>
  <outline>
    <contour>
      <point x="88" y="0" type="line"/>
      <point x="88" y="1400" type="line"/>
      <point x="1060" y="1400" type="line"/>
      <point x="1060" y="1364" type="line"/>
      <point x="660" y="1364" type="line"/>
      <point x="660" y="734" type="line"/>
      <point x="940" y="734" type="line"/>
      <point x="940" y="698" type="line"/>
      <point x="660" y="698" type="line"/>
      <point x="660" y="0" type="line"/>
    </contour>
  </outline>
</glyph>
<glyph name="G" format="1">
  <advance width="1364" height="1448"/>
  <unicode hex="0047"/>
  <outline>
    <contour>
      <point x="78" y="1076" type="curve" smooth="yes"/>
      <point x="78" y="336" type="line" smooth="yes"/>
      <point x="78" y="62"/>
      <point x="226" y="-10"/>
      <point x="490" y="-10" type="curve" smooth="yes"/>
      <point x="910" y="-10" type="line" smooth="yes"/>
      <point x="1174" y="-10"/>
      <point x="1324" y="60"/>
      <point x="1324" y="336" type="curve" smooth="yes"/>
      <point x="1324" y="700" type="line"/>
      <point x="720" y="700" type="line"/>
      <point x="720" y="664" type="line"/>
      <point x="792" y="664" type="line"/>
      <point x="792" y="26" type="line"/>
      <point x="792" y="26"/>
      <point x="792" y="26"/>
      <point x="792" y="26" type="curve"/>
      <point x="650" y="26" type="line"/>
      <point x="650" y="26"/>
      <point x="650" y="26"/>
      <point x="650" y="26" type="curve"/>
      <point x="650" y="1374" type="line"/>
      <point x="650" y="1374"/>
      <point x="650" y="1374"/>
      <point x="650" y="1374" type="curve"/>
      <point x="746" y="1374" type="line"/>
      <point x="746" y="1374"/>
      <point x="746" y="1374"/>
      <point x="746" y="1374" type="curve"/>
      <point x="746" y="906" type="line"/>
      <point x="1318" y="1010" type="line"/>
      <point x="1318" y="1076" type="line" smooth="yes"/>
      <point x="1318" y="1344"/>
      <point x="1156" y="1410"/>
      <point x="904" y="1410" type="curve" smooth="yes"/>
      <point x="490" y="1410" type="line" smooth="yes"/>
      <point x="238" y="1410"/>
      <point x="78" y="1344"/>
    </contour>
    <contour>
      <point x="702" y="1550" type="move" name="top"/>
    </contour>
    <contour>
      <point x="702" y="-150" type="move" name="bottom"/>
    </contour>
  </outline>
</glyph>
<glyph name="H" format="1">
  <advance width="1420" height="1448"/>
  <unicode hex="0048"/>
  <outline>
    <contour>
      <point x="88" y="0" type="line"/>
      <point x="660" y="0" type="line"/>
      <point x="660" y="1400" type="line"/>
      <point x="88" y="1400" type="line"/>
    </contour>
    <contour>
      <point x="760" y="0" type="line"/>
      <point x="1332" y="0" type="line"/>
      <point x="1332" y="1400" type="line"/>
      <point x="760" y="1400" type="line"/>
    </contour>
    <contour>
      <point x="630" y="710" type="line"/>
      <point x="790" y="710" type="line"/>
      <point x="790" y="746" type="line"/>
      <point x="630" y="746" type="line"/>
    </contour>
    <contour>
      <point x="710" y="1550" type="move" name="top"/>
    </contour>
    <contour>
      <point x="710" y="-150" type="move" name="bottom"/>
    </contour>
    <contour>
      <point x="-12" y="700" type="move" name="left"/>
    </contour>
  </outline>
</glyph>
<glyph name="I" format="1">
  <advance width="748" height="1448"/>
  <unicode hex="0049"/>
  <outline>
    <contour>
      <point x="88" y="0" type="line"/>
      <point x="88" y="1400" type="line"/>
      <point x="660" y="1400" type="line"/>
      <point x="660" y="0" type="line"/>
    </contour>
    <contour>
      <point x="374" y="1550" type="move" name="top"/>
    </contour>
    <contour>
      <point x="374" y="-150" type="move" name="bottom"/>
    </contour>
  </outline>
</glyph>
<glyph name="J" format="2">
  <advance width="1336" height="1448"/>
  <unicode hex="004A"/>
  <anchor x="978" y="1550" name="top"/>
  <anchor x="652" y="-150" name="bottom"/>
  <outline>
    <contour>
      <point x="1264" y="1400" type="line"/>
      <point x="692" y="1400" type="line"/>
      <point x="692" y="26" type="line"/>
      <point x="692" y="26"/>
      <point x="692" y="26"/>
      <point x="692" y="26"/>
      <point x="692" y="26"/>
      <point x="692" y="26" type="qcurve"/>
      <point x="616" y="26" type="line"/>
      <point x="616" y="26"/>
      <point x="616" y="26"/>
      <point x="616" y="26"/>
      <point x="616" y="26"/>
      <point x="616" y="26" type="qcurve"/>
      <point x="616" y="740" type="line"/>
      <point x="44" y="636" type="line"/>
      <point x="44" y="324" type="line" smooth="yes"/>
      <point x="44" y="224"/>
      <point x="103" y="94"/>
      <point x="211" y="19"/>
      <point x="364" y="-10"/>
      <point x="458" y="-10" type="qcurve" smooth="yes"/>
      <point x="852" y="-10" type="line" smooth="yes"/>
      <point x="947" y="-10"/>
      <point x="1099" y="19"/>
      <point x="1206" y="94"/>
      <point x="1264" y="224"/>
      <point x="1264" y="324" type="qcurve" smooth="yes"/>
    </contour>
  </outline>
</glyph>
<glyph name="K" format="1">
  <advance width="1597" height="1448"/>
  <unicode hex="004B"/>
  <outline>
    <contour>
      <point x="80" y="0" type="line"/>
      <point x="652" y="0" type="line"/>
      <point x="652" y="1400" type="line"/>
      <point x="80" y="1400" type="line"/>
    </contour>
    <contour>
      <point x="607" y="711" type="line"/>
      <point x="662" y="711" type="line"/>
      <point x="1469" y="1400" type="line"/>
      <point x="1414" y="1400" type="line"/>
    </contour>
    <contour>
      <point x="616" y="711" type="line"/>
      <point x="875" y="0" type="line"/>
      <point x="1597" y="0" type="line"/>
      <point x="1042" y="1040" type="line"/>
    </contour>
    <contour>
      <point x="843" y="1598" type="move" name="top"/>
    </contour>
    <contour>
      <point x="753" y="-150" type="move" name="bottom"/>
    </contour>
  </outline>
</glyph>
<glyph name="L" format="2">
  <advance width="1022"/>
  <unicode hex="004C"/>
  <anchor x="366" y="1550" name="top"/>
  <anchor x="546" y="-150" name="bottom"/>
  <anchor x="-20" y="700" name="left"/>
  <anchor x="652" y="1400" name="right"/>
  <anchor x="881" y="700" name="eldot"/>
  <outline>
    <contour>
      <point x="80" y="0" type="line"/>
      <point x="80" y="1400" type="line"/>
      <point x="652" y="1400" type="line"/>
      <point x="652" y="36" type="line"/>
      <point x="1012" y="36" type="line"/>
      <point x="1012" y="0" type="line"/>
    </contour>
  </outline>
</glyph>
<glyph name="M" format="1">
  <advance width="1502"/>
  <unicode hex="004D"/>
  <outline>
    <contour>
      <point x="842" y="0" type="line"/>
      <point x="1414" y="0" type="line"/>
      <point x="1414" y="1400" type="line"/>
      <point x="1158" y="1400" type="line"/>
      <point x="842" y="812" type="line"/>
    </contour>
    <contour>
      <point x="88" y="0" type="line"/>
      <point x="124" y="0" type="line"/>
      <point x="124" y="1020" type="line"/>
      <point x="124" y="1400" type="line"/>
      <point x="88" y="1400" type="line"/>
    </contour>
    <contour>
      <point x="498" y="185" type="line"/>
      <point x="1096" y="1231" type="line"/>
      <point x="1194" y="1400" type="line"/>
      <point x="1152" y="1400" type="line"/>
      <point x="581" y="402" type="line"/>
    </contour>
    <contour>
      <point x="112" y="832" type="line"/>
      <point x="498" y="185" type="line"/>
      <point x="821" y="771" type="line"/>
      <point x="430" y="1400" type="line"/>
      <point x="112" y="1400" type="line"/>
    </contour>
  </outline>
</glyph>
<glyph name="N" format="1">
  <advance width="1160"/>
  <unicode hex="004E"/>
  <outline>
    <contour>
      <point x="88" y="0" type="line"/>
      <point x="124" y="0" type="line"/>
      <point x="124" y="732" type="line"/>
      <point x="890" y="0" type="line"/>
      <point x="1072" y="0" type="line"/>
      <point x="1072" y="1400" type="line"/>
      <point x="1036" y="1400" type="line"/>
      <point x="1036" y="659" type="line"/>
      <point x="266" y="1400" type="line"/>
      <point x="88" y="1400" type="line"/>
    </contour>
    <contour>
      <point x="580" y="1550" type="move" name="top"/>
    </contour>
    <contour>
      <point x="580" y="-150" type="move" name="bottom"/>
    </contour>
  </outline>
</glyph>
<glyph name="O" format="2">
  <advance width="1372" height="1448"/>
  <unicode hex="004F"/>
  <anchor x="672" y="1560" name="top"/>
  <anchor x="672" y="-160" name="bottom"/>
  <anchor x="1294" y="1076" name="horn"/>
  <anchor x="691" y="0" name="ogonek"/>
  <outline>
    <contour>
      <point x="64" y="1076" type="line"/>
      <point x="64" y="336" type="line" smooth="yes"/>
      <point x="64" y="233"/>
      <point x="119" y="99"/>
      <point x="224" y="21"/>
      <point x="377" y="-10"/>
      <point x="476" y="-10" type="qcurve" smooth="yes"/>
      <point x="894" y="-10" type="line" smooth="yes"/>
      <point x="993" y="-10"/>
      <point x="1147" y="21"/>
      <point x="1253" y="99"/>
      <point x="1308" y="233"/>
      <point x="1308" y="336" type="qcurve" smooth="yes"/>
      <point x="1308" y="1076" type="line" smooth="yes"/>
      <point x="1308" y="1177"/>
      <point x="1250" y="1306"/>
      <point x="1142" y="1381"/>
      <point x="989" y="1410"/>
      <point x="894" y="1410" type="qcurve" smooth="yes"/>
      <point x="476" y="1410" type="line" smooth="yes"/>
      <point x="382" y="1410"/>
      <point x="229" y="1381"/>
      <point x="122" y="1306"/>
      <point x="64" y="1177"/>
      <point x="64" y="1076" type="qcurve"/>
    </contour>
    <contour>
      <point x="636" y="1374" type="line"/>
      <point x="636" y="1374"/>
      <point x="636" y="1374"/>
      <point x="636" y="1374"/>
      <point x="636" y="1374"/>
      <point x="636" y="1374" type="qcurve"/>
      <point x="736" y="1374" type="line"/>
      <point x="736" y="1374"/>
      <point x="736" y="1374"/>
      <point x="736" y="1374"/>
      <point x="736" y="1374"/>
      <point x="736" y="1374" type="qcurve"/>
      <point x="736" y="26" type="line"/>
      <point x="736" y="26"/>
      <point x="736" y="26"/>
      <point x="736" y="26"/>
      <point x="736" y="26"/>
      <point x="736" y="26" type="qcurve"/>
      <point x="636" y="26" type="line"/>
      <point x="636" y="26"/>
      <point x="636" y="26"/>
      <point x="636" y="26"/>
      <point x="636" y="26"/>
      <point x="636" y="26" type="qcurve"/>
    </contour>
  </outline>
</glyph>
<glyph name="P" format="1">
  <advance width="1412"/>
  <unicode hex="0050"/>
  <outline>
    <contour>
      <point x="88" y="0" type="line"/>
      <point x="660" y="0" type="line"/>
      <point x="660" y="440" type="line"/>
      <point x="928" y="440" type="line" smooth="yes"/>
      <point x="1180" y="440"/>
      <point x="1342" y="506"/>
      <point x="1342" y="774" type="curve" smooth="yes"/>
      <point x="1342" y="1066" type="line" smooth="yes"/>
      <point x="1342" y="1334"/>
      <point x="1180" y="1400"/>
      <point x="928" y="1400" type="curve" smooth="yes"/>
      <point x="88" y="1400" type="line"/>
    </contour>
    <contour>
      <point x="660" y="476" type="line"/>
      <point x="660" y="1364" type="line"/>
      <point x="694" y="1364" type="line" smooth="yes"/>
      <point x="746" y="1364"/>
      <point x="770" y="1340"/>
      <point x="770" y="1304" type="curve" smooth="yes"/>
      <point x="770" y="536" type="line" smooth="yes"/>
      <point x="770" y="500"/>
      <point x="746" y="476"/>
      <point x="694" y="476" type="curve" smooth="yes"/>
    </contour>
  </outline>
</glyph>
<glyph name="Q" format="2">
  <advance width="1372"/>
  <unicode hex="0051"/>
  <anchor x="686" y="1550" name="top"/>
  <anchor x="686" y="-438" name="bottom"/>
  <outline>
    <contour>
      <point x="64" y="1076" type="line"/>
      <point x="64" y="336" type="line" smooth="yes"/>
      <point x="64" y="233"/>
      <point x="119" y="99"/>
      <point x="224" y="21"/>
      <point x="377" y="-10"/>
      <point x="476" y="-10" type="qcurve" smooth="yes"/>
      <point x="894" y="-10" type="line" smooth="yes"/>
      <point x="993" y="-10"/>
      <point x="1147" y="21"/>
      <point x="1253" y="99"/>
      <point x="1308" y="233"/>
      <point x="1308" y="336" type="qcurve" smooth="yes"/>
      <point x="1308" y="1076" type="line" smooth="yes"/>
      <point x="1308" y="1177"/>
      <point x="1250" y="1306"/>
      <point x="1142" y="1381"/>
      <point x="989" y="1410"/>
      <point x="894" y="1410" type="qcurve" smooth="yes"/>
      <point x="476" y="1410" type="line" smooth="yes"/>
      <point x="382" y="1410"/>
      <point x="229" y="1381"/>
      <point x="122" y="1306"/>
      <point x="64" y="1177"/>
      <point x="64" y="1076" type="qcurve"/>
    </contour>
    <contour>
      <point x="636" y="1374" type="line"/>
      <point x="636" y="1374"/>
      <point x="636" y="1374"/>
      <point x="636" y="1374"/>
      <point x="636" y="1374"/>
      <point x="636" y="1374" type="qcurve"/>
      <point x="736" y="1374" type="line"/>
      <point x="736" y="1374"/>
      <point x="736" y="1374"/>
      <point x="736" y="1374"/>
      <point x="736" y="1374"/>
      <point x="736" y="1374" type="qcurve"/>
      <point x="736" y="26" type="line"/>
      <point x="736" y="26"/>
      <point x="736" y="26"/>
      <point x="736" y="26"/>
      <point x="736" y="26"/>
      <point x="736" y="26" type="qcurve"/>
      <point x="636" y="26" type="line"/>
      <point x="636" y="26"/>
      <point x="636" y="26"/>
      <point x="636" y="26"/>
      <point x="636" y="26"/>
      <point x="636" y="26" type="qcurve"/>
    </contour>
    <contour>
      <point x="665" y="-282" type="line"/>
      <point x="1035" y="-282" type="line"/>
      <point x="974" y="537" type="line"/>
      <point x="665" y="526" type="line"/>
    </contour>
  </outline>
</glyph>
<glyph name="R" format="2">
  <advance width="1482"/>
  <unicode hex="0052"/>
  <anchor x="741" y="-150" name="bottom"/>
  <anchor x="741" y="1550" name="top"/>
  <outline>
    <contour>
      <point x="80" y="0" type="line"/>
      <point x="652" y="0" type="line"/>
      <point x="652" y="530" type="line"/>
      <point x="652" y="530" type="line"/>
      <point x="850" y="0" type="line"/>
      <point x="1482" y="0" type="line"/>
      <point x="1174" y="603" type="line"/>
      <point x="1174" y="603" type="line"/>
      <point x="1212" y="620"/>
      <point x="1271" y="671"/>
      <point x="1312" y="744"/>
      <point x="1334" y="844"/>
      <point x="1334" y="908" type="qcurve" smooth="yes"/>
      <point x="1334" y="1036" type="line" smooth="yes"/>
      <point x="1334" y="1137"/>
      <point x="1269" y="1275"/>
      <point x="1154" y="1362"/>
      <point x="995" y="1400"/>
      <point x="900" y="1400" type="qcurve" smooth="yes"/>
      <point x="80" y="1400" type="line"/>
    </contour>
    <contour>
      <point x="652" y="570" type="line"/>
      <point x="652" y="1364" type="line"/>
      <point x="686" y="1364" type="line" smooth="yes"/>
      <point x="706" y="1364"/>
      <point x="734" y="1355"/>
      <point x="753" y="1340"/>
      <point x="762" y="1318"/>
      <point x="762" y="1304" type="qcurve" smooth="yes"/>
      <point x="762" y="630" type="line" smooth="yes"/>
      <point x="762" y="617"/>
      <point x="753" y="594"/>
      <point x="734" y="579"/>
      <point x="706" y="570"/>
      <point x="686" y="570" type="qcurve" smooth="yes"/>
    </contour>
  </outline>
</glyph>
<glyph name="T" format="1">
  <advance width="1144"/>
  <unicode hex="0054"/>
  <outline>
    <contour>
      <point x="1134" y="1400" type="line"/>
      <point x="1134" y="1364" type="line"/>
      <point x="858" y="1364" type="line"/>
      <point x="858" y="0" type="line"/>
      <point x="286" y="0" type="line"/>
      <point x="286" y="1364" type="line"/>
      <point x="10" y="1364" type="line"/>
      <point x="10" y="1400" type="line"/>
    </contour>
    <contour>
      <point x="572" y="1550" type="move" name="top"/>
    </contour>
    <contour>
      <point x="572" y="-150" type="move" name="bottom"/>
    </contour>
  </outline>
</glyph>
<glyph name="U" format="1">
  <advance width="1395"/>
  <unicode hex="0055"/>
  <outline>
    <contour>
      <point x="83" y="1400" type="line"/>
      <point x="655" y="1400" type="line"/>
      <point x="655" y="26" type="line"/>
      <point x="655" y="26"/>
      <point x="655" y="26"/>
      <point x="655" y="26" type="curve"/>
      <point x="740" y="26" type="line"/>
      <point x="740" y="26"/>
      <point x="740" y="26"/>
      <point x="740" y="26" type="curve"/>
      <point x="740" y="1400" type="line"/>
      <point x="1312" y="1400" type="line"/>
      <point x="1312" y="333" type="line" smooth="yes"/>
      <point x="1312" y="50"/>
      <point x="1157" y="-10"/>
      <point x="900" y="-10" type="curve" smooth="yes"/>
      <point x="493" y="-10" type="line" smooth="yes"/>
      <point x="239" y="-10"/>
      <point x="83" y="50"/>
      <point x="83" y="333" type="curve" smooth="yes"/>
    </contour>
    <contour>
      <point x="698" y="1550" type="move" name="top"/>
    </contour>
    <contour>
      <point x="697" y="-150" type="move" name="bottom"/>
    </contour>
  </outline>
</glyph>
<glyph name="V" format="1">
  <advance width="1194"/>
  <unicode hex="0056"/>
  <outline>
    <contour>
      <point x="500" y="0" type="line"/>
      <point x="-10" y="1400" type="line"/>
      <point x="586" y="1400" type="line"/>
      <point x="876" y="428" type="line"/>
      <point x="768" y="0" type="line"/>
    </contour>
    <contour>
      <point x="752" y="0" type="line"/>
      <point x="751.357" y="50" type="line"/>
      <point x="1166" y="1400" type="line"/>
      <point x="1204" y="1400" type="line"/>
      <point x="774" y="0" type="line"/>
    </contour>
    <contour>
      <point x="598" y="1550" type="move" name="top"/>
    </contour>
    <contour>
      <point x="598" y="-150" type="move" name="bottom"/>
    </contour>
  </outline>
</glyph>
<glyph name="W" format="2">
  <advance width="1810"/>
  <unicode hex="0057"/>
  <anchor x="925" y="-150" name="bottom"/>
  <anchor x="1136" y="1550" name="top"/>
  <outline>
    <contour>
      <point x="-10" y="1400" type="line"/>
      <point x="404" y="0" type="line"/>
      <point x="678" y="0" type="line"/>
      <point x="916" y="999" type="line"/>
      <point x="1212" y="0" type="line"/>
      <point x="1486" y="0" type="line"/>
      <point x="1820" y="1400" type="line"/>
      <point x="1783" y="1400" type="line"/>
      <point x="1562" y="468" type="line"/>
      <point x="1338" y="1400" type="line"/>
      <point x="974" y="1400" type="line"/>
      <point x="754" y="467" type="line"/>
      <point x="522" y="1400" type="line"/>
    </contour>
  </outline>
</glyph>
<glyph name="X" format="2">
  <advance width="1344"/>
  <unicode hex="0058"/>
  <anchor x="672" y="1550" name="top"/>
  <anchor x="672" y="-150" name="bottom"/>
  <outline>
    <contour>
      <point x="36" y="0" type="line"/>
      <point x="82" y="0" type="line"/>
      <point x="498" y="535" type="line"/>
      <point x="793" y="0" type="line"/>
      <point x="1354" y="0" type="line"/>
      <point x="838" y="908" type="line"/>
      <point x="1206" y="1400" type="line"/>
      <point x="1161" y="1400" type="line"/>
      <point x="818" y="942" type="line"/>
      <point x="552" y="1400" type="line"/>
      <point x="-10" y="1400" type="line"/>
      <point x="477" y="568" type="line"/>
    </contour>
  </outline>
</glyph>
<glyph name="Y" format="1">
  <advance width="1338"/>
  <unicode hex="0059"/>
  <outline>
    <contour>
      <point x="486" y="128" type="line"/>
      <point x="883" y="207" type="line"/>
      <point x="1348" y="1400" type="line"/>
      <point x="1309" y="1400" type="line"/>
      <point x="931" y="428" type="line"/>
      <point x="563" y="1400" type="line"/>
      <point x="-10" y="1400" type="line"/>
    </contour>
    <contour>
      <point x="368" y="0" type="line"/>
      <point x="940" y="0" type="line"/>
      <point x="940" y="407" type="line"/>
      <point x="368" y="464" type="line"/>
    </contour>
    <contour>
      <point x="669" y="1550" type="move" name="top"/>
    </contour>
    <contour>
      <point x="669" y="-150" type="move" name="bottom"/>
    </contour>
  </outline>
</glyph>
<glyph name="Z" format="1">
  <advance width="1184"/>
  <unicode hex="005A"/>
  <outline>
    <contour>
      <point x="10" y="18" type="line"/>
      <point x="599" y="18" type="line"/>
      <point x="1164" y="1382" type="line"/>
      <point x="575" y="1382" type="line"/>
    </contour>
    <contour>
      <point x="10" y="0" type="line"/>
      <point x="1174" y="0" type="line"/>
      <point x="1174" y="36" type="line"/>
      <point x="313" y="36" type="line"/>
      <point x="10" y="18" type="line"/>
    </contour>
    <contour>
      <point x="80" y="1364" type="line"/>
      <point x="901" y="1364" type="line"/>
      <point x="1164" y="1382" type="line"/>
      <point x="1164" y="1400" type="line"/>
      <point x="80" y="1400" type="line"/>
    </contour>
    <contour>
      <point x="642.286" y="1550" type="move" name="top"/>
    </contour>
    <contour>
      <point x="642.286" y="-150" type="move" name="bottom"/>
    </contour>
  </outline>
</glyph>
<glyph name="bracketleft" format="1">
  <advance width="760"/>
  <unicode hex="005B"/>
  <outline>
    <contour>
      <point x="88" y="-256" type="line"/>
      <point x="88" y="1448" type="line"/>
      <point x="750" y="1448" type="line"/>
      <point x="750" y="1416" type="line"/>
      <point x="528" y="1416" type="line"/>
      <point x="528" y="-224" type="line"/>
      <point x="750" y="-224" type="line"/>
      <point x="750" y="-256" type="line"/>
    </contour>
  </outline>
</glyph>
<glyph name="asciicircum" format="1">
  <advance width="836"/>
  <unicode hex="005E"/>
  <outline>
    <contour>
      <point x="72" y="850" type="line"/>
      <point x="264" y="1448" type="line"/>
      <point x="582" y="1448" type="line"/>
      <point x="831" y="850" type="line"/>
      <point x="477" y="850" type="line"/>
      <point x="286" y="1411" type="line"/>
      <point x="110" y="850" type="line"/>
    </contour>
  </outline>
</glyph>
<glyph name="a" format="2">
  <advance width="1286" height="1448"/>
  <unicode hex="0061"/>
  <anchor x="629" y="1174" name="top"/>
  <anchor x="632" y="-162" name="bottom"/>
  <anchor x="711" y="0" name="ogonek"/>
  <outline>
    <contour>
      <point x="342" y="0" type="line" smooth="yes"/>
      <point x="281" y="0"/>
      <point x="173" y="24"/>
      <point x="92" y="82"/>
      <point x="46" y="180"/>
      <point x="46" y="254" type="qcurve" smooth="yes"/>
      <point x="46" y="322" type="line" smooth="yes"/>
      <point x="46" y="395"/>
      <point x="92" y="489"/>
      <point x="173" y="544"/>
      <point x="281" y="566"/>
      <point x="342" y="566" type="qcurve" smooth="yes"/>
      <point x="674" y="566" type="line"/>
      <point x="674" y="998" type="line"/>
      <point x="674" y="998"/>
      <point x="674" y="998"/>
      <point x="674" y="998" type="qcurve"/>
      <point x="584" y="998" type="line"/>
      <point x="584" y="998"/>
      <point x="584" y="998"/>
      <point x="584" y="998" type="qcurve"/>
      <point x="584" y="664" type="line"/>
      <point x="80" y="756" type="line"/>
      <point x="80" y="770" type="line" smooth="yes"/>
      <point x="80" y="844"/>
      <point x="123" y="944"/>
      <point x="201" y="1004"/>
      <point x="310" y="1030"/>
      <point x="376" y="1030" type="qcurve" smooth="yes"/>
      <point x="902" y="1030" type="line" smooth="yes"/>
      <point x="968" y="1030"/>
      <point x="1077" y="1007"/>
      <point x="1155" y="945"/>
      <point x="1198" y="838"/>
      <point x="1198" y="754" type="qcurve" smooth="yes"/>
      <point x="1198" y="0" type="line"/>
      <point x="674" y="0" type="line"/>
      <point x="674" y="28" type="line"/>
      <point x="669" y="21"/>
      <point x="654" y="11"/>
      <point x="635" y="4"/>
      <point x="612" y="0"/>
      <point x="598" y="0" type="qcurve" smooth="yes"/>
    </contour>
    <contour>
      <point x="570" y="32" type="line"/>
      <point x="570" y="32"/>
      <point x="570" y="32"/>
      <point x="570" y="32" type="qcurve"/>
      <point x="674" y="32" type="line"/>
      <point x="674" y="534" type="line"/>
      <point x="570" y="534" type="line"/>
      <point x="570" y="534"/>
      <point x="570" y="534"/>
      <point x="570" y="534" type="qcurve"/>
    </contour>
  </outline>
  <guideline x="690" color="1,0,0,1"/>
</glyph>
<glyph name="b" format="1">
  <advance width="1298" height="-1448"/>
  <unicode hex="0062"/>
  <outline>
    <contour>
      <point x="80" y="0" type="line"/>
      <point x="604" y="0" type="line"/>
      <point x="604" y="28" type="line"/>
      <point x="618" y="10"/>
      <point x="644" y="0"/>
      <point x="680" y="0" type="curve" smooth="yes"/>
      <point x="922" y="0" type="line" smooth="yes"/>
      <point x="1136" y="0"/>
      <point x="1228" y="80"/>
      <point x="1228" y="264" type="curve" smooth="yes"/>
      <point x="1228" y="776" type="line" smooth="yes"/>
      <point x="1228" y="950"/>
      <point x="1134" y="1030"/>
      <point x="922" y="1030" type="curve" smooth="yes"/>
      <point x="680" y="1030" type="line" smooth="yes"/>
      <point x="638" y="1030"/>
      <point x="612" y="1022"/>
      <point x="604" y="1006" type="curve"/>
      <point x="604" y="1472" type="line"/>
      <point x="80" y="1472" type="line"/>
    </contour>
    <contour>
      <point x="604" y="32" type="line"/>
      <point x="604" y="998" type="line"/>
      <point x="704" y="998" type="line"/>
      <point x="704" y="998"/>
      <point x="704" y="998"/>
      <point x="704" y="998" type="curve"/>
      <point x="704" y="32" type="line"/>
      <point x="704" y="32"/>
      <point x="704" y="32"/>
      <point x="704" y="32" type="curve"/>
    </contour>
    <contour>
      <point x="654" y="1598" type="move" name="top"/>
    </contour>
    <contour>
      <point x="654" y="-162" type="move" name="bottom"/>
    </contour>
  </outline>
</glyph>
<glyph name="c" format="1">
  <advance width="1271"/>
  <unicode hex="0063"/>
  <outline>
    <contour>
      <point x="70" y="264" type="curve"/>
      <point x="70" y="770" type="line"/>
      <point x="70" y="956"/>
      <point x="164" y="1030"/>
      <point x="396" y="1030" type="curve"/>
      <point x="896" y="1030" type="line"/>
      <point x="1128" y="1030"/>
      <point x="1218" y="958"/>
      <point x="1218" y="774" type="curve"/>
      <point x="1218" y="650" type="line"/>
      <point x="694" y="552" type="line"/>
      <point x="694" y="998" type="line"/>
      <point x="694" y="998"/>
      <point x="694" y="998"/>
      <point x="694" y="998" type="curve"/>
      <point x="594" y="998" type="line"/>
      <point x="594" y="998"/>
      <point x="594" y="998"/>
      <point x="594" y="998" type="curve"/>
      <point x="594" y="26" type="line"/>
      <point x="594" y="26"/>
      <point x="594" y="26"/>
      <point x="594" y="26" type="curve"/>
      <point x="698" y="26" type="line"/>
      <point x="698" y="26"/>
      <point x="698" y="26"/>
      <point x="698" y="26" type="curve"/>
      <point x="698" y="474" type="line"/>
      <point x="1222" y="366" type="line"/>
      <point x="1222" y="264" type="line"/>
      <point x="1222" y="70"/>
      <point x="1134" y="-6"/>
      <point x="898" y="-6" type="curve"/>
      <point x="394" y="-6" type="line"/>
      <point x="158" y="-6"/>
      <point x="70" y="70"/>
    </contour>
    <contour>
      <point x="646" y="1174" type="move" name="top"/>
    </contour>
    <contour>
      <point x="646" y="-150" type="move" name="bottom"/>
    </contour>
  </outline>
</glyph>
<glyph name="d" format="1">
  <advance width="1298" height="1448"/>
  <unicode hex="0064"/>
  <outline>
    <contour>
      <point x="70" y="264" type="curve" smooth="yes"/>
      <point x="70" y="776" type="line" smooth="yes"/>
      <point x="70" y="950"/>
      <point x="164" y="1030"/>
      <point x="376" y="1030" type="curve" smooth="yes"/>
      <point x="618" y="1030" type="line" smooth="yes"/>
      <point x="660" y="1030"/>
      <point x="686" y="1022"/>
      <point x="694" y="1006" type="curve"/>
      <point x="694" y="1472" type="line"/>
      <point x="1218" y="1472" type="line"/>
      <point x="1218" y="0" type="line"/>
      <point x="694" y="0" type="line"/>
      <point x="694" y="28" type="line"/>
      <point x="680" y="10"/>
      <point x="654" y="0"/>
      <point x="618" y="0" type="curve" smooth="yes"/>
      <point x="376" y="0" type="line" smooth="yes"/>
      <point x="162" y="0"/>
      <point x="70" y="80"/>
    </contour>
    <contour>
      <point x="694" y="998" type="line"/>
      <point x="594" y="998" type="line"/>
      <point x="594" y="998"/>
      <point x="594" y="998"/>
      <point x="594" y="998" type="curve"/>
      <point x="594" y="32" type="line"/>
      <point x="594" y="32"/>
      <point x="594" y="32"/>
      <point x="594" y="32" type="curve"/>
      <point x="694" y="32" type="line"/>
    </contour>
    <contour>
      <point x="644" y="1598" type="move" name="top"/>
    </contour>
    <contour>
      <point x="644" y="-162" type="move" name="bottom"/>
    </contour>
  </outline>
</glyph>
<glyph name="e" format="2">
  <advance width="1260" height="1448"/>
  <unicode hex="0065"/>
  <anchor x="630" y="1174" name="top"/>
  <anchor x="630" y="-150" name="bottom"/>
  <anchor x="786" y="0" name="ogonek"/>
  <outline>
    <contour>
      <point x="56" y="304" type="line"/>
      <point x="56" y="730" type="line" smooth="yes"/>
      <point x="56" y="808"/>
      <point x="100" y="921"/>
      <point x="196" y="995"/>
      <point x="347" y="1030"/>
      <point x="454" y="1030" type="qcurve" smooth="yes"/>
      <point x="786" y="1030" type="line" smooth="yes"/>
      <point x="894" y="1030"/>
      <point x="1052" y="995"/>
      <point x="1154" y="922"/>
      <point x="1204" y="809"/>
      <point x="1204" y="730" type="qcurve" smooth="yes"/>
      <point x="1204" y="516" type="line"/>
      <point x="580" y="516" type="line"/>
      <point x="580" y="26" type="line"/>
      <point x="580" y="26"/>
      <point x="580" y="26"/>
      <point x="580" y="26" type="qcurve"/>
      <point x="680" y="26" type="line"/>
      <point x="680" y="26"/>
      <point x="680" y="26"/>
      <point x="680" y="26" type="qcurve"/>
      <point x="680" y="368" type="line"/>
      <point x="1204" y="270" type="line"/>
      <point x="1204" y="258" type="line" smooth="yes"/>
      <point x="1204" y="182"/>
      <point x="1154" y="81"/>
      <point x="1052" y="20"/>
      <point x="894" y="-6"/>
      <point x="786" y="-6" type="qcurve" smooth="yes"/>
      <point x="454" y="-6" type="line" smooth="yes"/>
      <point x="346" y="-6"/>
      <point x="195" y="30"/>
      <point x="99" y="106"/>
      <point x="56" y="223"/>
      <point x="56" y="304" type="qcurve"/>
    </contour>
    <contour>
      <point x="580" y="548" type="line"/>
      <point x="680" y="548" type="line"/>
      <point x="680" y="998" type="line"/>
      <point x="680" y="998"/>
      <point x="680" y="998"/>
      <point x="680" y="998" type="qcurve"/>
      <point x="580" y="998" type="line"/>
      <point x="580" y="998"/>
      <point x="580" y="998"/>
      <point x="580" y="998" type="qcurve"/>
    </contour>
  </outline>
  <guideline y="-1030" color="1,0,0,1"/>
</glyph>
<glyph name="f" format="2">
  <advance width="861"/>
  <unicode hex="0066"/>
  <outline>
    <contour>
      <point x="80" y="1024" type="line"/>
      <point x="80" y="1176" type="line" smooth="yes"/>
      <point x="80" y="1254"/>
      <point x="120" y="1366"/>
      <point x="199" y="1438"/>
      <point x="317" y="1472"/>
      <point x="394" y="1472" type="qcurve" smooth="yes"/>
      <point x="871" y="1472" type="line"/>
      <point x="861" y="1440" type="line"/>
      <point x="604" y="1440" type="line"/>
      <point x="604" y="1440"/>
      <point x="604" y="1440"/>
      <point x="604" y="1440" type="qcurve"/>
      <point x="604" y="1024" type="line"/>
      <point x="841" y="1024" type="line"/>
      <point x="841" y="992" type="line"/>
      <point x="604" y="992" type="line"/>
      <point x="604" y="0" type="line"/>
      <point x="80" y="0" type="line"/>
      <point x="80" y="992" type="line"/>
      <point x="32" y="992" type="line"/>
      <point x="32" y="1024" type="line"/>
    </contour>
  </outline>
</glyph>
<glyph name="g" format="1">
  <advance width="1298" height="1448"/>
  <unicode hex="0067"/>
  <outline>
    <contour>
      <point x="594" y="32" type="curve"/>
      <point x="594" y="992" type="line"/>
      <point x="594" y="992"/>
      <point x="594" y="992"/>
      <point x="594" y="992" type="curve"/>
      <point x="694" y="992" type="line"/>
      <point x="694" y="32" type="line"/>
      <point x="594" y="32" type="line"/>
      <point x="594" y="32"/>
      <point x="594" y="32"/>
    </contour>
    <contour>
      <point x="150" y="-404" type="line"/>
      <point x="958" y="-404" type="line" smooth="yes"/>
      <point x="1114" y="-404"/>
      <point x="1218" y="-274"/>
      <point x="1218" y="-78" type="curve" smooth="yes"/>
      <point x="1218" y="1024" type="line"/>
      <point x="694" y="1024" type="line"/>
      <point x="694" y="1000" type="line"/>
      <point x="686" y="1016"/>
      <point x="660" y="1024"/>
      <point x="618" y="1024" type="curve" smooth="yes"/>
      <point x="376" y="1024" type="line" smooth="yes"/>
      <point x="164" y="1024"/>
      <point x="70" y="944"/>
      <point x="70" y="770" type="curve" smooth="yes"/>
      <point x="70" y="264" type="line" smooth="yes"/>
      <point x="70" y="80"/>
      <point x="162" y="0"/>
      <point x="376" y="0" type="curve" smooth="yes"/>
      <point x="618" y="0" type="line" smooth="yes"/>
      <point x="654" y="0"/>
      <point x="680" y="10"/>
      <point x="694" y="28" type="curve"/>
      <point x="694" y="-372" type="line"/>
      <point x="694" y="-372"/>
      <point x="694" y="-372"/>
      <point x="694" y="-372" type="curve"/>
      <point x="140" y="-372" type="line"/>
    </contour>
    <contour>
      <point x="649" y="1178" type="move" name="top"/>
    </contour>
    <contour>
      <point x="649" y="-554" type="move" name="bottom"/>
    </contour>
  </outline>
</glyph>
<glyph name="h" format="2">
  <advance width="1284" height="1448"/>
  <unicode hex="0068"/>
  <anchor x="334" y="1622" name="top"/>
  <anchor x="646" y="-150" name="bottom"/>
  <anchor x="-28" y="512" name="left"/>
  <outline>
    <contour>
      <point x="72" y="0" type="line"/>
      <point x="72" y="1472" type="line"/>
      <point x="596" y="1472" type="line"/>
      <point x="596" y="996" type="line"/>
      <point x="607" y="1010"/>
      <point x="645" y="1024"/>
      <point x="672" y="1024" type="qcurve" smooth="yes"/>
      <point x="854" y="1024" type="line" smooth="yes"/>
      <point x="952" y="1024"/>
      <point x="1090" y="988"/>
      <point x="1179" y="914"/>
      <point x="1220" y="801"/>
      <point x="1220" y="724" type="qcurve" smooth="yes"/>
      <point x="1220" y="0" type="line"/>
      <point x="696" y="0" type="line"/>
      <point x="696" y="992" type="line"/>
      <point x="696" y="992"/>
      <point x="696" y="992"/>
      <point x="696" y="992" type="qcurve"/>
      <point x="596" y="992" type="line"/>
      <point x="596" y="0" type="line"/>
    </contour>
  </outline>
  <guideline y="988"/>
  <guideline y="870"/>
</glyph>
<glyph name="k" format="1">
  <advance width="1456" height="1448"/>
  <unicode hex="006B"/>
  <outline>
    <contour>
      <point x="80" y="0" type="line"/>
      <point x="604" y="0" type="line"/>
      <point x="604" y="1472" type="line"/>
      <point x="80" y="1472" type="line"/>
    </contour>
    <contour>
      <point x="816" y="0" type="line"/>
      <point x="1456" y="0" type="line"/>
      <point x="994" y="774" type="line"/>
      <point x="574" y="510" type="line"/>
    </contour>
    <contour>
      <point x="578" y="520" type="line"/>
      <point x="635" y="520" type="line"/>
      <point x="1377" y="1024" type="line"/>
      <point x="1320" y="1024" type="line"/>
    </contour>
    <contour>
      <point x="142" y="1598" type="move" name="top"/>
    </contour>
    <contour>
      <point x="702" y="-150" type="move" name="bottom"/>
    </contour>
  </outline>
</glyph>
<glyph name="m" format="1">
  <advance width="1922" height="1448"/>
  <unicode hex="006D"/>
  <outline>
    <contour>
      <point x="80" y="0" type="line"/>
      <point x="80" y="1024" type="line"/>
      <point x="604" y="1024" type="line"/>
      <point x="604" y="996" type="line"/>
      <point x="618" y="1014"/>
      <point x="644" y="1024"/>
      <point x="680" y="1024" type="curve" smooth="yes"/>
      <point x="950" y="1024" type="line" smooth="yes"/>
      <point x="1030" y="1024"/>
      <point x="1096" y="1015"/>
      <point x="1148" y="997" type="curve"/>
      <point x="1228" y="1004" type="line"/>
      <point x="1228" y="0" type="line"/>
      <point x="704" y="0" type="line"/>
      <point x="704" y="992" type="line"/>
      <point x="604" y="992" type="line"/>
      <point x="604" y="0" type="line"/>
    </contour>
    <contour>
      <point x="1140" y="996" type="line"/>
      <point x="1154" y="1014"/>
      <point x="1180" y="1024"/>
      <point x="1216" y="1024" type="curve" smooth="yes"/>
      <point x="1486" y="1024" type="line" smooth="yes"/>
      <point x="1746" y="1024"/>
      <point x="1852" y="930"/>
      <point x="1852" y="724" type="curve" smooth="yes"/>
      <point x="1852" y="0" type="line"/>
      <point x="1328" y="0" type="line"/>
      <point x="1328" y="992" type="line"/>
      <point x="1140" y="992" type="line"/>
      <point x="1140" y="992"/>
      <point x="1140" y="992"/>
      <point x="1140" y="992" type="curve"/>
    </contour>
    <contour>
      <point x="961" y="1174" type="move" name="top"/>
    </contour>
    <contour>
      <point x="961" y="-150" type="move" name="bottom"/>
    </contour>
    <contour>
      <point x="-20" y="512" type="move" name="left"/>
    </contour>
  </outline>
</glyph>
<glyph name="n" format="1">
  <advance width="1298" height="1448"/>
  <unicode hex="006E"/>
  <outline>
    <contour>
      <point x="80" y="0" type="line"/>
      <point x="80" y="1024" type="line"/>
      <point x="604" y="1024" type="line"/>
      <point x="604" y="996" type="line"/>
      <point x="618" y="1014"/>
      <point x="644" y="1024"/>
      <point x="680" y="1024" type="curve" smooth="yes"/>
      <point x="862" y="1024" type="line" smooth="yes"/>
      <point x="1122" y="1024"/>
      <point x="1228" y="930"/>
      <point x="1228" y="724" type="curve" smooth="yes"/>
      <point x="1228" y="0" type="line"/>
      <point x="704" y="0" type="line"/>
      <point x="704" y="992" type="line"/>
      <point x="704" y="992"/>
      <point x="704" y="992"/>
      <point x="704" y="992" type="curve"/>
      <point x="604" y="992" type="line"/>
      <point x="604" y="0" type="line"/>
    </contour>
    <contour>
      <point x="654" y="1174" type="move" name="top"/>
    </contour>
    <contour>
      <point x="654" y="-150" type="move" name="bottom"/>
    </contour>
    <contour>
      <point x="-20" y="512" type="move" name="left"/>
    </contour>
  </outline>
</glyph>
<glyph name="o" format="1">
  <advance width="1288" height="1448"/>
  <unicode hex="006F"/>
  <outline>
    <contour>
      <point x="70" y="258" type="curve" smooth="yes"/>
      <point x="70" y="776" type="line" smooth="yes"/>
      <point x="70" y="950"/>
      <point x="164" y="1030"/>
      <point x="376" y="1030" type="curve" smooth="yes"/>
      <point x="912" y="1030" type="line" smooth="yes"/>
      <point x="1124" y="1030"/>
      <point x="1218" y="950"/>
      <point x="1218" y="776" type="curve" smooth="yes"/>
      <point x="1218" y="258" type="line" smooth="yes"/>
      <point x="1218" y="74"/>
      <point x="1128" y="-6"/>
      <point x="912" y="-6" type="curve" smooth="yes"/>
      <point x="376" y="-6" type="line" smooth="yes"/>
      <point x="162" y="-6"/>
      <point x="70" y="74"/>
    </contour>
    <contour>
      <point x="594" y="26" type="line"/>
      <point x="594" y="26"/>
      <point x="594" y="26"/>
      <point x="594" y="26" type="curve"/>
      <point x="694" y="26" type="line"/>
      <point x="694" y="26"/>
      <point x="694" y="26"/>
      <point x="694" y="26" type="curve"/>
      <point x="694" y="998" type="line"/>
      <point x="694" y="998"/>
      <point x="694" y="998"/>
      <point x="694" y="998" type="curve"/>
      <point x="594" y="998" type="line"/>
      <point x="594" y="998"/>
      <point x="594" y="998"/>
      <point x="594" y="998" type="curve"/>
    </contour>
    <contour>
      <point x="644" y="1174" type="move" name="top"/>
    </contour>
    <contour>
      <point x="644" y="-150" type="move" name="bottom"/>
    </contour>
  </outline>
</glyph>
<glyph name="p" format="1">
  <advance width="1298" height="1448"/>
  <unicode hex="0070"/>
  <outline>
    <contour>
      <point x="80" y="-428" type="line"/>
      <point x="80" y="1024" type="line"/>
      <point x="604" y="1024" type="line"/>
      <point x="604" y="996" type="line"/>
      <point x="618" y="1014"/>
      <point x="644" y="1024"/>
      <point x="680" y="1024" type="curve" smooth="yes"/>
      <point x="922" y="1024" type="line" smooth="yes"/>
      <point x="1136" y="1024"/>
      <point x="1228" y="944"/>
      <point x="1228" y="760" type="curve" smooth="yes"/>
      <point x="1228" y="250" type="line" smooth="yes"/>
      <point x="1228" y="76"/>
      <point x="1134" y="-4"/>
      <point x="922" y="-4" type="curve" smooth="yes"/>
      <point x="680" y="-4" type="line" smooth="yes"/>
      <point x="638" y="-4"/>
      <point x="612" y="4"/>
      <point x="604" y="20" type="curve"/>
      <point x="604" y="-428" type="line"/>
    </contour>
    <contour>
      <point x="604" y="28" type="line"/>
      <point x="704" y="28" type="line"/>
      <point x="704" y="28"/>
      <point x="704" y="28"/>
      <point x="704" y="28" type="curve"/>
      <point x="704" y="992" type="line"/>
      <point x="704" y="992"/>
      <point x="704" y="992"/>
      <point x="704" y="992" type="curve"/>
      <point x="604" y="992" type="line"/>
    </contour>
    <contour>
      <point x="652" y="1598" type="move" name="top"/>
    </contour>
    <contour>
      <point x="654" y="-554" type="move" name="bottom"/>
    </contour>
  </outline>
</glyph>
<glyph name="q" format="1">
  <advance width="1298" height="1448"/>
  <unicode hex="0071"/>
  <outline>
    <contour>
      <point x="70" y="260" type="curve" smooth="yes"/>
      <point x="70" y="770" type="line" smooth="yes"/>
      <point x="70" y="944"/>
      <point x="164" y="1024"/>
      <point x="376" y="1024" type="curve" smooth="yes"/>
      <point x="618" y="1024" type="line" smooth="yes"/>
      <point x="660" y="1024"/>
      <point x="686" y="1016"/>
      <point x="694" y="1000" type="curve"/>
      <point x="694" y="1024" type="line"/>
      <point x="1218" y="1024" type="line"/>
      <point x="1218" y="-428" type="line"/>
      <point x="694" y="-428" type="line"/>
      <point x="694" y="24" type="line"/>
      <point x="680" y="6"/>
      <point x="654" y="-4"/>
      <point x="618" y="-4" type="curve" smooth="yes"/>
      <point x="376" y="-4" type="line" smooth="yes"/>
      <point x="162" y="-4"/>
      <point x="70" y="76"/>
    </contour>
    <contour>
      <point x="594" y="28" type="line"/>
      <point x="594" y="28"/>
      <point x="594" y="28"/>
      <point x="594" y="28" type="curve"/>
      <point x="694" y="28" type="line"/>
      <point x="694" y="992" type="line"/>
      <point x="594" y="992" type="line"/>
      <point x="594" y="992"/>
      <point x="594" y="992"/>
      <point x="594" y="992" type="curve"/>
    </contour>
    <contour>
      <point x="644" y="1598" type="move" name="top"/>
    </contour>
    <contour>
      <point x="644" y="-162" type="move" name="bottom"/>
    </contour>
  </outline>
</glyph>
<glyph name="r" format="2">
  <advance width="1231" height="1448"/>
  <unicode hex="0072"/>
  <anchor x="641" y="1174" name="top"/>
  <anchor x="334" y="-150" name="bottom"/>
  <anchor x="-28" y="512" name="left"/>
  <outline>
    <contour>
      <point x="72" y="0" type="line"/>
      <point x="72" y="1024" type="line"/>
      <point x="596" y="1024" type="line"/>
      <point x="596" y="996" type="line"/>
      <point x="607" y="1010"/>
      <point x="645" y="1024"/>
      <point x="672" y="1024" type="qcurve" smooth="yes"/>
      <point x="844" y="1024" type="line" smooth="yes"/>
      <point x="942" y="1024"/>
      <point x="1080" y="988"/>
      <point x="1169" y="914"/>
      <point x="1210" y="801"/>
      <point x="1210" y="724" type="qcurve" smooth="yes"/>
      <point x="1210" y="644" type="line"/>
      <point x="686" y="546" type="line"/>
      <point x="686" y="992" type="line"/>
      <point x="686" y="992"/>
      <point x="686" y="992"/>
      <point x="686" y="992" type="qcurve"/>
      <point x="596" y="992" type="line"/>
      <point x="596" y="0" type="line"/>
    </contour>
  </outline>
  <guideline y="988"/>
  <guideline y="870"/>
</glyph>
<glyph name="s" format="1">
  <advance width="1306"/>
  <unicode hex="0073"/>
  <outline>
    <contour>
      <point x="80" y="252" type="line"/>
      <point x="604" y="336" type="line"/>
      <point x="604" y="18" type="line"/>
      <point x="604" y="18"/>
      <point x="604" y="18"/>
      <point x="604" y="18" type="curve"/>
      <point x="694" y="18" type="line"/>
      <point x="694" y="18"/>
      <point x="694" y="18"/>
      <point x="694" y="18" type="curve"/>
      <point x="694" y="501" type="line"/>
      <point x="694" y="501"/>
      <point x="694" y="501"/>
      <point x="694" y="501" type="curve"/>
      <point x="378" y="501" type="line" smooth="yes"/>
      <point x="206" y="501"/>
      <point x="102" y="569"/>
      <point x="102" y="759" type="curve" smooth="yes"/>
      <point x="102" y="812" type="line" smooth="yes"/>
      <point x="102" y="998"/>
      <point x="218" y="1038"/>
      <point x="384" y="1038" type="curve" smooth="yes"/>
      <point x="926" y="1038" type="line" smooth="yes"/>
      <point x="1092" y="1038"/>
      <point x="1204" y="1000"/>
      <point x="1204" y="816" type="curve" smooth="yes"/>
      <point x="1204" y="778" type="line"/>
      <point x="696" y="696" type="line"/>
      <point x="696" y="1006" type="line"/>
      <point x="696" y="1006"/>
      <point x="696" y="1006"/>
      <point x="696" y="1006" type="curve"/>
      <point x="606" y="1006" type="line"/>
      <point x="606" y="1006"/>
      <point x="606" y="1006"/>
      <point x="606" y="1006" type="curve"/>
      <point x="606" y="533" type="line"/>
      <point x="606" y="533"/>
      <point x="606" y="533"/>
      <point x="606" y="533" type="curve"/>
      <point x="940" y="533" type="line" smooth="yes"/>
      <point x="1106" y="533"/>
      <point x="1218" y="499"/>
      <point x="1218" y="311" type="curve" smooth="yes"/>
      <point x="1218" y="218" type="line" smooth="yes"/>
      <point x="1218" y="26"/>
      <point x="1114" y="-14"/>
      <point x="940" y="-14" type="curve" smooth="yes"/>
      <point x="356" y="-14" type="line" smooth="yes"/>
      <point x="184" y="-14"/>
      <point x="80" y="26"/>
      <point x="80" y="218" type="curve" smooth="yes"/>
    </contour>
    <contour>
      <point x="651" y="1174" type="move" name="top"/>
    </contour>
    <contour>
      <point x="649" y="-150" type="move" name="bottom"/>
    </contour>
  </outline>
</glyph>
<glyph name="t" format="2">
  <advance width="830"/>
  <unicode hex="0074"/>
  <anchor x="361.8" y="1394" name="top"/>
  <anchor x="361.8" y="-156" name="bottom"/>
  <anchor x="635.8" y="1400" name="right"/>
  <outline>
    <contour>
      <point x="417.8" y="-6" type="line" smooth="yes"/>
      <point x="335.8" y="-6"/>
      <point x="218.8" y="22"/>
      <point x="145.8" y="84"/>
      <point x="111.8" y="181"/>
      <point x="111.8" y="250" type="qcurve" smooth="yes"/>
      <point x="111.8" y="992" type="line"/>
      <point x="28.8" y="992" type="line"/>
      <point x="28.8" y="1024" type="line"/>
      <point x="111.8" y="1024" type="line"/>
      <point x="111.8" y="1244" type="line"/>
      <point x="635.8" y="1244" type="line"/>
      <point x="635.8" y="1024" type="line"/>
      <point x="804.8" y="1024" type="line"/>
      <point x="804.8" y="992" type="line"/>
      <point x="635.8" y="992" type="line"/>
      <point x="635.8" y="26" type="line"/>
      <point x="635.8" y="26"/>
      <point x="635.8" y="26"/>
      <point x="635.8" y="26" type="qcurve"/>
      <point x="784.8" y="26" type="line"/>
      <point x="774.8" y="-6" type="line"/>
    </contour>
  </outline>
</glyph>
<glyph name="u" format="1">
  <advance width="1280"/>
  <unicode hex="0075"/>
  <outline>
    <contour>
      <point x="70" y="204" type="curve" smooth="yes"/>
      <point x="70" y="1024" type="line"/>
      <point x="594" y="1024" type="line"/>
      <point x="594" y="32" type="line"/>
      <point x="594" y="32"/>
      <point x="594" y="32"/>
      <point x="594" y="32" type="curve"/>
      <point x="686" y="32" type="line"/>
      <point x="686" y="32"/>
      <point x="686" y="32"/>
      <point x="686" y="32" type="curve"/>
      <point x="686" y="1024" type="line"/>
      <point x="1210" y="1024" type="line"/>
      <point x="1210" y="204" type="line" smooth="yes"/>
      <point x="1210" y="36"/>
      <point x="1116" y="0"/>
      <point x="964" y="0" type="curve" smooth="yes"/>
      <point x="314" y="0" type="line" smooth="yes"/>
      <point x="162" y="0"/>
      <point x="70" y="36"/>
    </contour>
    <contour>
      <point x="640" y="1174" type="move" name="top"/>
    </contour>
    <contour>
      <point x="640" y="-150" type="move" name="bottom"/>
    </contour>
  </outline>
</glyph>
<glyph name="v" format="2">
  <advance width="1060"/>
  <unicode hex="0076"/>
  <anchor x="530" y="1174" name="top"/>
  <anchor x="530" y="-150" name="bottom"/>
  <outline>
    <contour>
      <point x="406" y="0" type="line"/>
      <point x="673" y="0" type="line"/>
      <point x="1060" y="1024" type="line"/>
      <point x="1026" y="1024" type="line"/>
      <point x="758" y="315" type="line"/>
      <point x="539" y="1024" type="line"/>
      <point x="0" y="1024" type="line"/>
    </contour>
  </outline>
</glyph>
<glyph name="w" format="1">
  <advance width="1755"/>
  <unicode hex="0077"/>
  <outline>
    <contour>
      <point x="299" y="0" type="line"/>
      <point x="0" y="1024" type="line"/>
      <point x="551" y="1024" type="line"/>
      <point x="742" y="271" type="line"/>
      <point x="660" y="0" type="line"/>
    </contour>
    <contour>
      <point x="643" y="0" type="line"/>
      <point x="697" y="173" type="line"/>
      <point x="928" y="1024" type="line"/>
      <point x="962" y="1024" type="line"/>
      <point x="899" y="798" type="line"/>
      <point x="681" y="0" type="line"/>
    </contour>
    <contour>
      <point x="1091" y="0" type="line"/>
      <point x="885" y="793" type="line"/>
      <point x="942" y="1024" type="line"/>
      <point x="1344" y="1024" type="line"/>
      <point x="1535" y="271" type="line"/>
      <point x="1465" y="0" type="line"/>
    </contour>
    <contour>
      <point x="1445" y="0" type="line"/>
      <point x="1490" y="172" type="line"/>
      <point x="1722" y="1024" type="line"/>
      <point x="1755" y="1024" type="line"/>
      <point x="1476" y="0" type="line"/>
    </contour>
    <contour>
      <point x="1080" y="1174" type="move" name="top"/>
    </contour>
    <contour>
      <point x="880" y="-150" type="move" name="bottom"/>
    </contour>
  </outline>
</glyph>
<glyph name="x" format="2">
  <advance width="1206"/>
  <unicode hex="0078"/>
  <anchor x="603" y="1174" name="top"/>
  <anchor x="603" y="-150" name="bottom"/>
  <outline>
    <contour>
      <point x="30" y="0" type="line"/>
      <point x="74" y="0" type="line"/>
      <point x="421" y="372" type="line"/>
      <point x="654" y="0" type="line"/>
      <point x="1206" y="0" type="line"/>
      <point x="755" y="686" type="line"/>
      <point x="1064" y="1024" type="line"/>
      <point x="1020" y="1024" type="line"/>
      <point x="737" y="714" type="line"/>
      <point x="536" y="1024" type="line"/>
      <point x="0" y="1024" type="line"/>
      <point x="403" y="401" type="line"/>
    </contour>
  </outline>
</glyph>
<glyph name="y" format="1">
  <advance width="1060"/>
  <unicode hex="0079"/>
  <outline>
    <contour>
      <point x="531" y="-324" type="line"/>
      <point x="658" y="0" type="line"/>
      <point x="768" y="278" type="line"/>
      <point x="540" y="1024" type="line"/>
      <point x="0" y="1024" type="line"/>
    </contour>
    <contour>
      <point x="14" y="-428" type="line"/>
      <point x="422" y="-428" type="line" smooth="yes"/>
      <point x="509" y="-428"/>
      <point x="524.007" y="-391.003"/>
      <point x="560" y="-296" type="curve" smooth="yes"/>
      <point x="1060.09" y="1024" type="line"/>
      <point x="1027.11" y="1024" type="line"/>
      <point x="699" y="159" type="line"/>
      <point x="684" y="120" type="line"/>
      <point x="528" y="-291" type="line" smooth="yes"/>
      <point x="498.803" y="-367.925"/>
      <point x="489" y="-396"/>
      <point x="422" y="-396" type="curve" smooth="yes"/>
      <point x="7" y="-396" type="line"/>
    </contour>
    <contour>
      <point x="530" y="1174" type="move" name="top"/>
    </contour>
    <contour>
      <point x="530" y="-554" type="move" name="bottom"/>
    </contour>
  </outline>
</glyph>
<glyph name="z" format="1">
  <advance width="1108"/>
  <unicode hex="007A"/>
  <outline>
    <contour>
      <point x="40" y="18" type="line"/>
      <point x="635" y="18" type="line"/>
      <point x="1066" y="1006" type="line"/>
      <point x="475" y="1006" type="line"/>
    </contour>
    <contour>
      <point x="40" y="0" type="line"/>
      <point x="1076" y="0" type="line"/>
      <point x="1076" y="32" type="line"/>
      <point x="246" y="32" type="line"/>
      <point x="40" y="18" type="line"/>
    </contour>
    <contour>
      <point x="91" y="992" type="line"/>
      <point x="864" y="992" type="line"/>
      <point x="1066" y="1006" type="line"/>
      <point x="1066" y="1024" type="line"/>
      <point x="91" y="1024" type="line"/>
    </contour>
    <contour>
      <point x="558" y="1174" type="move" name="top"/>
    </contour>
    <contour>
      <point x="558" y="-150" type="move" name="bottom"/>
    </contour>
  </outline>
</glyph>
<glyph name="braceleft" format="2">
  <advance width="871"/>
  <unicode hex="007B"/>
  <outline>
    <contour>
      <point x="229.6" y="18" type="line"/>
      <point x="229.6" y="403" type="line" smooth="yes"/>
      <point x="229.6" y="444"/>
      <point x="210.6" y="510"/>
      <point x="165.6" y="556"/>
      <point x="92.6" y="581"/>
      <point x="39.6" y="581" type="qcurve"/>
      <point x="39.6" y="613" type="line"/>
      <point x="92.6" y="613"/>
      <point x="165.6" y="638"/>
      <point x="210.6" y="685"/>
      <point x="229.6" y="751"/>
      <point x="229.6" y="791" type="qcurve" smooth="yes"/>
      <point x="229.6" y="1164" type="line" smooth="yes"/>
      <point x="229.6" y="1232"/>
      <point x="272.6" y="1337"/>
      <point x="350.6" y="1410"/>
      <point x="460.6" y="1448"/>
      <point x="527.6" y="1448" type="qcurve" smooth="yes"/>
      <point x="860.6" y="1448" type="line"/>
      <point x="860.6" y="1416" type="line"/>
      <point x="791.6" y="1416" type="line" smooth="yes"/>
      <point x="758.6" y="1416"/>
      <point x="712.6" y="1403"/>
      <point x="683.6" y="1375"/>
      <point x="669.6" y="1333"/>
      <point x="669.6" y="1304" type="qcurve" smooth="yes"/>
      <point x="669.6" y="877" type="line" smooth="yes"/>
      <point x="669.6" y="766"/>
      <point x="565.6" y="624"/>
      <point x="469.6" y="597" type="qcurve"/>
      <point x="517.6" y="584"/>
      <point x="592.6" y="534"/>
      <point x="643.6" y="464"/>
      <point x="669.6" y="373"/>
      <point x="669.6" y="317" type="qcurve" smooth="yes"/>
      <point x="669.6" y="-112" type="line" smooth="yes"/>
      <point x="669.6" y="-141"/>
      <point x="683.6" y="-183"/>
      <point x="712.6" y="-211"/>
      <point x="758.6" y="-224"/>
      <point x="791.6" y="-224" type="qcurve" smooth="yes"/>
      <point x="860.6" y="-224" type="line"/>
      <point x="860.6" y="-256" type="line"/>
      <point x="527.6" y="-256" type="line" smooth="yes"/>
      <point x="460.6" y="-256"/>
      <point x="350.6" y="-218"/>
      <point x="272.6" y="-147"/>
      <point x="229.6" y="-46"/>
      <point x="229.6" y="18" type="qcurve"/>
    </contour>
  </outline>
</glyph>
<glyph name="cent" format="1">
  <advance width="1395"/>
  <unicode hex="00A2"/>
  <outline>
    <contour>
      <point x="674" y="-100" type="line"/>
      <point x="736" y="-100" type="line"/>
      <point x="736" y="1400" type="line"/>
      <point x="674" y="1400" type="line"/>
    </contour>
    <contour>
      <point x="822" y="624" type="line"/>
      <point x="822" y="176" type="line"/>
      <point x="822" y="176"/>
      <point x="822" y="176"/>
      <point x="822" y="176" type="curve"/>
      <point x="594" y="176" type="line"/>
      <point x="594" y="176"/>
      <point x="594" y="176"/>
      <point x="594" y="176" type="curve"/>
      <point x="594" y="1148" type="line"/>
      <point x="594" y="1148"/>
      <point x="594" y="1148"/>
      <point x="594" y="1148" type="curve"/>
      <point x="818" y="1148" type="line"/>
      <point x="818" y="1148"/>
      <point x="818" y="1148"/>
      <point x="818" y="1148" type="curve"/>
      <point x="818" y="702" type="line"/>
      <point x="1342" y="800" type="line"/>
      <point x="1342" y="924" type="line" smooth="yes"/>
      <point x="1342" y="1108"/>
      <point x="1252" y="1180"/>
      <point x="1020" y="1180" type="curve" smooth="yes"/>
      <point x="396" y="1180" type="line" smooth="yes"/>
      <point x="164" y="1180"/>
      <point x="70" y="1106"/>
      <point x="70" y="920" type="curve" smooth="yes"/>
      <point x="70" y="414" type="line" smooth="yes"/>
      <point x="70" y="220"/>
      <point x="158" y="144"/>
      <point x="394" y="144" type="curve" smooth="yes"/>
      <point x="1022" y="144" type="line" smooth="yes"/>
      <point x="1258" y="144"/>
      <point x="1346" y="220"/>
      <point x="1346" y="414" type="curve" smooth="yes"/>
      <point x="1346" y="516" type="line"/>
    </contour>
  </outline>
</glyph>
<glyph name="sterling" format="1">
  <advance width="1403"/>
  <unicode hex="00A3"/>
  <outline>
    <contour>
      <point x="25" y="0" type="line"/>
      <point x="287" y="0" type="line" smooth="yes"/>
      <point x="539" y="0"/>
      <point x="699" y="66"/>
      <point x="699" y="334" type="curve" smooth="yes"/>
      <point x="699" y="1013" type="line" smooth="yes"/>
      <point x="699" y="1043"/>
      <point x="709" y="1054"/>
      <point x="739" y="1054" type="curve" smooth="yes"/>
      <point x="753" y="1054" type="line" smooth="yes"/>
      <point x="782" y="1054"/>
      <point x="793" y="1043"/>
      <point x="793" y="1014" type="curve" smooth="yes"/>
      <point x="793" y="876" type="line"/>
      <point x="1365" y="980" type="line"/>
      <point x="1365" y="1084" type="line" smooth="yes"/>
      <point x="1365" y="1352"/>
      <point x="1203" y="1418"/>
      <point x="951" y="1418" type="curve" smooth="yes"/>
      <point x="539" y="1418" type="line" smooth="yes"/>
      <point x="287" y="1418"/>
      <point x="127" y="1352"/>
      <point x="127" y="1084" type="curve" smooth="yes"/>
      <point x="127" y="414" type="line" smooth="yes"/>
      <point x="127" y="380"/>
      <point x="111" y="364"/>
      <point x="77" y="364" type="curve" smooth="yes"/>
      <point x="25" y="364" type="line"/>
    </contour>
    <contour>
      <point x="97" y="263" type="line"/>
      <point x="262" y="119"/>
      <point x="448" y="0"/>
      <point x="712" y="0" type="curve" smooth="yes"/>
      <point x="957" y="0" type="line" smooth="yes"/>
      <point x="1221" y="0"/>
      <point x="1371" y="80"/>
      <point x="1371" y="336" type="curve" smooth="yes"/>
      <point x="1371" y="378" type="line"/>
      <point x="799" y="488" type="line"/>
      <point x="799" y="404" type="line" smooth="yes"/>
      <point x="799" y="376"/>
      <point x="787" y="364"/>
      <point x="759" y="364" type="curve" smooth="yes"/>
      <point x="699" y="364" type="line" smooth="yes"/>
      <point x="593" y="364"/>
      <point x="428" y="446"/>
      <point x="307" y="538" type="curve"/>
    </contour>
    <contour>
      <point x="77" y="543" type="line"/>
      <point x="740" y="543" type="line"/>
      <point x="789" y="785" type="line"/>
      <point x="77" y="785" type="line"/>
    </contour>
  </outline>
</glyph>
<glyph name="currency" format="1">
  <advance width="1484" height="1448"/>
  <unicode hex="00A4"/>
  <outline>
    <contour>
      <point x="166" y="446" type="curve" smooth="yes"/>
      <point x="166" y="964" type="line" smooth="yes"/>
      <point x="166" y="1138"/>
      <point x="260" y="1218"/>
      <point x="472" y="1218" type="curve" smooth="yes"/>
      <point x="1008" y="1218" type="line" smooth="yes"/>
      <point x="1220" y="1218"/>
      <point x="1314" y="1138"/>
      <point x="1314" y="964" type="curve" smooth="yes"/>
      <point x="1314" y="446" type="line" smooth="yes"/>
      <point x="1314" y="262"/>
      <point x="1224" y="182"/>
      <point x="1008" y="182" type="curve" smooth="yes"/>
      <point x="472" y="182" type="line" smooth="yes"/>
      <point x="258" y="182"/>
      <point x="166" y="262"/>
    </contour>
    <contour>
      <point x="690" y="214" type="line"/>
      <point x="690" y="214"/>
      <point x="690" y="214"/>
      <point x="690" y="214" type="curve"/>
      <point x="790" y="214" type="line"/>
      <point x="790" y="214"/>
      <point x="790" y="214"/>
      <point x="790" y="214" type="curve"/>
      <point x="790" y="1186" type="line"/>
      <point x="790" y="1186"/>
      <point x="790" y="1186"/>
      <point x="790" y="1186" type="curve"/>
      <point x="690" y="1186" type="line"/>
      <point x="690" y="1186"/>
      <point x="690" y="1186"/>
      <point x="690" y="1186" type="curve"/>
    </contour>
    <contour>
      <point x="-5" y="-33" type="line"/>
      <point x="-30" y="-8" type="line"/>
      <point x="247" y="269" type="line"/>
      <point x="272" y="244" type="line"/>
    </contour>
    <contour>
      <point x="-30" y="1408" type="line"/>
      <point x="-5" y="1433" type="line"/>
      <point x="272" y="1156" type="line"/>
      <point x="247" y="1131" type="line"/>
    </contour>
    <contour>
      <point x="1489" y="1433" type="line"/>
      <point x="1514" y="1408" type="line"/>
      <point x="1237" y="1131" type="line"/>
      <point x="1212" y="1156" type="line"/>
    </contour>
    <contour>
      <point x="1514" y="-8" type="line"/>
      <point x="1489" y="-33" type="line"/>
      <point x="1212" y="244" type="line"/>
      <point x="1237" y="269" type="line"/>
    </contour>
  </outline>
</glyph>
<glyph name="yen" format="1">
  <advance width="1338"/>
  <unicode hex="00A5"/>
  <outline>
    <component base="Y"/>
    <contour>
      <point x="162" y="391" type="line"/>
      <point x="1177" y="391" type="line"/>
      <point x="1177" y="427" type="line"/>
      <point x="162" y="427" type="line"/>
    </contour>
    <contour>
      <point x="162" y="231" type="line"/>
      <point x="1177" y="231" type="line"/>
      <point x="1177" y="267" type="line"/>
      <point x="162" y="267" type="line"/>
    </contour>
  </outline>
</glyph>
<glyph name="section" format="1">
  <advance width="1254"/>
  <unicode hex="00A7"/>
  <outline>
    <contour>
      <point x="128" y="138" type="line"/>
      <point x="572" y="206" type="line"/>
      <point x="572" y="-104" type="line"/>
      <point x="572" y="-104"/>
      <point x="572" y="-104"/>
      <point x="572" y="-104" type="curve"/>
      <point x="652" y="-104" type="line"/>
      <point x="652" y="-104"/>
      <point x="652" y="-104"/>
      <point x="652" y="-104" type="curve"/>
      <point x="652" y="369" type="line"/>
      <point x="652" y="369"/>
      <point x="652" y="369"/>
      <point x="652" y="369" type="curve"/>
      <point x="356" y="369" type="line" smooth="yes"/>
      <point x="184" y="369"/>
      <point x="80" y="437"/>
      <point x="80" y="627" type="curve" smooth="yes"/>
      <point x="80" y="680" type="line" smooth="yes"/>
      <point x="80" y="866"/>
      <point x="196" y="906"/>
      <point x="362" y="906" type="curve" smooth="yes"/>
      <point x="754" y="906" type="line"/>
      <point x="754" y="874" type="line"/>
      <point x="504" y="874" type="line"/>
      <point x="504" y="874"/>
      <point x="504" y="874"/>
      <point x="504" y="874" type="curve"/>
      <point x="504" y="401" type="line"/>
      <point x="504" y="401"/>
      <point x="504" y="401"/>
      <point x="504" y="401" type="curve"/>
      <point x="818" y="401" type="line" smooth="yes"/>
      <point x="984" y="401"/>
      <point x="1096" y="367"/>
      <point x="1096" y="179" type="curve" smooth="yes"/>
      <point x="1096" y="96" type="line" smooth="yes"/>
      <point x="1096" y="-96"/>
      <point x="992" y="-136"/>
      <point x="818" y="-136" type="curve" smooth="yes"/>
      <point x="404" y="-136" type="line" smooth="yes"/>
      <point x="232" y="-136"/>
      <point x="128" y="-96"/>
      <point x="128" y="96" type="curve" smooth="yes"/>
    </contour>
    <contour>
      <point x="722" y="401" type="line"/>
      <point x="722" y="401"/>
      <point x="722" y="401"/>
      <point x="722" y="401" type="curve"/>
      <point x="722" y="874" type="line"/>
      <point x="722" y="874"/>
      <point x="722" y="874"/>
      <point x="722" y="874" type="curve"/>
      <point x="524" y="874" type="line"/>
      <point x="432" y="874" type="line" smooth="yes"/>
      <point x="260" y="874"/>
      <point x="150" y="942"/>
      <point x="150" y="1132" type="curve" smooth="yes"/>
      <point x="150" y="1179" type="line" smooth="yes"/>
      <point x="150" y="1365"/>
      <point x="266" y="1405"/>
      <point x="432" y="1405" type="curve" smooth="yes"/>
      <point x="804" y="1405" type="line" smooth="yes"/>
      <point x="970" y="1405"/>
      <point x="1082" y="1367"/>
      <point x="1082" y="1183" type="curve" smooth="yes"/>
      <point x="1082" y="1137" type="line"/>
      <point x="654" y="1071" type="line"/>
      <point x="654" y="1373" type="line"/>
      <point x="654" y="1373"/>
      <point x="654" y="1373"/>
      <point x="654" y="1373" type="curve"/>
      <point x="574" y="1373" type="line"/>
      <point x="574" y="1373"/>
      <point x="574" y="1373"/>
      <point x="574" y="1373" type="curve"/>
      <point x="574" y="906" type="line"/>
      <point x="574" y="906"/>
      <point x="574" y="906"/>
      <point x="574" y="906" type="curve"/>
      <point x="888" y="906" type="line" smooth="yes"/>
      <point x="1054" y="906"/>
      <point x="1166" y="872"/>
      <point x="1166" y="684" type="curve" smooth="yes"/>
      <point x="1166" y="601" type="line" smooth="yes"/>
      <point x="1166" y="409"/>
      <point x="1062" y="369"/>
      <point x="888" y="369" type="curve"/>
      <point x="592" y="369" type="line"/>
      <point x="592" y="401" type="line"/>
    </contour>
  </outline>
</glyph>
<glyph name="copyright" format="1">
  <advance width="1686"/>
  <unicode hex="00A9"/>
  <outline>
    <contour>
      <point x="370" y="548" type="curve"/>
      <point x="370" y="862" type="line"/>
      <point x="370" y="1048"/>
      <point x="464" y="1122"/>
      <point x="696" y="1122" type="curve"/>
      <point x="988" y="1122" type="line"/>
      <point x="1220" y="1122"/>
      <point x="1310" y="1050"/>
      <point x="1310" y="866" type="curve"/>
      <point x="1310" y="832" type="line"/>
      <point x="876" y="745" type="line"/>
      <point x="876" y="1090" type="line"/>
      <point x="876" y="1090"/>
      <point x="876" y="1090"/>
      <point x="876" y="1090" type="curve"/>
      <point x="804" y="1090" type="line"/>
      <point x="804" y="1090"/>
      <point x="804" y="1090"/>
      <point x="804" y="1090" type="curve"/>
      <point x="804" y="310" type="line"/>
      <point x="804" y="310"/>
      <point x="804" y="310"/>
      <point x="804" y="310" type="curve"/>
      <point x="880" y="310" type="line"/>
      <point x="880" y="310"/>
      <point x="880" y="310"/>
      <point x="880" y="310" type="curve"/>
      <point x="880" y="662" type="line"/>
      <point x="1314" y="575" type="line"/>
      <point x="1314" y="548" type="line"/>
      <point x="1314" y="354"/>
      <point x="1226" y="278"/>
      <point x="990" y="278" type="curve"/>
      <point x="694" y="278" type="line"/>
      <point x="458" y="278"/>
      <point x="370" y="354"/>
    </contour>
    <contour>
      <point x="78" y="904" type="line" smooth="yes"/>
      <point x="78" y="1170"/>
      <point x="227" y="1238"/>
      <point x="490" y="1238" type="curve" smooth="yes"/>
      <point x="1186" y="1238" type="line" smooth="yes"/>
      <point x="1450" y="1238"/>
      <point x="1600" y="1180"/>
      <point x="1600" y="904" type="curve" smooth="yes"/>
      <point x="1600" y="508" type="line" smooth="yes"/>
      <point x="1600" y="232"/>
      <point x="1450" y="162"/>
      <point x="1186" y="162" type="curve" smooth="yes"/>
      <point x="490" y="162" type="line" smooth="yes"/>
      <point x="226" y="162"/>
      <point x="78" y="230"/>
      <point x="78" y="508" type="curve" smooth="yes"/>
    </contour>
    <contour>
      <point x="272" y="1048" type="curve" smooth="yes"/>
      <point x="272" y="369" type="line" smooth="yes"/>
      <point x="272" y="229"/>
      <point x="350" y="194"/>
      <point x="490" y="194" type="curve" smooth="yes"/>
      <point x="1186" y="194" type="line" smooth="yes"/>
      <point x="1327" y="194"/>
      <point x="1406" y="228"/>
      <point x="1406" y="368" type="curve" smooth="yes"/>
      <point x="1406" y="1049" type="line" smooth="yes"/>
      <point x="1406" y="1175"/>
      <point x="1326" y="1206"/>
      <point x="1186" y="1206" type="curve" smooth="yes"/>
      <point x="490" y="1206" type="line" smooth="yes"/>
      <point x="351" y="1206"/>
      <point x="272" y="1175"/>
    </contour>
  </outline>
</glyph>
<glyph name="ordfeminine" format="2">
  <advance width="860"/>
  <unicode hex="00AA"/>
  <outline>
    <contour>
      <point x="228" y="597" type="line" smooth="yes"/>
      <point x="188" y="597"/>
      <point x="118" y="613"/>
      <point x="65" y="651"/>
      <point x="35" y="715"/>
      <point x="35" y="763" type="qcurve" smooth="yes"/>
      <point x="35" y="801" type="line" smooth="yes"/>
      <point x="35" y="849"/>
      <point x="65" y="910"/>
      <point x="118" y="946"/>
      <point x="188" y="960"/>
      <point x="228" y="960" type="qcurve" smooth="yes"/>
      <point x="454" y="960" type="line"/>
      <point x="454" y="1253" type="line"/>
      <point x="454" y="1253"/>
      <point x="454" y="1253"/>
      <point x="454" y="1253" type="qcurve"/>
      <point x="392" y="1253" type="line"/>
      <point x="392" y="1253"/>
      <point x="392" y="1253"/>
      <point x="392" y="1253" type="qcurve"/>
      <point x="392" y="1028" type="line"/>
      <point x="52" y="1089" type="line"/>
      <point x="52" y="1107" type="line" smooth="yes"/>
      <point x="52" y="1160"/>
      <point x="80" y="1229"/>
      <point x="131" y="1269"/>
      <point x="202" y="1285"/>
      <point x="245" y="1285" type="qcurve" smooth="yes"/>
      <point x="601" y="1285" type="line" smooth="yes"/>
      <point x="644" y="1285"/>
      <point x="715" y="1270"/>
      <point x="766" y="1230"/>
      <point x="794" y="1160"/>
      <point x="794" y="1105" type="qcurve" smooth="yes"/>
      <point x="794" y="606" type="line"/>
      <point x="454" y="606" type="line"/>
      <point x="454" y="625" type="line"/>
      <point x="447" y="618"/>
      <point x="428" y="608"/>
      <point x="402" y="601"/>
      <point x="371" y="597"/>
      <point x="352" y="597" type="qcurve" smooth="yes"/>
    </contour>
    <contour>
      <point x="375" y="629" type="line"/>
      <point x="375" y="629"/>
      <point x="375" y="629"/>
      <point x="375" y="629" type="qcurve"/>
      <point x="454" y="629" type="line"/>
      <point x="454" y="928" type="line"/>
      <point x="375" y="928" type="line"/>
      <point x="375" y="928"/>
      <point x="375" y="928"/>
      <point x="375" y="928" type="qcurve"/>
    </contour>
  </outline>
  <guideline y="36"/>
  <guideline y="272"/>
  <guideline y="36"/>
  <guideline y="272"/>
</glyph>
<glyph name="registered" format="2">
  <advance width="680"/>
  <unicode hex="00AE"/>
  <outline>
    <contour>
      <point x="28" y="1058" type="line"/>
      <point x="28" y="1408" type="line" smooth="yes"/>
      <point x="28" y="1477"/>
      <point x="103" y="1550"/>
      <point x="172" y="1550" type="qcurve" smooth="yes"/>
      <point x="507" y="1550" type="line" smooth="yes"/>
      <point x="576" y="1550"/>
      <point x="652" y="1477"/>
      <point x="652" y="1408" type="qcurve" smooth="yes"/>
      <point x="652" y="1058" type="line" smooth="yes"/>
      <point x="652" y="989"/>
      <point x="576" y="915"/>
      <point x="507" y="915" type="qcurve" smooth="yes"/>
      <point x="172" y="915" type="line" smooth="yes"/>
      <point x="103" y="915"/>
      <point x="28" y="989"/>
      <point x="28" y="1058" type="qcurve"/>
    </contour>
    <contour>
      <point x="115" y="1393" type="line"/>
      <point x="115" y="1073" type="line" smooth="yes"/>
      <point x="115" y="1033"/>
      <point x="153" y="991"/>
      <point x="192" y="991" type="qcurve" smooth="yes"/>
      <point x="501" y="991" type="line" smooth="yes"/>
      <point x="541" y="991"/>
      <point x="565" y="1033"/>
      <point x="565" y="1073" type="qcurve" smooth="yes"/>
      <point x="565" y="1393" type="line" smooth="yes"/>
      <point x="565" y="1433"/>
      <point x="527" y="1474"/>
      <point x="487" y="1474" type="qcurve" smooth="yes"/>
      <point x="192" y="1474" type="line" smooth="yes"/>
      <point x="153" y="1474"/>
      <point x="115" y="1433"/>
      <point x="115" y="1393" type="qcurve"/>
    </contour>
    <contour>
      <point x="195" y="1400" type="line"/>
      <point x="394" y="1400" type="line" smooth="yes"/>
      <point x="439" y="1400"/>
      <point x="492" y="1369"/>
      <point x="492" y="1321" type="qcurve" smooth="yes"/>
      <point x="492" y="1260" type="line" smooth="yes"/>
      <point x="492" y="1245"/>
      <point x="486" y="1222"/>
      <point x="475" y="1205"/>
      <point x="459" y="1193"/>
      <point x="449" y="1189" type="qcurve"/>
      <point x="449" y="1189" type="line"/>
      <point x="525" y="1060" type="line"/>
      <point x="383" y="1060" type="line"/>
      <point x="323" y="1181" type="line"/>
      <point x="322" y="1181" type="line"/>
      <point x="322" y="1060" type="line"/>
      <point x="195" y="1060" type="line"/>
    </contour>
    <contour>
      <point x="322" y="1213" type="line"/>
      <point x="352" y="1213" type="line" smooth="yes"/>
      <point x="360" y="1213"/>
      <point x="367" y="1220"/>
      <point x="367" y="1228" type="qcurve" smooth="yes"/>
      <point x="367" y="1353" type="line" smooth="yes"/>
      <point x="367" y="1360"/>
      <point x="360" y="1368"/>
      <point x="352" y="1368" type="qcurve" smooth="yes"/>
      <point x="322" y="1368" type="line"/>
    </contour>
  </outline>
</glyph>
<glyph name="three.sups" format="1">
  <advance width="780" height="1448"/>
  <unicode hex="00B3"/>
  <outline>
    <contour>
      <point x="45" y="1276" type="curve" smooth="yes"/>
      <point x="45" y="1294" type="line"/>
      <point x="347" y="1342" type="line"/>
      <point x="347" y="1104" type="line"/>
      <point x="399" y="1104" type="line" smooth="yes"/>
      <point x="431" y="1104"/>
      <point x="455" y="1120"/>
      <point x="455" y="1144" type="curve" smooth="yes"/>
      <point x="455" y="1426" type="line" smooth="yes"/>
      <point x="455" y="1450"/>
      <point x="431" y="1466"/>
      <point x="405" y="1466" type="curve" smooth="yes"/>
      <point x="381" y="1466" type="line"/>
      <point x="381" y="1502" type="line"/>
      <point x="401" y="1502" type="line" smooth="yes"/>
      <point x="425" y="1502"/>
      <point x="447" y="1514"/>
      <point x="447" y="1536" type="curve" smooth="yes"/>
      <point x="447" y="1806" type="line" smooth="yes"/>
      <point x="447" y="1832"/>
      <point x="425" y="1846"/>
      <point x="397" y="1846" type="curve" smooth="yes"/>
      <point x="353" y="1846" type="line"/>
      <point x="353" y="1602" type="line"/>
      <point x="59" y="1652" type="line"/>
      <point x="59" y="1678" type="line" smooth="yes"/>
      <point x="59" y="1822"/>
      <point x="133" y="1882"/>
      <point x="285" y="1882" type="curve" smooth="yes"/>
      <point x="517" y="1882" type="line" smooth="yes"/>
      <point x="669" y="1882"/>
      <point x="741" y="1816"/>
      <point x="741" y="1696" type="curve" smooth="yes"/>
      <point x="741" y="1658" type="line" smooth="yes"/>
      <point x="741" y="1552"/>
      <point x="703" y="1502"/>
      <point x="611" y="1486" type="curve"/>
      <point x="691" y="1480"/>
      <point x="749" y="1432"/>
      <point x="749" y="1306" type="curve" smooth="yes"/>
      <point x="749" y="1260" type="line" smooth="yes"/>
      <point x="749" y="1112"/>
      <point x="655" y="1068"/>
      <point x="513" y="1068" type="curve" smooth="yes"/>
      <point x="277" y="1068" type="line" smooth="yes"/>
      <point x="137" y="1068"/>
      <point x="45" y="1106"/>
    </contour>
  </outline>
</glyph>
<glyph name="paragraph" format="1">
  <advance width="1069"/>
  <unicode hex="00B6"/>
  <outline>
    <contour>
      <point x="981" y="0" type="line"/>
      <point x="789" y="0" type="line"/>
      <point x="789" y="1364" type="line"/>
      <point x="701" y="1364" type="line"/>
      <point x="701" y="0" type="line"/>
      <point x="509" y="0" type="line"/>
      <point x="509" y="360" type="line"/>
      <point x="484" y="360" type="line" smooth="yes"/>
      <point x="232" y="360"/>
      <point x="70" y="418"/>
      <point x="70" y="686" type="curve" smooth="yes"/>
      <point x="70" y="1066" type="line" smooth="yes"/>
      <point x="70" y="1334"/>
      <point x="232" y="1400"/>
      <point x="484" y="1400" type="curve" smooth="yes"/>
      <point x="981" y="1400" type="line"/>
    </contour>
  </outline>
</glyph>
<glyph name="periodcentered" format="2">
  <advance width="648"/>
  <unicode hex="00B7"/>
  <outline>
    <contour>
      <point x="79" y="492" type="line"/>
      <point x="79" y="703" type="line" smooth="yes"/>
      <point x="79" y="747"/>
      <point x="89" y="801"/>
      <point x="120" y="831"/>
      <point x="175" y="841"/>
      <point x="220" y="841" type="qcurve" smooth="yes"/>
      <point x="427" y="841" type="line" smooth="yes"/>
      <point x="472" y="841"/>
      <point x="528" y="831"/>
      <point x="558" y="801"/>
      <point x="569" y="746"/>
      <point x="569" y="701" type="qcurve" smooth="yes"/>
      <point x="569" y="492" type="line" smooth="yes"/>
      <point x="569" y="447"/>
      <point x="559" y="392"/>
      <point x="528" y="361"/>
      <point x="473" y="351"/>
      <point x="428" y="351" type="qcurve" smooth="yes"/>
      <point x="220" y="351" type="line" smooth="yes"/>
      <point x="175" y="351"/>
      <point x="120" y="361"/>
      <point x="89" y="392"/>
      <point x="79" y="447"/>
      <point x="79" y="492" type="qcurve"/>
    </contour>
  </outline>
</glyph>
<glyph name="ordmasculine" format="2">
  <advance width="838"/>
  <unicode hex="00BA"/>
  <outline>
    <contour>
      <point x="42" y="769" type="line"/>
      <point x="42" y="1120" type="line" smooth="yes"/>
      <point x="42" y="1205"/>
      <point x="137" y="1285"/>
      <point x="242" y="1285" type="qcurve" smooth="yes"/>
      <point x="596" y="1285" type="line" smooth="yes"/>
      <point x="701" y="1285"/>
      <point x="796" y="1205"/>
      <point x="796" y="1120" type="qcurve" smooth="yes"/>
      <point x="796" y="769" type="line" smooth="yes"/>
      <point x="796" y="679"/>
      <point x="702" y="597"/>
      <point x="596" y="597" type="qcurve" smooth="yes"/>
      <point x="242" y="597" type="line" smooth="yes"/>
      <point x="136" y="597"/>
      <point x="42" y="678"/>
      <point x="42" y="769" type="qcurve"/>
    </contour>
    <contour>
      <point x="382" y="629" type="line"/>
      <point x="382" y="629"/>
      <point x="382" y="629"/>
      <point x="382" y="629" type="qcurve"/>
      <point x="456" y="629" type="line"/>
      <point x="456" y="629"/>
      <point x="456" y="629"/>
      <point x="456" y="629" type="qcurve"/>
      <point x="456" y="1253" type="line"/>
      <point x="456" y="1253"/>
      <point x="456" y="1253"/>
      <point x="456" y="1253" type="qcurve"/>
      <point x="382" y="1253" type="line"/>
      <point x="382" y="1253"/>
      <point x="382" y="1253"/>
      <point x="382" y="1253" type="qcurve"/>
    </contour>
  </outline>
</glyph>
<glyph name="AE" format="1">
  <advance width="1655"/>
  <unicode hex="00C6"/>
  <outline>
    <contour>
      <point x="110" y="298" type="line"/>
      <point x="122" y="334" type="line"/>
      <point x="802" y="334" type="line"/>
      <point x="802" y="298" type="line"/>
    </contour>
    <contour>
      <point x="-10" y="0" type="line"/>
      <point x="447" y="1400" type="line"/>
      <point x="800" y="1400" type="line"/>
      <point x="800" y="1364" type="line"/>
      <point x="476" y="1364" type="line"/>
      <point x="32" y="0" type="line"/>
    </contour>
    <contour>
      <point x="635" y="0" type="line"/>
      <point x="635" y="1400" type="line"/>
      <point x="1631" y="1400" type="line"/>
      <point x="1631" y="1364" type="line"/>
      <point x="1207" y="1364" type="line"/>
      <point x="1207" y="736" type="line"/>
      <point x="1591" y="736" type="line"/>
      <point x="1591" y="700" type="line"/>
      <point x="1207" y="700" type="line"/>
      <point x="1207" y="36" type="line"/>
      <point x="1645" y="36" type="line"/>
      <point x="1645" y="0" type="line"/>
    </contour>
    <contour>
      <point x="1825" y="1550" type="move" name="top"/>
    </contour>
    <contour>
      <point x="1825" y="-150" type="move" name="bottom"/>
    </contour>
  </outline>
</glyph>
<glyph name="Eth" format="1">
  <advance width="1383"/>
  <unicode hex="00D0"/>
  <outline>
    <contour>
      <point x="38.53" y="720" type="line"/>
      <point x="707.53" y="720" type="line"/>
      <point x="707.53" y="688" type="line"/>
      <point x="38.53" y="688" type="line"/>
    </contour>
    <contour>
      <point x="660" y="36" type="line"/>
      <point x="670" y="36" type="line" smooth="yes"/>
      <point x="741" y="36"/>
      <point x="779" y="231"/>
      <point x="779" y="716" type="curve" smooth="yes"/>
      <point x="779" y="1193"/>
      <point x="737" y="1364"/>
      <point x="670" y="1364" type="curve" smooth="yes"/>
      <point x="660" y="1364" type="line"/>
    </contour>
    <contour>
      <point x="88" y="0" type="line"/>
      <point x="88" y="1400" type="line"/>
      <point x="675" y="1400" type="line" smooth="yes"/>
      <point x="1118" y="1400"/>
      <point x="1355" y="1172"/>
      <point x="1355" y="700" type="curve" smooth="yes"/>
      <point x="1355" y="198"/>
      <point x="1075" y="0"/>
      <point x="675" y="0" type="curve" smooth="yes"/>
    </contour>
    <contour>
      <point x="622" y="1550" type="move" name="top"/>
    </contour>
    <contour>
      <point x="622" y="-150" type="move" name="bottom"/>
    </contour>
  </outline>
</glyph>
<glyph name="multiply" format="2">
  <advance width="523"/>
  <unicode hex="00D7"/>
  <outline>
    <contour>
      <point x="82" y="297" type="line"/>
      <point x="52" y="318" type="line"/>
      <point x="239" y="587" type="line"/>
      <point x="52" y="856" type="line"/>
      <point x="83" y="878" type="line"/>
      <point x="262" y="621" type="line"/>
      <point x="440" y="878" type="line"/>
      <point x="471" y="856" type="line"/>
      <point x="284" y="588" type="line"/>
      <point x="471" y="319" type="line"/>
      <point x="440" y="297" type="line"/>
      <point x="261" y="555" type="line"/>
      <point x="82" y="297" type="line"/>
    </contour>
  </outline>
  <guideline angle="34.3869" color="1,0,0,1" x="70" y="140"/>
  <guideline angle="325.644" color="1,0,0,1" x="49" y="1003"/>
</glyph>
<glyph name="Oslash" format="2">
  <advance width="1372"/>
  <unicode hex="00D8"/>
  <anchor x="686" y="1580" name="top"/>
  <outline>
    <contour>
      <point x="64" y="1076" type="line"/>
      <point x="64" y="336" type="line" smooth="yes"/>
      <point x="64" y="233"/>
      <point x="119" y="99"/>
      <point x="224" y="21"/>
      <point x="377" y="-10"/>
      <point x="476" y="-10" type="qcurve" smooth="yes"/>
      <point x="894" y="-10" type="line" smooth="yes"/>
      <point x="993" y="-10"/>
      <point x="1147" y="21"/>
      <point x="1253" y="99"/>
      <point x="1308" y="233"/>
      <point x="1308" y="336" type="qcurve" smooth="yes"/>
      <point x="1308" y="1076" type="line" smooth="yes"/>
      <point x="1308" y="1177"/>
      <point x="1250" y="1306"/>
      <point x="1142" y="1381"/>
      <point x="989" y="1410"/>
      <point x="894" y="1410" type="qcurve" smooth="yes"/>
      <point x="476" y="1410" type="line" smooth="yes"/>
      <point x="382" y="1410"/>
      <point x="229" y="1381"/>
      <point x="122" y="1306"/>
      <point x="64" y="1177"/>
      <point x="64" y="1076" type="qcurve"/>
    </contour>
    <contour>
      <point x="636" y="1374" type="line"/>
      <point x="636" y="1374"/>
      <point x="636" y="1374"/>
      <point x="636" y="1374"/>
      <point x="636" y="1374"/>
      <point x="636" y="1374" type="qcurve"/>
      <point x="736" y="1374" type="line"/>
      <point x="736" y="1374"/>
      <point x="736" y="1374"/>
      <point x="736" y="1374"/>
      <point x="736" y="1374"/>
      <point x="736" y="1374" type="qcurve"/>
      <point x="736" y="26" type="line"/>
      <point x="736" y="26"/>
      <point x="736" y="26"/>
      <point x="736" y="26"/>
      <point x="736" y="26"/>
      <point x="736" y="26" type="qcurve"/>
      <point x="636" y="26" type="line"/>
      <point x="636" y="26"/>
      <point x="636" y="26"/>
      <point x="636" y="26"/>
      <point x="636" y="26"/>
      <point x="636" y="26" type="qcurve"/>
    </contour>
    <contour>
      <point x="61" y="-30" type="line"/>
      <point x="226" y="159" type="line"/>
      <point x="445" y="314" type="line"/>
      <point x="973" y="1049" type="line"/>
      <point x="1182" y="1228" type="line"/>
      <point x="1338" y="1405" type="line"/>
      <point x="1311" y="1430" type="line"/>
      <point x="1157" y="1253" type="line"/>
      <point x="944" y="1070" type="line"/>
      <point x="419" y="339" type="line"/>
      <point x="206" y="191" type="line"/>
      <point x="34" y="-6" type="line"/>
    </contour>
  </outline>
  <guideline y="-30"/>
  <guideline y="-30"/>
  <guideline y="1430"/>
</glyph>
<glyph name="Thorn" format="1">
  <advance width="1386"/>
  <unicode hex="00DE"/>
  <outline>
    <contour>
      <point x="80" y="0" type="line"/>
      <point x="652" y="0" type="line"/>
      <point x="652" y="281" type="line"/>
      <point x="902" y="281" type="line" smooth="yes"/>
      <point x="1154" y="281"/>
      <point x="1316" y="347"/>
      <point x="1316" y="615" type="curve" smooth="yes"/>
      <point x="1316" y="827" type="line" smooth="yes"/>
      <point x="1316" y="1095"/>
      <point x="1154" y="1161"/>
      <point x="902" y="1161" type="curve" smooth="yes"/>
      <point x="652" y="1161" type="line"/>
      <point x="652" y="1400" type="line"/>
      <point x="80" y="1400" type="line"/>
    </contour>
    <contour>
      <point x="652" y="317" type="line"/>
      <point x="652" y="1125" type="line"/>
      <point x="684" y="1125" type="line" smooth="yes"/>
      <point x="736" y="1125"/>
      <point x="760" y="1101"/>
      <point x="760" y="1065" type="curve" smooth="yes"/>
      <point x="760" y="377" type="line" smooth="yes"/>
      <point x="760" y="341"/>
      <point x="736" y="317"/>
      <point x="684" y="317" type="curve" smooth="yes"/>
    </contour>
  </outline>
</glyph>
<glyph name="germandbls" format="2">
  <advance width="1258"/>
  <unicode hex="00DF"/>
  <outline>
    <contour>
      <point x="638" y="942" type="line"/>
      <point x="906" y="942" type="line" smooth="yes"/>
      <point x="987" y="942"/>
      <point x="1103" y="973"/>
      <point x="1177" y="1037"/>
      <point x="1212" y="1137"/>
      <point x="1212" y="1206" type="qcurve" smooth="yes"/>
      <point x="1212" y="1224" type="line" smooth="yes"/>
      <point x="1212" y="1355"/>
      <point x="1065" y="1478"/>
      <point x="906" y="1478" type="qcurve" smooth="yes"/>
      <point x="370" y="1478" type="line" smooth="yes"/>
      <point x="291" y="1478"/>
      <point x="175" y="1448"/>
      <point x="100" y="1385"/>
      <point x="64" y="1289"/>
      <point x="64" y="1224" type="qcurve" smooth="yes"/>
      <point x="64" y="0" type="line"/>
      <point x="588" y="0" type="line"/>
      <point x="588" y="1446" type="line"/>
      <point x="588" y="1446"/>
      <point x="588" y="1446"/>
      <point x="588" y="1446" type="qcurve"/>
      <point x="688" y="1446" type="line"/>
      <point x="688" y="1446"/>
      <point x="688" y="1446"/>
      <point x="688" y="1446" type="qcurve"/>
      <point x="688" y="974" type="line"/>
      <point x="688" y="974"/>
      <point x="688" y="974"/>
      <point x="688" y="974" type="qcurve"/>
      <point x="638" y="974" type="line"/>
    </contour>
    <contour>
      <point x="628" y="-10" type="line"/>
      <point x="934" y="-10" type="line" smooth="yes"/>
      <point x="999" y="-10"/>
      <point x="1102" y="9"/>
      <point x="1174" y="60"/>
      <point x="1212" y="150"/>
      <point x="1212" y="222" type="qcurve" smooth="yes"/>
      <point x="1212" y="752" type="line" smooth="yes"/>
      <point x="1212" y="823"/>
      <point x="1172" y="910"/>
      <point x="1099" y="958"/>
      <point x="996" y="974"/>
      <point x="934" y="974" type="qcurve" smooth="yes"/>
      <point x="638" y="974" type="line"/>
      <point x="638" y="942" type="line"/>
      <point x="688" y="942" type="line"/>
      <point x="688" y="942"/>
      <point x="688" y="942"/>
      <point x="688" y="942" type="qcurve"/>
      <point x="688" y="22" type="line"/>
      <point x="688" y="22"/>
      <point x="688" y="22"/>
      <point x="688" y="22" type="qcurve"/>
      <point x="628" y="22" type="line"/>
    </contour>
  </outline>
</glyph>
<glyph name="ae" format="1">
  <advance width="1910"/>
  <unicode hex="00E6"/>
  <outline>
    <contour>
      <point x="48" y="762" type="line"/>
      <point x="572" y="696" type="line"/>
      <point x="572" y="998" type="line"/>
      <point x="572" y="998"/>
      <point x="572" y="998"/>
      <point x="572" y="998" type="curve"/>
      <point x="680" y="998" type="line"/>
      <point x="680" y="998"/>
      <point x="680" y="998"/>
      <point x="680" y="998" type="curve"/>
      <point x="680" y="562" type="line"/>
      <point x="376" y="562" type="line" smooth="yes"/>
      <point x="200" y="562"/>
      <point x="38" y="528"/>
      <point x="38" y="340" type="curve" smooth="yes"/>
      <point x="38" y="226" type="line" smooth="yes"/>
      <point x="38" y="34"/>
      <point x="202" y="-6"/>
      <point x="376" y="-6" type="curve" smooth="yes"/>
      <point x="680" y="-6" type="line" smooth="yes"/>
      <point x="887" y="-6"/>
      <point x="1022" y="81"/>
      <point x="1022" y="266" type="curve"/>
      <point x="879" y="266" type="line"/>
      <point x="879" y="86"/>
      <point x="1005" y="-6"/>
      <point x="1204" y="-6" type="curve" smooth="yes"/>
      <point x="1463" y="-6" type="line" smooth="yes"/>
      <point x="1635" y="-6"/>
      <point x="1839" y="34"/>
      <point x="1839" y="226" type="curve" smooth="yes"/>
      <point x="1839" y="268" type="line"/>
      <point x="1320" y="336" type="line"/>
      <point x="1320" y="26" type="line"/>
      <point x="1320" y="26"/>
      <point x="1320" y="26"/>
      <point x="1320" y="26" type="curve"/>
      <point x="1204" y="26" type="line"/>
      <point x="1204" y="26"/>
      <point x="1204" y="26"/>
      <point x="1204" y="26" type="curve"/>
      <point x="1204" y="499" type="line"/>
      <point x="1844" y="499" type="line"/>
      <point x="1844" y="733" type="line" smooth="yes"/>
      <point x="1844" y="956"/>
      <point x="1628" y="1030"/>
      <point x="1462" y="1030" type="curve" smooth="yes"/>
      <point x="1204" y="1030" type="line" smooth="yes"/>
      <point x="1007" y="1030"/>
      <point x="879" y="943"/>
      <point x="879" y="766" type="curve"/>
      <point x="1022" y="766" type="line"/>
      <point x="1022" y="948"/>
      <point x="886" y="1030"/>
      <point x="680" y="1030" type="curve" smooth="yes"/>
      <point x="406" y="1030" type="line" smooth="yes"/>
      <point x="240" y="1030"/>
      <point x="48" y="992"/>
      <point x="48" y="808" type="curve" smooth="yes"/>
    </contour>
    <contour>
      <point x="678" y="530" type="line"/>
      <point x="678" y="26" type="line"/>
      <point x="678" y="26"/>
      <point x="678" y="26"/>
      <point x="678" y="26" type="curve"/>
      <point x="562" y="26" type="line"/>
      <point x="562" y="26"/>
      <point x="562" y="26"/>
      <point x="562" y="26" type="curve"/>
      <point x="562" y="530" type="line"/>
      <point x="562" y="530"/>
      <point x="562" y="530"/>
      <point x="562" y="530" type="curve"/>
    </contour>
    <contour>
      <point x="1202" y="531" type="line"/>
      <point x="1202" y="998" type="line"/>
      <point x="1202" y="998"/>
      <point x="1202" y="998"/>
      <point x="1202" y="998" type="curve"/>
      <point x="1320" y="998" type="line"/>
      <point x="1320" y="998"/>
      <point x="1320" y="998"/>
      <point x="1320" y="998" type="curve"/>
      <point x="1320" y="531" type="line"/>
    </contour>
    <contour>
      <point x="2080" y="1174" type="move" name="top"/>
    </contour>
    <contour>
      <point x="2080" y="-150" type="move" name="bottom"/>
    </contour>
  </outline>
</glyph>
<glyph name="eth" format="1">
  <advance width="1366"/>
  <unicode hex="00F0"/>
  <outline>
    <contour>
      <point x="258" y="1328" type="line"/>
      <point x="622" y="1256"/>
      <point x="694" y="1038"/>
      <point x="694" y="566" type="curve"/>
      <point x="1218" y="610" type="line"/>
      <point x="1218" y="1136"/>
      <point x="1018" y="1401"/>
      <point x="614" y="1458" type="curve"/>
    </contour>
    <contour>
      <point x="70" y="776" type="curve" smooth="yes"/>
      <point x="70" y="258" type="line" smooth="yes"/>
      <point x="70" y="74"/>
      <point x="162" y="-6"/>
      <point x="376" y="-6" type="curve" smooth="yes"/>
      <point x="912" y="-6" type="line" smooth="yes"/>
      <point x="1128" y="-6"/>
      <point x="1218" y="74"/>
      <point x="1218" y="258" type="curve" smooth="yes"/>
      <point x="1218" y="610" type="line"/>
      <point x="694" y="1030" type="line"/>
      <point x="376" y="1030" type="line" smooth="yes"/>
      <point x="164" y="1030"/>
      <point x="70" y="950"/>
    </contour>
    <contour>
      <point x="594" y="998" type="line"/>
      <point x="594" y="998"/>
      <point x="594" y="998"/>
      <point x="594" y="998" type="curve"/>
      <point x="694" y="998" type="line"/>
      <point x="694" y="960" type="line"/>
      <point x="694" y="26" type="line"/>
      <point x="694" y="26"/>
      <point x="694" y="26"/>
      <point x="694" y="26" type="curve"/>
      <point x="594" y="26" type="line"/>
      <point x="594" y="26"/>
      <point x="594" y="26"/>
      <point x="594" y="26" type="curve"/>
    </contour>
    <contour>
      <point x="232" y="1168" type="line"/>
      <point x="239" y="1136" type="line"/>
      <point x="1296" y="1358" type="line"/>
      <point x="1289" y="1390" type="line"/>
    </contour>
  </outline>
</glyph>
<glyph name="divide" format="1">
  <advance width="1034"/>
  <unicode hex="00F7"/>
  <outline>
    <component base="uni2212"/>
    <contour>
      <point x="365" y="212" type="curve" smooth="yes"/>
      <point x="365" y="321" type="line" smooth="yes"/>
      <point x="365" y="436"/>
      <point x="367" y="438"/>
      <point x="484" y="438" type="curve" smooth="yes"/>
      <point x="550" y="438" type="line" smooth="yes"/>
      <point x="667" y="438"/>
      <point x="670" y="436"/>
      <point x="670" y="321" type="curve" smooth="yes"/>
      <point x="670" y="212" type="line" smooth="yes"/>
      <point x="670" y="95"/>
      <point x="667" y="93"/>
      <point x="550" y="93" type="curve" smooth="yes"/>
      <point x="484" y="93" type="line" smooth="yes"/>
      <point x="367" y="93"/>
      <point x="365" y="95"/>
    </contour>
    <contour>
      <point x="365" y="935" type="curve" smooth="yes"/>
      <point x="365" y="1044" type="line" smooth="yes"/>
      <point x="365" y="1159"/>
      <point x="367" y="1161"/>
      <point x="484" y="1161" type="curve" smooth="yes"/>
      <point x="550" y="1161" type="line" smooth="yes"/>
      <point x="667" y="1161"/>
      <point x="670" y="1159"/>
      <point x="670" y="1044" type="curve" smooth="yes"/>
      <point x="670" y="935" type="line" smooth="yes"/>
      <point x="670" y="818"/>
      <point x="667" y="816"/>
      <point x="550" y="816" type="curve" smooth="yes"/>
      <point x="484" y="816" type="line" smooth="yes"/>
      <point x="367" y="816"/>
      <point x="365" y="818"/>
    </contour>
  </outline>
</glyph>
<glyph name="oslash" format="1">
  <advance width="1288" height="1448"/>
  <unicode hex="00F8"/>
  <outline>
    <component base="o.alt.1"/>
    <contour>
      <point x="125" y="-41" type="line"/>
      <point x="96" y="-16" type="line"/>
      <point x="1166" y="1066" type="line"/>
      <point x="1192" y="1040" type="line"/>
    </contour>
    <contour>
      <point x="597" y="1206" type="move" name="top"/>
    </contour>
    <contour>
      <point x="597" y="-182" type="move" name="bottom"/>
    </contour>
  </outline>
</glyph>
<glyph name="Hbar" format="1">
  <advance width="1520"/>
  <unicode hex="0126"/>
  <outline>
    <contour>
      <point x="138" y="0" type="line"/>
      <point x="710" y="0" type="line"/>
      <point x="710" y="1400" type="line"/>
      <point x="138" y="1400" type="line"/>
    </contour>
    <contour>
      <point x="810" y="0" type="line"/>
      <point x="1382" y="0" type="line"/>
      <point x="1382" y="1400" type="line"/>
      <point x="810" y="1400" type="line"/>
    </contour>
    <contour>
      <point x="680" y="710" type="line"/>
      <point x="840" y="710" type="line"/>
      <point x="840" y="746" type="line"/>
      <point x="680" y="746" type="line"/>
    </contour>
    <contour>
      <point x="38" y="1034" type="line"/>
      <point x="1482" y="1034" type="line"/>
      <point x="1482" y="1066" type="line"/>
      <point x="38" y="1066" type="line"/>
    </contour>
    <contour>
      <point x="760" y="1550" type="move" name="top"/>
    </contour>
    <contour>
      <point x="760" y="-150" type="move" name="bottom"/>
    </contour>
    <contour>
      <point x="38" y="700" type="move" name="left"/>
    </contour>
  </outline>
</glyph>
<glyph name="hbar" format="1">
  <advance width="1348"/>
  <unicode hex="0127"/>
  <outline>
    <contour>
      <point x="130" y="0" type="line"/>
      <point x="130" y="1472" type="line"/>
      <point x="654" y="1472" type="line"/>
      <point x="654" y="996" type="line"/>
      <point x="668" y="1014"/>
      <point x="694" y="1024"/>
      <point x="730" y="1024" type="curve" smooth="yes"/>
      <point x="912" y="1024" type="line" smooth="yes"/>
      <point x="1172" y="1024"/>
      <point x="1278" y="930"/>
      <point x="1278" y="724" type="curve" smooth="yes"/>
      <point x="1278" y="0" type="line"/>
      <point x="754" y="0" type="line"/>
      <point x="754" y="992" type="line"/>
      <point x="754" y="992"/>
      <point x="754" y="992"/>
      <point x="754" y="992" type="curve"/>
      <point x="654" y="992" type="line"/>
      <point x="654" y="0" type="line"/>
    </contour>
    <contour>
      <point x="30" y="1267.2" type="line"/>
      <point x="912" y="1267.2" type="line"/>
      <point x="912" y="1235.2" type="line"/>
      <point x="30" y="1235.2" type="line"/>
    </contour>
    <contour>
      <point x="392" y="1622" type="move" name="top"/>
    </contour>
    <contour>
      <point x="704" y="-150" type="move" name="bottom"/>
    </contour>
    <contour>
      <point x="30" y="512" type="move" name="left"/>
    </contour>
  </outline>
</glyph>
<glyph name="dotlessi" format="1">
  <advance width="692"/>
  <unicode hex="0131"/>
  <outline>
    <contour>
      <point x="80" y="0" type="line"/>
      <point x="604" y="0" type="line"/>
      <point x="604" y="1024" type="line"/>
      <point x="80" y="1024" type="line"/>
    </contour>
    <contour>
      <point x="342" y="-150" type="move" name="bottom"/>
    </contour>
    <contour>
      <point x="342" y="1174" type="move" name="top"/>
    </contour>
  </outline>
</glyph>
<glyph name="Lslash" format="2">
  <advance width="1030"/>
  <unicode hex="0141"/>
  <outline>
    <contour>
      <point x="88" y="0" type="line"/>
      <point x="88" y="1400" type="line"/>
      <point x="660" y="1400" type="line"/>
      <point x="660" y="36" type="line"/>
      <point x="1020" y="36" type="line"/>
      <point x="1020" y="0" type="line"/>
    </contour>
    <contour>
      <point x="883" y="834" type="line"/>
      <point x="883" y="798" type="line"/>
      <point x="5" y="479" type="line"/>
      <point x="5" y="515" type="line"/>
    </contour>
  </outline>
</glyph>
<glyph name="lslash" format="2">
  <advance width="684"/>
  <unicode hex="0142"/>
  <outline>
    <contour>
      <point x="80" y="0" type="line"/>
      <point x="604" y="0" type="line"/>
      <point x="604" y="1472" type="line"/>
      <point x="80" y="1472" type="line"/>
    </contour>
    <contour>
      <point x="674" y="843" type="line"/>
      <point x="10" y="602" type="line"/>
      <point x="10" y="566" type="line"/>
      <point x="674" y="807" type="line"/>
    </contour>
  </outline>
  <guideline y="724"/>
</glyph>
<glyph name="Eng" format="2">
  <advance width="1144"/>
  <unicode hex="014A"/>
  <outline>
    <contour>
      <point x="80" y="0" type="line"/>
      <point x="116" y="0" type="line"/>
      <point x="116" y="732" type="line"/>
      <point x="1028" y="-140" type="line"/>
      <point x="1064" y="0" type="line"/>
      <point x="1064" y="1400" type="line"/>
      <point x="1028" y="1400" type="line"/>
      <point x="1028" y="659" type="line"/>
      <point x="258" y="1400" type="line"/>
      <point x="80" y="1400" type="line"/>
    </contour>
    <contour>
      <point x="572" y="-396" type="line"/>
      <point x="582" y="-428" type="line"/>
      <point x="902" y="-428" type="line" smooth="yes"/>
      <point x="941" y="-428"/>
      <point x="1002" y="-407"/>
      <point x="1043" y="-366"/>
      <point x="1064" y="-305"/>
      <point x="1064" y="-266" type="qcurve" smooth="yes"/>
      <point x="1064" y="0" type="line"/>
      <point x="1028" y="0" type="line"/>
      <point x="1028" y="-260" type="line" smooth="yes"/>
      <point x="1028" y="-326"/>
      <point x="969" y="-396"/>
      <point x="902" y="-396" type="qcurve" smooth="yes"/>
    </contour>
  </outline>
  <guideline x="572"/>
</glyph>
<glyph name="eng" format="2">
  <advance width="1278"/>
  <unicode hex="014B"/>
  <anchor x="817" y="1174" name="top"/>
  <anchor x="646" y="-150" name="bottom"/>
  <anchor x="-28" y="512" name="left"/>
  <outline>
    <contour>
      <point x="72" y="0" type="line"/>
      <point x="596" y="0" type="line"/>
      <point x="596" y="992" type="line"/>
      <point x="696" y="992" type="line"/>
      <point x="696" y="992"/>
      <point x="696" y="992"/>
      <point x="696" y="992" type="qcurve"/>
      <point x="696" y="-396" type="line"/>
      <point x="696" y="-396"/>
      <point x="696" y="-396"/>
      <point x="696" y="-396" type="qcurve"/>
      <point x="334" y="-396" type="line"/>
      <point x="344" y="-428" type="line"/>
      <point x="960" y="-428" type="line" smooth="yes"/>
      <point x="1019" y="-428"/>
      <point x="1114" y="-381"/>
      <point x="1183" y="-296"/>
      <point x="1220" y="-176"/>
      <point x="1220" y="-102" type="qcurve" smooth="yes"/>
      <point x="1220" y="724" type="line" smooth="yes"/>
      <point x="1220" y="801"/>
      <point x="1179" y="914"/>
      <point x="1090" y="988"/>
      <point x="952" y="1024"/>
      <point x="854" y="1024" type="qcurve" smooth="yes"/>
      <point x="672" y="1024" type="line" smooth="yes"/>
      <point x="645" y="1024"/>
      <point x="607" y="1010"/>
      <point x="596" y="996" type="qcurve"/>
      <point x="596" y="1024" type="line"/>
      <point x="72" y="1024" type="line"/>
    </contour>
  </outline>
  <guideline x="646" color="1,0,0,1"/>
  <guideline x="334" color="1,0,0,1"/>
</glyph>
<glyph name="OE" format="1">
  <advance width="1770"/>
  <unicode hex="0152"/>
  <outline>
    <contour>
      <point x="78" y="1076" type="curve" smooth="yes"/>
      <point x="78" y="336" type="line" smooth="yes"/>
      <point x="78" y="62"/>
      <point x="226" y="0"/>
      <point x="490" y="0" type="curve"/>
      <point x="1322" y="0" type="line"/>
      <point x="1322" y="1400" type="line"/>
      <point x="490" y="1400" type="line"/>
      <point x="238" y="1400"/>
      <point x="78" y="1344"/>
    </contour>
    <contour>
      <point x="650" y="1374" type="line"/>
      <point x="650" y="1374"/>
      <point x="650" y="1374"/>
      <point x="650" y="1374" type="curve"/>
      <point x="750" y="1374" type="line"/>
      <point x="750" y="26" type="line"/>
      <point x="650" y="26" type="line"/>
      <point x="650" y="26"/>
      <point x="650" y="26"/>
      <point x="650" y="26" type="curve"/>
    </contour>
    <contour>
      <point x="1760" y="0" type="line"/>
      <point x="1760" y="26" type="line"/>
      <point x="1322" y="26" type="line"/>
      <point x="1322" y="700" type="line"/>
      <point x="1706" y="700" type="line"/>
      <point x="1706" y="736" type="line"/>
      <point x="1322" y="736" type="line"/>
      <point x="1322" y="1374" type="line"/>
      <point x="1746" y="1374" type="line"/>
      <point x="1746" y="1400" type="line"/>
      <point x="750" y="1400" type="line"/>
      <point x="750" y="0" type="line"/>
    </contour>
  </outline>
</glyph>
<glyph name="oe" format="1">
  <advance width="1942"/>
  <unicode hex="0153"/>
  <outline>
    <contour>
      <point x="1234" y="531" type="line"/>
      <point x="1234" y="998" type="line"/>
      <point x="1234" y="998"/>
      <point x="1234" y="998"/>
      <point x="1234" y="998" type="curve"/>
      <point x="1352" y="998" type="line"/>
      <point x="1352" y="998"/>
      <point x="1352" y="998"/>
      <point x="1352" y="998" type="curve"/>
      <point x="1352" y="531" type="line"/>
    </contour>
    <contour>
      <point x="70" y="226" type="line"/>
      <point x="70" y="34"/>
      <point x="234" y="-6"/>
      <point x="408" y="-6" type="curve" smooth="yes"/>
      <point x="712" y="-6" type="line" smooth="yes"/>
      <point x="922.076" y="-6"/>
      <point x="1054" y="73.6714"/>
      <point x="1054" y="266" type="curve"/>
      <point x="911" y="266" type="line"/>
      <point x="911" y="77.8299"/>
      <point x="1034.23" y="-6"/>
      <point x="1236" y="-6" type="curve" smooth="yes"/>
      <point x="1495" y="-6" type="line" smooth="yes"/>
      <point x="1667" y="-6"/>
      <point x="1871" y="34"/>
      <point x="1871" y="226" type="curve" smooth="yes"/>
      <point x="1871" y="268" type="line"/>
      <point x="1352" y="336" type="line"/>
      <point x="1352" y="26" type="line"/>
      <point x="1352" y="26"/>
      <point x="1352" y="26"/>
      <point x="1352" y="26" type="curve"/>
      <point x="1236" y="26" type="line"/>
      <point x="1236" y="26"/>
      <point x="1236" y="26"/>
      <point x="1236" y="26" type="curve"/>
      <point x="1236" y="499" type="line"/>
      <point x="1876" y="499" type="line"/>
      <point x="1876" y="733" type="line" smooth="yes"/>
      <point x="1876" y="956"/>
      <point x="1660" y="1030"/>
      <point x="1494" y="1030" type="curve" smooth="yes"/>
      <point x="1236" y="1030" type="line" smooth="yes"/>
      <point x="1035.51" y="1030"/>
      <point x="911" y="950.946"/>
      <point x="911" y="766" type="curve"/>
      <point x="1054" y="766" type="line"/>
      <point x="1054" y="955.244"/>
      <point x="920.855" y="1030"/>
      <point x="712" y="1030" type="curve" smooth="yes"/>
      <point x="408" y="1030" type="line" smooth="yes"/>
      <point x="242" y="1030"/>
      <point x="70" y="992"/>
      <point x="70" y="808" type="curve"/>
    </contour>
    <contour>
      <point x="594" y="26" type="curve"/>
      <point x="594" y="998" type="line"/>
      <point x="594" y="998"/>
      <point x="594" y="998"/>
      <point x="594" y="998" type="curve"/>
      <point x="712" y="998" type="line"/>
      <point x="712" y="998"/>
      <point x="712" y="998"/>
      <point x="712" y="998" type="curve"/>
      <point x="712" y="26" type="line"/>
      <point x="712" y="26"/>
      <point x="710" y="26"/>
      <point x="710" y="26" type="curve"/>
      <point x="594" y="26" type="line"/>
      <point x="594" y="26"/>
      <point x="594" y="26"/>
    </contour>
    <contour>
      <point x="1944" y="1174" type="move" name="top"/>
    </contour>
    <contour>
      <point x="1944" y="-150" type="move" name="bottom"/>
    </contour>
  </outline>
</glyph>
<glyph name="Tbar" format="1">
  <advance width="1144"/>
  <unicode hex="0166"/>
  <outline>
    <component base="T"/>
    <contour>
      <point x="147.2" y="742" type="line"/>
      <point x="996.8" y="742" type="line"/>
      <point x="996.8" y="710" type="line"/>
      <point x="147.2" y="710" type="line"/>
    </contour>
    <contour>
      <point x="572" y="1550" type="move" name="top"/>
    </contour>
    <contour>
      <point x="572" y="-150" type="move" name="bottom"/>
    </contour>
  </outline>
</glyph>
<glyph name="uni018F" format="1">
  <advance width="1364"/>
  <unicode hex="018F"/>
  <outline>
    <contour>
      <point x="40" y="336" type="curve" smooth="yes"/>
      <point x="40" y="700" type="line"/>
      <point x="1286" y="700" type="line"/>
      <point x="1286" y="664" type="line"/>
      <point x="572" y="664" type="line"/>
      <point x="572" y="26" type="line"/>
      <point x="572" y="26"/>
      <point x="572" y="26"/>
      <point x="572" y="26" type="curve"/>
      <point x="714" y="26" type="line"/>
      <point x="714" y="26"/>
      <point x="714" y="26"/>
      <point x="714" y="26" type="curve"/>
      <point x="714" y="1374" type="line"/>
      <point x="714" y="1374"/>
      <point x="714" y="1374"/>
      <point x="714" y="1374" type="curve"/>
      <point x="618" y="1374" type="line"/>
      <point x="618" y="1374"/>
      <point x="618" y="1374"/>
      <point x="618" y="1374" type="curve"/>
      <point x="618" y="906" type="line"/>
      <point x="46" y="1010" type="line"/>
      <point x="46" y="1076" type="line" smooth="yes"/>
      <point x="46" y="1344"/>
      <point x="208" y="1410"/>
      <point x="460" y="1410" type="curve" smooth="yes"/>
      <point x="874" y="1410" type="line" smooth="yes"/>
      <point x="1126" y="1410"/>
      <point x="1286" y="1344"/>
      <point x="1286" y="1076" type="curve" smooth="yes"/>
      <point x="1286" y="336" type="line" smooth="yes"/>
      <point x="1286" y="62"/>
      <point x="1138" y="-10"/>
      <point x="874" y="-10" type="curve" smooth="yes"/>
      <point x="454" y="-10" type="line" smooth="yes"/>
      <point x="190" y="-10"/>
      <point x="40" y="60"/>
    </contour>
    <contour>
      <point x="662" y="1550" type="move" name="top"/>
    </contour>
    <contour>
      <point x="662" y="-150" type="move" name="bottom"/>
    </contour>
  </outline>
</glyph>
<glyph name="uni0237" format="2">
  <advance width="668"/>
  <unicode hex="0237"/>
  <anchor x="348" y="1174" name="top"/>
  <outline>
    <contour>
      <point x="-266" y="-396" type="line"/>
      <point x="-256" y="-428" type="line"/>
      <point x="350" y="-428" type="line" smooth="yes"/>
      <point x="409" y="-428"/>
      <point x="504" y="-381"/>
      <point x="573" y="-296"/>
      <point x="610" y="-176"/>
      <point x="610" y="-102" type="qcurve" smooth="yes"/>
      <point x="610" y="1024" type="line"/>
      <point x="86" y="1024" type="line"/>
      <point x="86" y="-396" type="line"/>
      <point x="86" y="-396"/>
      <point x="86" y="-396"/>
      <point x="86" y="-396" type="qcurve"/>
    </contour>
  </outline>
</glyph>
<glyph name="uni0302" format="1">
  <unicode hex="0302"/>
  <outline>
    <contour>
      <point x="-320" y="1100" type="line"/>
      <point x="-165" y="1448" type="line"/>
      <point x="149" y="1448" type="line"/>
      <point x="356" y="1100" type="line"/>
      <point x="2" y="1100" type="line"/>
      <point x="-147" y="1411" type="line"/>
      <point x="-285" y="1100" type="line"/>
    </contour>
    <contour>
      <point x="0" y="1150" type="move" name="_top"/>
    </contour>
  </outline>
</glyph>
<glyph name="tildecomb" format="1">
  <unicode hex="0303"/>
  <outline>
    <contour>
      <point x="-440" y="1111" type="line"/>
      <point x="-386" y="1390"/>
      <point x="-351" y="1482"/>
      <point x="-198" y="1482" type="curve" smooth="yes"/>
      <point x="4" y="1482"/>
      <point x="128" y="1382"/>
      <point x="306" y="1382" type="curve" smooth="yes"/>
      <point x="384" y="1382"/>
      <point x="403" y="1426"/>
      <point x="410" y="1452" type="curve"/>
      <point x="440" y="1447" type="line"/>
      <point x="386" y="1168"/>
      <point x="351" y="1076"/>
      <point x="198" y="1076" type="curve" smooth="yes"/>
      <point x="-4" y="1076"/>
      <point x="-128" y="1176"/>
      <point x="-306" y="1176" type="curve" smooth="yes"/>
      <point x="-389" y="1176"/>
      <point x="-403" y="1132"/>
      <point x="-410" y="1106" type="curve"/>
    </contour>
    <contour>
      <point x="0" y="1150" type="move" name="_top"/>
    </contour>
  </outline>
</glyph>
<glyph name="uni0308" format="1">
  <unicode hex="0308"/>
  <outline>
    <contour>
      <point x="-436" y="1220" type="line" smooth="yes"/>
      <point x="-436" y="1112"/>
      <point x="-434" y="1110"/>
      <point x="-326" y="1110" type="curve" smooth="yes"/>
      <point x="-194" y="1110" type="line" smooth="yes"/>
      <point x="-86" y="1110"/>
      <point x="-84" y="1112"/>
      <point x="-84" y="1220" type="curve" smooth="yes"/>
      <point x="-84" y="1342" type="line" smooth="yes"/>
      <point x="-84" y="1448"/>
      <point x="-86" y="1450"/>
      <point x="-194" y="1450" type="curve" smooth="yes"/>
      <point x="-326" y="1450" type="line" smooth="yes"/>
      <point x="-434" y="1450"/>
      <point x="-436" y="1448"/>
      <point x="-436" y="1342" type="curve" smooth="yes"/>
    </contour>
    <contour>
      <point x="84" y="1220" type="line" smooth="yes"/>
      <point x="84" y="1112"/>
      <point x="86" y="1110"/>
      <point x="194" y="1110" type="curve" smooth="yes"/>
      <point x="326" y="1110" type="line" smooth="yes"/>
      <point x="434" y="1110"/>
      <point x="436" y="1112"/>
      <point x="436" y="1220" type="curve" smooth="yes"/>
      <point x="436" y="1342" type="line" smooth="yes"/>
      <point x="436" y="1448"/>
      <point x="434" y="1450"/>
      <point x="326" y="1450" type="curve" smooth="yes"/>
      <point x="194" y="1450" type="line" smooth="yes"/>
      <point x="86" y="1450"/>
      <point x="84" y="1448"/>
      <point x="84" y="1342" type="curve" smooth="yes"/>
    </contour>
    <contour>
      <point x="0" y="1172" type="move" name="_top"/>
    </contour>
    <contour>
      <point x="0" y="1622" type="move" name="_bottom"/>
    </contour>
  </outline>
</glyph>
<glyph name="uni0309" format="2">
  <unicode hex="0309"/>
  <anchor x="0" y="1174" name="_top"/>
  <anchor x="-50" y="1100" name="_topright"/>
  <outline>
    <contour>
      <point x="-110" y="1100" type="line"/>
      <point x="27" y="1100" type="line"/>
      <point x="64" y="1114"/>
      <point x="131" y="1153"/>
      <point x="181" y="1205"/>
      <point x="211" y="1269"/>
      <point x="211" y="1307" type="qcurve" smooth="yes"/>
      <point x="211" y="1345"/>
      <point x="180" y="1409"/>
      <point x="125" y="1455"/>
      <point x="46" y="1480"/>
      <point x="-2" y="1480" type="qcurve" smooth="yes"/>
      <point x="-32" y="1480"/>
      <point x="-87" y="1470"/>
      <point x="-135" y="1455"/>
      <point x="-172" y="1435"/>
      <point x="-184" y="1424" type="qcurve"/>
      <point x="-167" y="1399" type="line"/>
      <point x="-155" y="1409"/>
      <point x="-129" y="1423"/>
      <point x="-115" y="1423" type="qcurve" smooth="yes"/>
      <point x="-83" y="1423"/>
      <point x="-56" y="1359"/>
      <point x="-56" y="1313" type="qcurve" smooth="yes"/>
      <point x="-56" y="1264"/>
      <point x="-83" y="1159"/>
      <point x="-110" y="1100" type="qcurve"/>
    </contour>
  </outline>
</glyph>
<glyph name="uni030A" format="1">
  <unicode hex="030A"/>
  <outline>
    <contour>
      <point x="-264" y="1268" type="curve" smooth="yes"/>
      <point x="-264" y="1142"/>
      <point x="-224" y="1125"/>
      <point x="0" y="1125" type="curve" smooth="yes"/>
      <point x="224" y="1125"/>
      <point x="264" y="1142"/>
      <point x="264" y="1268" type="curve" smooth="yes"/>
      <point x="264" y="1394"/>
      <point x="224" y="1411"/>
      <point x="0" y="1411" type="curve" smooth="yes"/>
      <point x="-224" y="1411"/>
      <point x="-264" y="1394"/>
    </contour>
    <contour>
      <point x="-50" y="1268" type="curve" smooth="yes"/>
      <point x="-50" y="1367"/>
      <point x="-44" y="1383"/>
      <point x="0" y="1383" type="curve" smooth="yes"/>
      <point x="44" y="1383"/>
      <point x="50" y="1367"/>
      <point x="50" y="1268" type="curve" smooth="yes"/>
      <point x="50" y="1171"/>
      <point x="44" y="1153"/>
      <point x="0" y="1153" type="curve" smooth="yes"/>
      <point x="-44" y="1153"/>
      <point x="-50" y="1171"/>
    </contour>
    <contour>
      <point x="0" y="1174" type="move" name="_top"/>
    </contour>
  </outline>
</glyph>
<glyph name="uni0326" format="1">
  <unicode hex="0326"/>
  <outline>
    <contour>
      <point x="-196" y="-376" type="curve" smooth="yes"/>
      <point x="-196" y="-214" type="line" smooth="yes"/>
      <point x="-196" y="-135"/>
      <point x="-180" y="-121"/>
      <point x="-92" y="-121" type="curve" smooth="yes"/>
      <point x="92" y="-121" type="line" smooth="yes"/>
      <point x="180" y="-121"/>
      <point x="196" y="-135"/>
      <point x="196" y="-214" type="curve" smooth="yes"/>
      <point x="196" y="-376" type="line" smooth="yes"/>
      <point x="196" y="-457"/>
      <point x="180" y="-471"/>
      <point x="92" y="-471" type="curve" smooth="yes"/>
      <point x="-92" y="-471" type="line" smooth="yes"/>
      <point x="-180" y="-471"/>
      <point x="-196" y="-457"/>
    </contour>
    <contour>
      <point x="-50" y="-699" type="curve"/>
      <point x="-50" y="-699"/>
      <point x="92" y="-457"/>
      <point x="92" y="-457" type="curve"/>
      <point x="181" y="-449" type="line"/>
      <point x="-30" y="-704" type="line"/>
      <point x="-30" y="-704"/>
      <point x="-50" y="-699"/>
    </contour>
    <contour>
      <point x="0" y="-150" type="move" name="_bottom"/>
    </contour>
  </outline>
</glyph>
<glyph name="uni0327" format="2">
  <unicode hex="0327"/>
  <anchor x="0" y="-150" name="_bottom"/>
  <outline>
    <contour>
      <point x="-63" y="0" type="line"/>
      <point x="-100" y="-104" type="line"/>
      <point x="-92" y="-101"/>
      <point x="-81" y="-99"/>
      <point x="-73" y="-99" type="qcurve" smooth="yes"/>
      <point x="-59" y="-99"/>
      <point x="-36" y="-117"/>
      <point x="-20" y="-154"/>
      <point x="-12" y="-209"/>
      <point x="-12" y="-245" type="qcurve" smooth="yes"/>
      <point x="-12" y="-282"/>
      <point x="-20" y="-340"/>
      <point x="-36" y="-381"/>
      <point x="-59" y="-403"/>
      <point x="-74" y="-403" type="qcurve" smooth="yes"/>
      <point x="-89" y="-403"/>
      <point x="-120" y="-383"/>
      <point x="-132" y="-366" type="qcurve"/>
      <point x="-159" y="-387" type="line"/>
      <point x="-144" y="-402"/>
      <point x="-117" y="-421"/>
      <point x="-86" y="-433"/>
      <point x="-48" y="-438"/>
      <point x="-23" y="-438" type="qcurve" smooth="yes"/>
      <point x="19" y="-438"/>
      <point x="99" y="-414"/>
      <point x="161" y="-366"/>
      <point x="199" y="-293"/>
      <point x="199" y="-245" type="qcurve" smooth="yes"/>
      <point x="199" y="-208"/>
      <point x="175" y="-149"/>
      <point x="128" y="-106"/>
      <point x="58" y="-81"/>
      <point x="11" y="-78" type="qcurve"/>
      <point x="39" y="0" type="line"/>
    </contour>
  </outline>
</glyph>
<glyph name="uni0328" format="2">
  <unicode hex="0328"/>
  <anchor x="0" y="-150" name="_bottom"/>
  <anchor x="-101" y="0" name="_ogonek"/>
  <outline>
    <contour>
      <point x="-101" y="0" type="line"/>
      <point x="-107" y="-10"/>
      <point x="-115" y="-28"/>
      <point x="-120" y="-46"/>
      <point x="-123" y="-63"/>
      <point x="-123" y="-71" type="qcurve" smooth="yes"/>
      <point x="-123" y="-98"/>
      <point x="-96" y="-141"/>
      <point x="-45" y="-173"/>
      <point x="29" y="-190"/>
      <point x="75" y="-190" type="qcurve" smooth="yes"/>
      <point x="98" y="-190"/>
      <point x="148" y="-186"/>
      <point x="195" y="-178"/>
      <point x="237" y="-167"/>
      <point x="252" y="-160" type="qcurve"/>
      <point x="198" y="-383" type="line"/>
      <point x="159" y="-404"/>
      <point x="76" y="-425"/>
      <point x="31" y="-425" type="qcurve" smooth="yes"/>
      <point x="-24" y="-425"/>
      <point x="-126" y="-396"/>
      <point x="-205" y="-347"/>
      <point x="-252" y="-283"/>
      <point x="-252" y="-249" type="qcurve"/>
      <point x="-239" y="-221"/>
      <point x="-210" y="-157"/>
      <point x="-180" y="-92"/>
      <point x="-151" y="-28"/>
      <point x="-138" y="0" type="qcurve"/>
    </contour>
  </outline>
</glyph>
<glyph name="uni0404" format="2">
  <advance width="1290"/>
  <unicode hex="0404"/>
  <anchor x="686" y="1550" name="top"/>
  <outline>
    <contour>
      <point x="476" y="-10" type="line"/>
      <point x="862" y="-10" type="line" smooth="yes"/>
      <point x="961" y="-10"/>
      <point x="1115" y="21"/>
      <point x="1221" y="99"/>
      <point x="1276" y="233"/>
      <point x="1276" y="336" type="qcurve" smooth="yes"/>
      <point x="1276" y="446" type="line"/>
      <point x="704" y="526" type="line"/>
      <point x="704" y="26" type="line"/>
      <point x="704" y="26"/>
      <point x="704" y="26"/>
      <point x="704" y="26"/>
      <point x="704" y="26"/>
      <point x="704" y="26" type="qcurve"/>
      <point x="636" y="26" type="line"/>
      <point x="636" y="26"/>
      <point x="636" y="26"/>
      <point x="636" y="26"/>
      <point x="636" y="26"/>
      <point x="636" y="26" type="qcurve"/>
      <point x="636" y="696" type="line"/>
      <point x="903" y="696" type="line"/>
      <point x="903" y="736" type="line"/>
      <point x="636" y="736" type="line"/>
      <point x="636" y="1374" type="line"/>
      <point x="636" y="1374"/>
      <point x="636" y="1374"/>
      <point x="636" y="1374"/>
      <point x="636" y="1374"/>
      <point x="636" y="1374" type="qcurve"/>
      <point x="698" y="1374" type="line"/>
      <point x="698" y="1374"/>
      <point x="698" y="1374"/>
      <point x="698" y="1374"/>
      <point x="698" y="1374"/>
      <point x="698" y="1374" type="qcurve"/>
      <point x="698" y="901" type="line"/>
      <point x="1270" y="981" type="line"/>
      <point x="1270" y="1076" type="line" smooth="yes"/>
      <point x="1270" y="1177"/>
      <point x="1212" y="1306"/>
      <point x="1104" y="1381"/>
      <point x="951" y="1410"/>
      <point x="856" y="1410" type="qcurve" smooth="yes"/>
      <point x="476" y="1410" type="line" smooth="yes"/>
      <point x="382" y="1410"/>
      <point x="229" y="1381"/>
      <point x="122" y="1306"/>
      <point x="64" y="1177"/>
      <point x="64" y="1076" type="qcurve" smooth="yes"/>
      <point x="64" y="336" type="line" smooth="yes"/>
      <point x="64" y="233"/>
      <point x="119" y="99"/>
      <point x="224" y="21"/>
      <point x="377" y="-10"/>
      <point x="476" y="-10" type="qcurve"/>
    </contour>
  </outline>
  <guideline x="873" color="1,0,0,1"/>
</glyph>
<glyph name="uni0409" format="1">
  <advance width="1916"/>
  <unicode hex="0409"/>
  <outline>
    <contour>
      <point x="-10" y="0" type="line"/>
      <point x="32" y="0" type="line"/>
      <point x="476" y="1364" type="line"/>
      <point x="800" y="1364" type="line"/>
      <point x="800" y="1400" type="line"/>
      <point x="447" y="1400" type="line"/>
    </contour>
    <contour>
      <point x="635" y="0" type="line"/>
      <point x="1460" y="0" type="line" smooth="yes"/>
      <point x="1709" y="0"/>
      <point x="1869" y="66"/>
      <point x="1869" y="334" type="curve" smooth="yes"/>
      <point x="1869" y="444" type="line" smooth="yes"/>
      <point x="1869" y="712"/>
      <point x="1711" y="778"/>
      <point x="1465" y="778" type="curve" smooth="yes"/>
      <point x="1207" y="778" type="line"/>
      <point x="1207" y="1400" type="line"/>
      <point x="635" y="1400" type="line"/>
    </contour>
    <contour>
      <point x="1207" y="36" type="line"/>
      <point x="1207" y="742" type="line"/>
      <point x="1232" y="742" type="line" smooth="yes"/>
      <point x="1277" y="742"/>
      <point x="1297" y="718"/>
      <point x="1297" y="682" type="curve" smooth="yes"/>
      <point x="1297" y="96" type="line" smooth="yes"/>
      <point x="1297" y="60"/>
      <point x="1277" y="36"/>
      <point x="1232" y="36" type="curve" smooth="yes"/>
    </contour>
  </outline>
</glyph>
<glyph name="uni040A" format="1">
  <advance width="2031"/>
  <unicode hex="040A"/>
  <outline>
    <contour>
      <point x="88" y="0" type="line"/>
      <point x="660" y="0" type="line"/>
      <point x="660" y="1400" type="line"/>
      <point x="88" y="1400" type="line"/>
    </contour>
    <contour>
      <point x="630" y="742" type="line"/>
      <point x="779" y="742" type="line"/>
      <point x="779" y="778" type="line"/>
      <point x="630" y="778" type="line"/>
    </contour>
    <contour>
      <point x="750" y="0" type="line"/>
      <point x="1575" y="0" type="line" smooth="yes"/>
      <point x="1824" y="0"/>
      <point x="1984" y="66"/>
      <point x="1984" y="334" type="curve" smooth="yes"/>
      <point x="1984" y="444" type="line" smooth="yes"/>
      <point x="1984" y="712"/>
      <point x="1826" y="778"/>
      <point x="1580" y="778" type="curve" smooth="yes"/>
      <point x="1322" y="778" type="line"/>
      <point x="1322" y="1400" type="line"/>
      <point x="750" y="1400" type="line"/>
    </contour>
    <contour>
      <point x="1322" y="36" type="line"/>
      <point x="1322" y="742" type="line"/>
      <point x="1347" y="742" type="line" smooth="yes"/>
      <point x="1392" y="742"/>
      <point x="1412" y="718"/>
      <point x="1412" y="682" type="curve" smooth="yes"/>
      <point x="1412" y="96" type="line" smooth="yes"/>
      <point x="1412" y="60"/>
      <point x="1392" y="36"/>
      <point x="1347" y="36" type="curve" smooth="yes"/>
    </contour>
  </outline>
</glyph>
<glyph name="uni040B" format="1">
  <advance width="1547"/>
  <unicode hex="040B"/>
  <outline>
    <contour>
      <point x="10" y="1364" type="line"/>
      <point x="1134" y="1364" type="line"/>
      <point x="1134" y="1400" type="line"/>
      <point x="10" y="1400" type="line"/>
    </contour>
    <contour>
      <point x="256" y="0" type="line"/>
      <point x="828" y="0" type="line"/>
      <point x="828" y="858" type="line"/>
      <point x="852" y="858" type="line" smooth="yes"/>
      <point x="904" y="858"/>
      <point x="928" y="834"/>
      <point x="928" y="798" type="curve" smooth="yes"/>
      <point x="928" y="0" type="line"/>
      <point x="1500" y="0" type="line"/>
      <point x="1500" y="560" type="line" smooth="yes"/>
      <point x="1500" y="828"/>
      <point x="1338" y="894"/>
      <point x="1086" y="894" type="curve" smooth="yes"/>
      <point x="828" y="894" type="line"/>
      <point x="828" y="1400" type="line"/>
      <point x="256" y="1400" type="line"/>
    </contour>
  </outline>
</glyph>
<glyph name="uni040F" format="1">
  <advance width="1410"/>
  <unicode hex="040F"/>
  <outline>
    <contour>
      <point x="750" y="0" type="line"/>
      <point x="1322" y="0" type="line"/>
      <point x="1322" y="1400" type="line"/>
      <point x="750" y="1400" type="line"/>
    </contour>
    <contour>
      <point x="88" y="0" type="line"/>
      <point x="660" y="0" type="line"/>
      <point x="660" y="1400" type="line"/>
      <point x="88" y="1400" type="line"/>
    </contour>
    <contour>
      <point x="630" y="0" type="line"/>
      <point x="750" y="0" type="line"/>
      <point x="750" y="36" type="line"/>
      <point x="630" y="36" type="line"/>
    </contour>
    <contour>
      <point x="555.85" y="-300" type="line"/>
      <point x="917.85" y="-300" type="line"/>
      <point x="917.85" y="36" type="line"/>
      <point x="461.85" y="36" type="line"/>
      <point x="461.85" y="0" type="line"/>
    </contour>
  </outline>
</glyph>
<glyph name="uni0411" format="1">
  <advance width="1383.8"/>
  <unicode hex="0411"/>
  <outline>
    <contour>
      <point x="88" y="0" type="line"/>
      <point x="923" y="0" type="line" smooth="yes"/>
      <point x="1175" y="0"/>
      <point x="1337" y="50"/>
      <point x="1337" y="253.03" type="curve" smooth="yes"/>
      <point x="1337" y="560" type="line" smooth="yes"/>
      <point x="1337" y="828"/>
      <point x="1175" y="894"/>
      <point x="923" y="894" type="curve" smooth="yes"/>
      <point x="660" y="894" type="line"/>
      <point x="660" y="1400" type="line"/>
      <point x="88" y="1400" type="line"/>
    </contour>
    <contour>
      <point x="660" y="36" type="line"/>
      <point x="660" y="858" type="line"/>
      <point x="689" y="858" type="line" smooth="yes"/>
      <point x="741" y="858"/>
      <point x="765" y="834"/>
      <point x="765" y="798" type="curve" smooth="yes"/>
      <point x="765" y="84.6207" type="line" smooth="yes"/>
      <point x="765" y="55.4483"/>
      <point x="741" y="36"/>
      <point x="689" y="36" type="curve" smooth="yes"/>
    </contour>
    <contour>
      <point x="374" y="1364" type="line"/>
      <point x="1260.8" y="1364" type="line"/>
      <point x="1260.8" y="1400" type="line"/>
      <point x="374" y="1400" type="line"/>
    </contour>
  </outline>
</glyph>
<glyph name="uni0413" format="1">
  <advance width="1002.04"/>
  <unicode hex="0413"/>
  <outline>
    <contour>
      <point x="88" y="0" type="line"/>
      <point x="660" y="0" type="line"/>
      <point x="660" y="1364" type="line"/>
      <point x="992.04" y="1364" type="line"/>
      <point x="992.04" y="1400" type="line"/>
      <point x="88" y="1400" type="line"/>
    </contour>
  </outline>
</glyph>
<glyph name="uni0414" format="1">
  <advance width="1675"/>
  <unicode hex="0414"/>
  <outline>
    <contour>
      <point x="262" y="0" type="line"/>
      <point x="306" y="0" type="line"/>
      <point x="632.118" y="910.242" type="line"/>
      <point x="613.427" y="910.749" type="line"/>
      <point x="885" y="0" type="line"/>
      <point x="1523" y="0" type="line"/>
      <point x="1009" y="1400" type="line"/>
      <point x="775" y="1400" type="line"/>
    </contour>
    <contour>
      <point x="20" y="-300" type="line"/>
      <point x="382" y="-300" type="line"/>
      <point x="476" y="0" type="line"/>
      <point x="1199" y="0" type="line"/>
      <point x="1293" y="-300" type="line"/>
      <point x="1655" y="-300" type="line"/>
      <point x="1655" y="36" type="line"/>
      <point x="1190.81" y="36" type="line"/>
      <point x="1190.81" y="36" type="line"/>
      <point x="297.191" y="36" type="line"/>
      <point x="297.191" y="36" type="line"/>
      <point x="20" y="36" type="line"/>
    </contour>
  </outline>
</glyph>
<glyph name="uni0416" format="1">
  <advance width="2201"/>
  <unicode hex="0416"/>
  <outline>
    <contour>
      <point x="1539" y="0" type="line"/>
      <point x="2201" y="0" type="line"/>
      <point x="1759" y="1106" type="line"/>
      <point x="1624" y="969" type="line"/>
      <point x="2115" y="1400" type="line"/>
      <point x="2058" y="1400" type="line"/>
      <point x="1338" y="767" type="line"/>
    </contour>
    <contour>
      <point x="814" y="0" type="line"/>
      <point x="1386" y="0" type="line"/>
      <point x="1386" y="1400" type="line"/>
      <point x="814" y="1400" type="line"/>
    </contour>
    <contour>
      <point x="863" y="767" type="line"/>
      <point x="143" y="1400" type="line"/>
      <point x="86" y="1400" type="line"/>
      <point x="577" y="969" type="line"/>
      <point x="442" y="1106" type="line"/>
      <point x="0" y="0" type="line"/>
      <point x="662" y="0" type="line"/>
    </contour>
    <contour>
      <point x="1100" y="1550" type="move" name="top"/>
    </contour>
    <contour>
      <point x="1100" y="-150" type="move" name="bottom"/>
    </contour>
  </outline>
</glyph>
<glyph name="uni0417" format="1">
  <advance width="1410"/>
  <unicode hex="0417"/>
  <outline>
    <contour>
      <point x="88" y="448" type="line"/>
      <point x="88" y="320" type="line" smooth="yes"/>
      <point x="88" y="66"/>
      <point x="234" y="0"/>
      <point x="476" y="0" type="curve" smooth="yes"/>
      <point x="918" y="0" type="line" smooth="yes"/>
      <point x="1170" y="0"/>
      <point x="1332" y="66"/>
      <point x="1332" y="334" type="curve" smooth="yes"/>
      <point x="1332" y="394" type="line" smooth="yes"/>
      <point x="1332" y="592"/>
      <point x="1257" y="680"/>
      <point x="1116" y="712" type="curve"/>
      <point x="1246" y="747"/>
      <point x="1316" y="836"/>
      <point x="1316" y="1026" type="curve" smooth="yes"/>
      <point x="1316" y="1066" type="line" smooth="yes"/>
      <point x="1316" y="1334"/>
      <point x="1154" y="1400"/>
      <point x="902" y="1400" type="curve" smooth="yes"/>
      <point x="476" y="1400" type="line" smooth="yes"/>
      <point x="214" y="1400"/>
      <point x="88" y="1296"/>
      <point x="88" y="1092" type="curve" smooth="yes"/>
      <point x="88" y="964" type="line"/>
      <point x="660" y="870" type="line"/>
      <point x="660" y="1364" type="line"/>
      <point x="660" y="1364"/>
      <point x="660" y="1364"/>
      <point x="660" y="1364" type="curve"/>
      <point x="684" y="1364" type="line" smooth="yes"/>
      <point x="736" y="1364"/>
      <point x="760" y="1340"/>
      <point x="760" y="1304" type="curve" smooth="yes"/>
      <point x="760" y="788" type="line" smooth="yes"/>
      <point x="760" y="752"/>
      <point x="736" y="728"/>
      <point x="684" y="728" type="curve" smooth="yes"/>
      <point x="404.88" y="728" type="line"/>
      <point x="404.88" y="692" type="line"/>
      <point x="700" y="692" type="line" smooth="yes"/>
      <point x="752" y="692"/>
      <point x="776" y="668"/>
      <point x="776" y="632" type="curve" smooth="yes"/>
      <point x="776" y="96" type="line" smooth="yes"/>
      <point x="776" y="60"/>
      <point x="752" y="36"/>
      <point x="700" y="36" type="curve" smooth="yes"/>
      <point x="660" y="36" type="line"/>
      <point x="660" y="36"/>
      <point x="660" y="36"/>
      <point x="660" y="36" type="curve"/>
      <point x="660" y="542" type="line"/>
    </contour>
  </outline>
</glyph>
<glyph name="uni0418" format="1">
  <advance width="1470"/>
  <unicode hex="0418"/>
  <outline>
    <contour>
      <point x="88" y="0" type="line"/>
      <point x="660" y="0" type="line"/>
      <point x="835.097" y="1282" type="line"/>
      <point x="820" y="1282" type="line"/>
      <point x="820" y="0" type="line"/>
      <point x="1382" y="0" type="line"/>
      <point x="1382" y="1400" type="line"/>
      <point x="810" y="1400" type="line"/>
      <point x="630.41" y="105" type="line"/>
      <point x="650" y="105" type="line"/>
      <point x="650" y="1400" type="line"/>
      <point x="88" y="1400" type="line"/>
    </contour>
  </outline>
</glyph>
<glyph name="uni041B" format="1">
  <advance width="1261"/>
  <unicode hex="041B"/>
  <outline>
    <contour>
      <point x="-10" y="0" type="line"/>
      <point x="34" y="0" type="line"/>
      <point x="369" y="914" type="line"/>
      <point x="350" y="915" type="line"/>
      <point x="633" y="0" type="line"/>
      <point x="1271" y="0" type="line"/>
      <point x="747" y="1400" type="line"/>
      <point x="513" y="1400" type="line"/>
    </contour>
  </outline>
</glyph>
<glyph name="uni041F" format="1">
  <advance width="1415"/>
  <unicode hex="041F"/>
  <outline>
    <contour>
      <point x="88" y="0" type="line"/>
      <point x="660" y="0" type="line"/>
      <point x="660" y="1400" type="line"/>
      <point x="88" y="1400" type="line"/>
    </contour>
    <contour>
      <point x="755" y="0" type="line"/>
      <point x="1327" y="0" type="line"/>
      <point x="1327" y="1400" type="line"/>
      <point x="755" y="1400" type="line"/>
    </contour>
    <contour>
      <point x="630" y="1364" type="line"/>
      <point x="785" y="1364" type="line"/>
      <point x="785" y="1400" type="line"/>
      <point x="630" y="1400" type="line"/>
    </contour>
  </outline>
</glyph>
<glyph name="uni0423" format="2">
  <advance width="1378"/>
  <unicode hex="0423"/>
  <anchor x="684" y="1550" name="top"/>
  <outline>
    <contour>
      <point x="472" y="-10" type="line"/>
      <point x="894" y="-10" type="line" smooth="yes"/>
      <point x="990" y="-10"/>
      <point x="1143" y="18"/>
      <point x="1249" y="93"/>
      <point x="1306" y="228"/>
      <point x="1306" y="334" type="qcurve" smooth="yes"/>
      <point x="1306" y="1400" type="line"/>
      <point x="736" y="1400" type="line"/>
      <point x="736" y="596" type="line"/>
      <point x="645" y="596" type="line"/>
      <point x="645" y="596"/>
      <point x="645" y="596"/>
      <point x="645" y="596"/>
      <point x="645" y="596"/>
      <point x="645" y="596" type="qcurve"/>
      <point x="645" y="1400" type="line"/>
      <point x="72" y="1400" type="line"/>
      <point x="72" y="904" type="line" smooth="yes"/>
      <point x="72" y="798"/>
      <point x="128" y="664"/>
      <point x="233" y="588"/>
      <point x="385" y="560"/>
      <point x="480" y="560" type="qcurve" smooth="yes"/>
      <point x="736" y="560" type="line"/>
      <point x="736" y="26" type="line"/>
      <point x="736" y="26"/>
      <point x="736" y="26"/>
      <point x="736" y="26"/>
      <point x="736" y="26"/>
      <point x="736" y="26" type="qcurve"/>
      <point x="619" y="26" type="line"/>
      <point x="619" y="26"/>
      <point x="619" y="26"/>
      <point x="619" y="26"/>
      <point x="619" y="26"/>
      <point x="619" y="26" type="qcurve"/>
      <point x="619" y="499" type="line"/>
      <point x="62" y="447" type="line"/>
      <point x="62" y="332" type="line" smooth="yes"/>
      <point x="62" y="226"/>
      <point x="119" y="93"/>
      <point x="225" y="18"/>
      <point x="377" y="-10"/>
      <point x="472" y="-10" type="qcurve"/>
    </contour>
  </outline>
</glyph>
<glyph name="uni0424" format="2">
  <advance width="2012"/>
  <unicode hex="0424"/>
  <anchor x="1035" y="1550" name="top"/>
  <anchor x="1035" y="-150" name="bottom"/>
  <outline>
    <contour>
      <point x="730" y="0" type="line"/>
      <point x="1282" y="0" type="line"/>
      <point x="1282" y="170" type="line"/>
      <point x="1534" y="170" type="line" smooth="yes"/>
      <point x="1629" y="170"/>
      <point x="1782" y="199"/>
      <point x="1890" y="274"/>
      <point x="1948" y="404"/>
      <point x="1948" y="504" type="qcurve" smooth="yes"/>
      <point x="1948" y="969" type="line" smooth="yes"/>
      <point x="1948" y="1070"/>
      <point x="1890" y="1199"/>
      <point x="1782" y="1274"/>
      <point x="1629" y="1303"/>
      <point x="1534" y="1303" type="qcurve" smooth="yes"/>
      <point x="1282" y="1303" type="line"/>
      <point x="1282" y="1458" type="line"/>
      <point x="730" y="1458" type="line"/>
      <point x="730" y="1303" type="line"/>
      <point x="478" y="1303" type="line" smooth="yes"/>
      <point x="384" y="1303"/>
      <point x="231" y="1274"/>
      <point x="123" y="1199"/>
      <point x="64" y="1070"/>
      <point x="64" y="969" type="qcurve" smooth="yes"/>
      <point x="64" y="504" type="line" smooth="yes"/>
      <point x="64" y="404"/>
      <point x="123" y="274"/>
      <point x="231" y="199"/>
      <point x="384" y="170"/>
      <point x="478" y="170" type="qcurve" smooth="yes"/>
      <point x="730" y="170" type="line"/>
    </contour>
    <contour>
      <point x="1282" y="206" type="line"/>
      <point x="1282" y="1267" type="line"/>
      <point x="1316" y="1267" type="line" smooth="yes"/>
      <point x="1336" y="1267"/>
      <point x="1364" y="1258"/>
      <point x="1383" y="1243"/>
      <point x="1392" y="1221"/>
      <point x="1392" y="1207" type="qcurve" smooth="yes"/>
      <point x="1392" y="266" type="line" smooth="yes"/>
      <point x="1392" y="253"/>
      <point x="1383" y="230"/>
      <point x="1364" y="215"/>
      <point x="1336" y="206"/>
      <point x="1316" y="206" type="qcurve" smooth="yes"/>
    </contour>
    <contour>
      <point x="696" y="206" type="line" smooth="yes"/>
      <point x="677" y="206"/>
      <point x="648" y="215"/>
      <point x="629" y="230"/>
      <point x="620" y="253"/>
      <point x="620" y="266" type="qcurve" smooth="yes"/>
      <point x="620" y="1207" type="line" smooth="yes"/>
      <point x="620" y="1221"/>
      <point x="629" y="1243"/>
      <point x="648" y="1258"/>
      <point x="677" y="1267"/>
      <point x="696" y="1267" type="qcurve" smooth="yes"/>
      <point x="730" y="1267" type="line"/>
      <point x="730" y="206" type="line"/>
    </contour>
  </outline>
  <guideline x="1158"/>
</glyph>
<glyph name="uni0426" format="1">
  <advance width="1540"/>
  <unicode hex="0426"/>
  <outline>
    <contour>
      <point x="750" y="0" type="line"/>
      <point x="1322" y="0" type="line"/>
      <point x="1322" y="1400" type="line"/>
      <point x="750" y="1400" type="line"/>
    </contour>
    <contour>
      <point x="88" y="0" type="line"/>
      <point x="660" y="0" type="line"/>
      <point x="660" y="1400" type="line"/>
      <point x="88" y="1400" type="line"/>
    </contour>
    <contour>
      <point x="630" y="0" type="line"/>
      <point x="750" y="0" type="line"/>
      <point x="750" y="36" type="line"/>
      <point x="630" y="36" type="line"/>
    </contour>
    <contour>
      <point x="1110" y="-300" type="line"/>
      <point x="1472" y="-300" type="line"/>
      <point x="1472" y="36" type="line"/>
      <point x="740" y="36" type="line"/>
      <point x="740" y="0" type="line" name="att"/>
      <point x="1016" y="0" type="line"/>
    </contour>
  </outline>
</glyph>
<glyph name="uni0427" format="1">
  <advance width="1389"/>
  <unicode hex="0427"/>
  <outline>
    <contour>
      <point x="731" y="0" type="line"/>
      <point x="1301" y="0" type="line"/>
      <point x="1301" y="1400" type="line"/>
      <point x="731" y="1400" type="line"/>
      <point x="731" y="466" type="line"/>
      <point x="641" y="466" type="line"/>
      <point x="641" y="466"/>
      <point x="641" y="466"/>
      <point x="641" y="466" type="curve"/>
      <point x="641" y="1400" type="line"/>
      <point x="68" y="1400" type="line"/>
      <point x="68" y="814" type="line" smooth="yes"/>
      <point x="68" y="540.308"/>
      <point x="222" y="430"/>
      <point x="476" y="430" type="curve" smooth="yes"/>
      <point x="731" y="430" type="line"/>
    </contour>
  </outline>
</glyph>
<glyph name="uni0428" format="1">
  <advance width="1981.75"/>
  <unicode hex="0428"/>
  <outline>
    <contour>
      <point x="1347.75" y="0" type="line"/>
      <point x="1893.75" y="0" type="line"/>
      <point x="1893.75" y="1400" type="line"/>
      <point x="1347.75" y="1400" type="line"/>
    </contour>
    <contour>
      <point x="88" y="0" type="line"/>
      <point x="634" y="0" type="line"/>
      <point x="634" y="1400" type="line"/>
      <point x="88" y="1400" type="line"/>
    </contour>
    <contour>
      <point x="331" y="36" type="line"/>
      <point x="331" y="0" type="line"/>
      <point x="1531.74" y="0" type="line"/>
      <point x="1531.74" y="36" type="line"/>
    </contour>
    <contour>
      <point x="718.353" y="0" type="line"/>
      <point x="1264.35" y="0" type="line"/>
      <point x="1264.35" y="1400" type="line"/>
      <point x="718.353" y="1400" type="line"/>
    </contour>
  </outline>
</glyph>
<glyph name="uni0429" format="1">
  <advance width="2138"/>
  <unicode hex="0429"/>
  <outline>
    <contour>
      <point x="1347.75" y="0" type="line"/>
      <point x="1893.75" y="0" type="line"/>
      <point x="1893.75" y="1400" type="line"/>
      <point x="1347.75" y="1400" type="line"/>
    </contour>
    <contour>
      <point x="88" y="0" type="line"/>
      <point x="634" y="0" type="line"/>
      <point x="634" y="1400" type="line"/>
      <point x="88" y="1400" type="line"/>
    </contour>
    <contour>
      <point x="331" y="36" type="line"/>
      <point x="331" y="0" type="line"/>
      <point x="1531.74" y="0" type="line"/>
      <point x="1531.74" y="36" type="line"/>
    </contour>
    <contour>
      <point x="718.353" y="0" type="line"/>
      <point x="1264.35" y="0" type="line"/>
      <point x="1264.35" y="1400" type="line"/>
      <point x="718.353" y="1400" type="line"/>
    </contour>
    <contour>
      <point x="1708" y="-300" type="line"/>
      <point x="2070" y="-300" type="line"/>
      <point x="2070" y="36" type="line"/>
      <point x="1338" y="36" type="line"/>
      <point x="1338" y="0" type="line" name="att"/>
      <point x="1614" y="0" type="line"/>
    </contour>
  </outline>
</glyph>
<glyph name="uni042A" format="1">
  <advance width="1625.27"/>
  <unicode hex="042A"/>
  <outline>
    <contour>
      <point x="333.78" y="0" type="line"/>
      <point x="1164.47" y="0" type="line" smooth="yes"/>
      <point x="1416.47" y="0"/>
      <point x="1578.47" y="66"/>
      <point x="1578.47" y="334" type="curve" smooth="yes"/>
      <point x="1578.47" y="590" type="line" smooth="yes"/>
      <point x="1578.47" y="858"/>
      <point x="1416.47" y="924"/>
      <point x="1164.47" y="924" type="curve" smooth="yes"/>
      <point x="905.78" y="924" type="line"/>
      <point x="905.78" y="1400" type="line"/>
      <point x="333.78" y="1400" type="line"/>
    </contour>
    <contour>
      <point x="905.78" y="36" type="line"/>
      <point x="905.78" y="888" type="line"/>
      <point x="930.47" y="888" type="line" smooth="yes"/>
      <point x="982.47" y="888"/>
      <point x="1006.47" y="864"/>
      <point x="1006.47" y="828" type="curve" smooth="yes"/>
      <point x="1006.47" y="96" type="line" smooth="yes"/>
      <point x="1006.47" y="60"/>
      <point x="982.47" y="36"/>
      <point x="930.47" y="36" type="curve" smooth="yes"/>
    </contour>
    <contour>
      <point x="10" y="1364" type="line"/>
      <point x="905.78" y="1364" type="line"/>
      <point x="905.78" y="1400" type="line"/>
      <point x="10" y="1400" type="line"/>
    </contour>
  </outline>
</glyph>
<glyph name="uni042B" format="1">
  <advance width="2125"/>
  <unicode hex="042B"/>
  <outline>
    <contour>
      <point x="88" y="0" type="line"/>
      <point x="911" y="0" type="line" smooth="yes"/>
      <point x="1163" y="0"/>
      <point x="1325" y="66"/>
      <point x="1325" y="334" type="curve" smooth="yes"/>
      <point x="1325" y="590" type="line" smooth="yes"/>
      <point x="1325" y="858"/>
      <point x="1163" y="924"/>
      <point x="911" y="924" type="curve" smooth="yes"/>
      <point x="660" y="924" type="line"/>
      <point x="660" y="1400" type="line"/>
      <point x="88" y="1400" type="line"/>
    </contour>
    <contour>
      <point x="660" y="36" type="line"/>
      <point x="660" y="888" type="line"/>
      <point x="677" y="888" type="line" smooth="yes"/>
      <point x="729" y="888"/>
      <point x="753" y="864"/>
      <point x="753" y="828" type="curve" smooth="yes"/>
      <point x="753" y="96" type="line" smooth="yes"/>
      <point x="753" y="60"/>
      <point x="729" y="36"/>
      <point x="677" y="36" type="curve" smooth="yes"/>
    </contour>
    <contour>
      <point x="1465" y="0" type="line"/>
      <point x="2037" y="0" type="line"/>
      <point x="2037" y="1400" type="line"/>
      <point x="1465" y="1400" type="line"/>
    </contour>
    <contour>
      <point x="1062.5" y="1550" type="move" name="top"/>
    </contour>
  </outline>
</glyph>
<glyph name="uni042C" format="1">
  <advance width="1383.8"/>
  <unicode hex="042C"/>
  <outline>
    <contour>
      <point x="88" y="0" type="line"/>
      <point x="923" y="0" type="line" smooth="yes"/>
      <point x="1175" y="0"/>
      <point x="1337" y="66"/>
      <point x="1337" y="334" type="curve" smooth="yes"/>
      <point x="1337" y="590" type="line" smooth="yes"/>
      <point x="1337" y="858"/>
      <point x="1175" y="924"/>
      <point x="923" y="924" type="curve" smooth="yes"/>
      <point x="660" y="924" type="line"/>
      <point x="660" y="1400" type="line"/>
      <point x="88" y="1400" type="line"/>
    </contour>
    <contour>
      <point x="660" y="36" type="line"/>
      <point x="660" y="888" type="line"/>
      <point x="689" y="888" type="line" smooth="yes"/>
      <point x="741" y="888"/>
      <point x="765" y="864"/>
      <point x="765" y="828" type="curve" smooth="yes"/>
      <point x="765" y="96" type="line" smooth="yes"/>
      <point x="765" y="60"/>
      <point x="741" y="36"/>
      <point x="689" y="36" type="curve" smooth="yes"/>
    </contour>
  </outline>
</glyph>
